<?xml version="1.0" encoding="UTF-8"?>
<svg version="1.1" xmlns="http://www.w3.org/2000/svg" width="512" height="512">
<path d="M0 0 C1.13985352 -0.03673828 1.13985352 -0.03673828 2.30273438 -0.07421875 C9.1050023 -0.10907239 14.17898637 1.84815792 19.3046875 6.33984375 C19.84351563 6.99082031 20.38234375 7.64179688 20.9375 8.3125 C21.49179687 8.96089844 22.04609375 9.60929687 22.6171875 10.27734375 C27.24625156 16.99574213 26.72034577 24.55579527 26.0625 32.375 C23.56428359 41.99388114 14.42668369 47.95270435 7.0859375 53.85546875 C3.80316033 56.5911164 0.67889285 59.45355453 -2.4375 62.375 C-7.16849221 66.80657112 -12.04254176 70.95411707 -17.1015625 75.01171875 C-21.01320292 78.2714191 -24.72820224 81.72610307 -28.43554688 85.21484375 C-30.70166351 87.34163828 -32.92555412 89.36634276 -35.44458008 91.19189453 C-38.25283878 93.65114919 -39.30189661 95.59275997 -40.76953125 99.00390625 C-41.25454102 100.11314453 -41.73955078 101.22238281 -42.23925781 102.36523438 C-42.9870752 104.13350586 -42.9870752 104.13350586 -43.75 105.9375 C-44.53068848 107.74250977 -44.53068848 107.74250977 -45.32714844 109.58398438 C-46.87645151 113.17576781 -48.40713241 116.7751178 -49.9375 120.375 C-50.78897829 122.34304828 -51.64172019 124.31055065 -52.49609375 126.27734375 C-53.2277136 127.9760672 -53.95826545 129.67525122 -54.6875 131.375 C-55.18987183 132.53817749 -55.18987183 132.53817749 -55.70239258 133.72485352 C-56.98356544 136.76207813 -57.9375 139.04356121 -57.9375 142.375 C-56.9475 143.035 -55.9575 143.695 -54.9375 144.375 C-54.72996094 143.38242188 -54.52242188 142.38984375 -54.30859375 141.3671875 C-50.81523828 125.57071967 -44.71717674 114.07504581 -33.29003906 102.72607422 C-32.15562925 101.59289301 -31.05406253 100.42696335 -29.9609375 99.25390625 C-19.81828836 88.46231985 -5.74823238 80.68901168 9.19921875 80.0390625 C19.72997026 79.86761633 29.27516869 80.01902501 39.0625 84.375 C39.99964844 84.7875 40.93679688 85.2 41.90234375 85.625 C56.36004556 92.76260314 66.77335658 105.20944658 72.0625 120.375 C76.15546978 133.9985312 75.84260044 150.34250937 70.0625 163.375 C69.47855469 164.74591797 69.47855469 164.74591797 68.8828125 166.14453125 C65.11150135 173.94378124 59.4372921 179.8593304 53.43115234 185.97558594 C52.29667517 187.13556153 51.18607901 188.31883799 50.08203125 189.5078125 C40.70232251 199.44451107 27.28956281 207.64464176 13.40917969 208.54760742 C10.5199929 208.6065755 7.63950514 208.59902734 4.75 208.5625 C3.26790039 208.5615332 3.26790039 208.5615332 1.75585938 208.56054688 C-5.51448726 208.51600425 -5.51448726 208.51600425 -8.9375 207.375 C-8.80118164 208.35557373 -8.80118164 208.35557373 -8.66210938 209.35595703 C-8.2442294 212.40273066 -7.84084809 215.45126983 -7.4375 218.5 C-7.29441406 219.52738281 -7.15132813 220.55476562 -7.00390625 221.61328125 C-5.11488274 236.09579484 -6.11651678 248.05146753 -10.57421875 261.8515625 C-11.05706055 263.3941512 -11.53829533 264.93724371 -12.01802063 266.48080444 C-13.02077475 269.69327886 -14.03613644 272.90135901 -15.06225586 276.10644531 C-16.3662825 280.17991316 -17.64802694 284.25993525 -18.92151165 288.34304237 C-20.1522646 292.28579709 -21.39405772 296.22504797 -22.63671875 300.1640625 C-22.86699957 300.89705189 -23.09728039 301.63004128 -23.33453941 302.38524246 C-29.28636043 321.26610235 -35.1097729 336.70136726 -52.9375 347.375 C-55.26054214 348.20755572 -57.53129099 348.7982308 -59.9375 349.375 C-58.92100608 352.334882 -57.89931058 355.2928219 -56.875 358.25 C-56.59978516 359.05308594 -56.32457031 359.85617187 -56.04101562 360.68359375 C-55.60112305 361.95009766 -55.60112305 361.95009766 -55.15234375 363.2421875 C-54.82806396 364.19851074 -54.50378418 365.15483398 -54.16967773 366.14013672 C-53.25572297 368.53956226 -52.30192344 370.68486017 -51.14477539 372.95751953 C-44.26092726 387.17394848 -45.11385778 401.9494646 -45.45684814 417.35180664 C-45.52957932 420.9725231 -45.56066132 424.59360119 -45.59570312 428.21484375 C-45.66987668 435.2690883 -45.78869454 442.32190081 -45.9375 449.375 C-44.99583984 449.51671631 -44.05417969 449.65843262 -43.08398438 449.80444336 C-35.78487441 451.12800171 -30.51589789 456.26032215 -26.2265625 462.0546875 C-22.38056042 468.97749125 -21.43631517 474.82071364 -21.5 482.625 C-21.48001953 483.50929688 -21.46003906 484.39359375 -21.43945312 485.3046875 C-21.44009766 486.15804688 -21.44074219 487.01140625 -21.44140625 487.890625 C-21.43955322 488.65665039 -21.4377002 489.42267578 -21.43579102 490.21191406 C-22.15188183 493.29929342 -23.48226169 494.40148878 -25.9375 496.375 C-28.82128906 496.88293457 -28.82128906 496.88293457 -32.203125 496.89257812 C-33.47124023 496.90518677 -34.73935547 496.91779541 -36.04589844 496.93078613 C-37.42643795 496.9236263 -38.80697239 496.91542231 -40.1875 496.90625 C-41.60709906 496.90894562 -43.02669631 496.91282863 -44.44628906 496.91784668 C-47.41879894 496.92373858 -50.39082741 496.91518954 -53.36328125 496.89648438 C-57.17008787 496.873694 -60.97576649 496.88681888 -64.78253174 496.91077423 C-67.71313956 496.92524114 -70.64348074 496.92062235 -73.57409668 496.91026306 C-74.97749974 496.90759819 -76.38092715 496.91085717 -77.78430176 496.92018127 C-79.74682135 496.93035941 -81.70942602 496.9120904 -83.671875 496.89257812 C-84.78788086 496.88939575 -85.90388672 496.88621338 -87.05371094 496.88293457 C-90.61614838 496.25546665 -91.76776448 495.22344652 -93.9375 492.375 C-94.75645213 489.50876252 -95.3341353 486.86310421 -95.80859375 483.9375 C-95.96710312 483.03918457 -96.12561249 482.14086914 -96.28892517 481.21533203 C-96.85891008 477.9383837 -97.39959625 474.65736637 -97.9375 471.375 C-98.16095412 470.02680896 -98.38470134 468.67866648 -98.60870361 467.33056641 C-99.88892219 459.61584888 -101.15215764 451.89837436 -102.40820312 444.1796875 C-102.60409751 442.97622932 -102.60409751 442.97622932 -102.80394936 441.74845886 C-103.47518397 437.61981211 -104.14249653 433.49057629 -104.80395508 429.36035156 C-105.45433385 425.30164095 -106.11500419 421.24472102 -106.78243828 417.18878174 C-107.0322608 415.65844739 -107.27825212 414.12748218 -107.5202198 412.59588623 C-107.8566894 410.46845607 -108.20624841 408.34355925 -108.55883789 406.21875 C-108.75328995 405.01412109 -108.947742 403.80949219 -109.14808655 402.56835938 C-110.61573798 396.63137103 -113.87257945 393.19258126 -118.14331055 388.94213867 C-118.91937653 388.16563461 -118.91937653 388.16563461 -119.71112061 387.3734436 C-121.41078597 385.67516399 -123.11740964 383.98406599 -124.82421875 382.29296875 C-126.0086407 381.11227961 -127.19261987 379.93114615 -128.37617493 378.74958801 C-131.48380497 375.64957328 -134.59739537 372.55561334 -137.71228027 369.46289062 C-140.89320028 366.30247434 -144.06842595 363.13634838 -147.24414062 359.97070312 C-153.46971239 353.76654418 -159.70159473 347.56877239 -165.9375 341.375 C-167.21356056 342.32236311 -168.4882856 343.27152528 -169.76245117 344.22143555 C-170.47245773 344.74980515 -171.18246429 345.27817474 -171.91398621 345.82255554 C-174.49869005 347.8055463 -176.87441127 349.95969284 -179.25 352.1875 C-182.84718397 355.5075969 -186.4939692 358.68739378 -190.3125 361.75 C-195.10228622 365.61185043 -199.60481289 369.70534827 -204.07910156 373.92211914 C-208.40729105 377.97251191 -212.93482679 381.60595063 -217.6953125 385.14453125 C-222.63840909 390.06179284 -223.78065484 397.2004994 -225.25 403.79516602 C-225.46019775 404.71313965 -225.67039551 405.63111328 -225.88696289 406.5769043 C-226.33998926 408.55904997 -226.79000457 410.54188577 -227.23730469 412.5253315 C-227.94607088 415.66689619 -228.66331753 418.80641764 -229.3828125 421.94554138 C-231.16739692 429.73908036 -232.93852806 437.53566118 -234.70800781 445.3326416 C-236.20562121 451.93037075 -237.70933321 458.5266473 -239.22167969 465.12101555 C-239.92735237 468.2094937 -240.62394349 471.29993122 -241.3203125 474.39051819 C-241.75474029 476.28852882 -242.18961246 478.18643781 -242.625 480.08422852 C-242.81521729 480.93997971 -243.00543457 481.7957309 -243.20141602 482.67741394 C-244.26435876 487.26190452 -245.49986796 491.28860473 -247.9375 495.375 C-250.85868653 496.83559326 -253.4481024 496.52656549 -256.71044922 496.55200195 C-257.40657318 496.55857315 -258.10269714 496.56514435 -258.81991577 496.57191467 C-261.12734073 496.59165198 -263.43470064 496.60331041 -265.7421875 496.61328125 C-266.52970524 496.61735678 -267.31722298 496.6214323 -268.12860489 496.62563133 C-272.29585763 496.64649273 -276.46307742 496.6607948 -280.63037109 496.67016602 C-284.93704542 496.68123794 -289.2432041 496.71564613 -293.54969597 496.75533772 C-296.85939503 496.78146576 -300.16897045 496.78985436 -303.47876358 496.79344749 C-305.06641248 496.79832244 -306.65405553 496.80996228 -308.24160385 496.82848549 C-310.46340737 496.85280005 -312.68386626 496.85192702 -314.90576172 496.8449707 C-316.16991913 496.85083694 -317.43407654 496.85670319 -318.73654175 496.86274719 C-322.50027239 496.28924735 -323.66876491 495.3715168 -325.9375 492.375 C-326.45507812 490.24365234 -326.45507812 490.24365234 -326.46875 487.9609375 C-326.47696777 487.12199951 -326.48518555 486.28306152 -326.49365234 485.41870117 C-326.47512207 484.53802979 -326.4565918 483.6573584 -326.4375 482.75 C-326.42541504 481.84934814 -326.41333008 480.94869629 -326.40087891 480.02075195 C-326.12566389 470.80938867 -324.02135626 463.73814408 -317.640625 456.90625 C-312.89155469 452.63644367 -307.96639914 450.34065521 -301.9375 448.375 C-301.7584613 447.07731689 -301.57942261 445.77963379 -301.3949585 444.44262695 C-299.70387704 432.19920286 -297.99792336 419.95793077 -296.27747726 407.71859741 C-295.39350497 401.42652571 -294.5147448 395.13381832 -293.64794922 388.83935547 C-292.81087838 382.76217389 -291.96004767 376.68706259 -291.09973907 370.61312866 C-290.7743114 368.29824948 -290.45380449 365.98267291 -290.13835907 363.66641235 C-289.69486017 360.41623667 -289.23375189 357.16900602 -288.76855469 353.921875 C-288.64267471 352.96880966 -288.51679474 352.01574432 -288.38710022 351.03379822 C-287.11673744 342.4064337 -283.9506773 336.28347361 -278.5 329.5 C-274.42470268 324.34378296 -270.5171341 319.09113396 -266.6875 313.75 C-233.95850172 268.20831798 -233.95850172 268.20831798 -217.2734375 249.95703125 C-215.39014529 247.87533201 -213.55374766 245.76763973 -211.72265625 243.640625 C-207.67296834 239.0033417 -203.3630139 234.65342269 -199 230.3125 C-198.24009766 229.54873047 -197.48019531 228.78496094 -196.69726562 227.99804688 C-191.9410502 223.24995479 -187.06019368 218.72419066 -181.9375 214.375 C-181.30110596 213.83190186 -180.66471191 213.28880371 -180.0090332 212.72924805 C-172.09748743 206.02321422 -164.0348517 199.57175064 -155.625 193.5 C-154.49976929 192.68390259 -154.49976929 192.68390259 -153.35180664 191.85131836 C-150.05411943 189.48898571 -146.76542504 187.22072218 -143.2421875 185.20703125 C-142.17226562 184.58183594 -141.10234375 183.95664063 -140 183.3125 C-139.08347656 182.82652344 -138.16695312 182.34054688 -137.22265625 181.83984375 C-133.443166 177.76316282 -133.02901722 172.71084433 -131.9375 167.375 C-131.39346785 165.02416392 -130.84107795 162.67524961 -130.28125 160.328125 C-129.84014893 158.46800781 -129.84014893 158.46800781 -129.39013672 156.5703125 C-122.27566758 126.94048782 -111.8202218 98.96780642 -98.9375 71.375 C-98.64670563 70.74049927 -98.35591125 70.10599854 -98.05630493 69.45227051 C-97.17894171 67.54660437 -96.2818281 65.65148115 -95.37890625 63.7578125 C-94.85756104 62.65066895 -94.33621582 61.54352539 -93.79907227 60.40283203 C-90.98740479 55.82967792 -87.17206 52.93823107 -82.7109375 49.984375 C-78.40824518 47.05186487 -74.34143379 43.84272381 -70.25 40.625 C-68.71153958 39.4263102 -67.17247007 38.22840174 -65.6328125 37.03125 C-64.06767466 35.81254325 -62.50257063 34.59379307 -60.9375 33.375 C-59.37242937 32.15620693 -57.80732534 30.93745675 -56.2421875 29.71875 C-55.47640381 29.12231689 -54.71062012 28.52588379 -53.92163086 27.91137695 C-52.39766404 26.72599742 -50.87244626 25.54222431 -49.34594727 24.36010742 C-46.00934876 21.77555252 -42.68483371 19.18225981 -39.41015625 16.51953125 C-27.74577186 7.11574035 -15.3193741 0.02585548 0 0 Z M-28.04931641 29.85644531 C-31.53658124 32.66104672 -35.08702908 35.38487025 -38.625 38.125 C-40.16443919 39.32243255 -41.70349746 40.52035496 -43.2421875 41.71875 C-44.40186035 42.62173828 -44.40186035 42.62173828 -45.58496094 43.54296875 C-46.36129883 44.14753906 -47.13763672 44.75210938 -47.9375 45.375 C-50.27548602 47.19569812 -52.61354113 49.0162821 -54.95385742 50.83398438 C-56.48270719 52.02650345 -58.00634996 53.22572875 -59.5246582 54.43164062 C-62.77308796 56.9992532 -65.96206472 59.46292056 -69.53515625 61.5625 C-81.76198428 69.25709499 -85.75365238 82.45822267 -90.9375 95.375 C-91.33291992 96.34453613 -91.72833984 97.31407227 -92.13574219 98.31298828 C-95.96237509 106.14841681 -95.96237509 106.14841681 -97.9375 114.375 C-88.0375 115.695 -78.1375 117.015 -67.9375 118.375 C-64.21081988 109.94088011 -64.21081988 109.94088011 -60.48950195 101.50439453 C-58.98962047 98.11979859 -57.46956369 94.74514588 -55.9375 91.375 C-55.49712402 90.39805176 -55.05674805 89.42110352 -54.60302734 88.41455078 C-52.32151364 83.57024086 -50.370566 80.20316049 -45.9375 77 C-41.53480537 73.65063822 -37.45385055 70.16623482 -33.4375 66.375 C-28.70213418 61.93594233 -23.81933567 57.78532235 -18.75390625 53.72265625 C-14.94226288 50.54540567 -11.34426024 47.16096105 -7.72729492 43.76586914 C-3.61694052 39.9332831 0.66234649 36.40130341 5.13671875 32.99609375 C8.12004489 30.48477458 9.01351284 28.82404893 9.4375 24.9375 C9.37654087 21.39279738 9.37654087 21.39279738 7.390625 19.18359375 C-3.87267972 10.43374462 -19.48332937 22.91435321 -28.04931641 29.85644531 Z M-8.9375 105.375 C-5.95445948 108.47512846 -2.94825532 111.55179938 0.0625 114.625 C0.90167969 115.49769531 1.74085938 116.37039062 2.60546875 117.26953125 C9.30493592 124.07286612 16.28723807 129.31398403 26.0625 130.375 C28.83381167 130.26398306 31.55326016 129.99392582 34.30859375 129.6796875 C36.90182205 129.39277713 39.45497586 129.20131778 42.0625 129.125 C42.76375 129.09921875 43.465 129.0734375 44.1875 129.046875 C46.72968481 129.49175734 47.46475793 130.36693432 49.0625 132.375 C49.55493164 134.67163086 49.55493164 134.67163086 49.72265625 137.33984375 C49.79419922 138.30470703 49.86574219 139.26957031 49.93945312 140.26367188 C50.00068359 141.26978516 50.06191406 142.27589844 50.125 143.3125 C50.25417514 145.30128559 50.39061831 147.28961562 50.53515625 149.27734375 C50.61648804 150.59980103 50.61648804 150.59980103 50.69946289 151.94897461 C51.07508955 154.45913069 51.8041529 156.18710895 53.0625 158.375 C58.18767158 147.7814534 59.15753725 135.55076381 55.4375 124.3125 C53.32620301 119.4157726 50.57203359 115.36890021 47.0625 111.375 C46.56105469 110.76914063 46.05960937 110.16328125 45.54296875 109.5390625 C39.08437122 102.34189056 29.78102248 97.77529657 20.15625 97.1015625 C9.42941193 96.7704078 -1.01587126 97.12561903 -8.9375 105.375 Z M-24.7421875 119.0625 C-29.03351847 123.85583572 -32.5859759 128.35649524 -34.9375 134.375 C-35.29328125 135.26445312 -35.6490625 136.15390625 -36.015625 137.0703125 C-38.89013014 147.37468262 -38.04905633 159.97480044 -32.9375 169.375 C-31.1515637 172.26749626 -29.17955837 174.823505 -26.9375 177.375 C-26.18533203 178.28378906 -26.18533203 178.28378906 -25.41796875 179.2109375 C-18.96373346 186.40324836 -9.6309536 191.03079716 0.00390625 191.61328125 C15.02887519 191.97648646 24.83039828 189.09208778 35.953125 178.58984375 C37.34873412 177.21053847 38.71012843 175.79672395 40.0625 174.375 C39.86914062 173.818125 39.67578125 173.26125 39.4765625 172.6875 C36.45813123 163.8414044 34.71573618 155.72659168 34.0625 146.375 C33.03511719 146.34921875 32.00773437 146.3234375 30.94921875 146.296875 C22.35921167 145.98700669 14.89724885 145.22638496 7.0625 141.375 C6.23105469 140.97152344 5.39960938 140.56804687 4.54296875 140.15234375 C-3.25074753 135.77056923 -9.12840633 129.47231361 -15.27587891 123.06567383 C-15.98019043 122.33372803 -16.68450195 121.60178223 -17.41015625 120.84765625 C-18.04187744 120.18000244 -18.67359863 119.51234863 -19.32446289 118.82446289 C-21.70720945 116.68334493 -22.4266896 116.8973591 -24.7421875 119.0625 Z M-103.9375 130.375 C-108.53833045 144.65358085 -112.4172878 158.9734858 -115.67578125 173.6171875 C-115.89443848 174.59526367 -116.1130957 175.57333984 -116.33837891 176.58105469 C-116.72367435 178.37784402 -117.08240778 180.18064514 -117.40771484 181.98925781 C-118.47823083 187.71190706 -119.82012792 190.19249201 -124.68945312 193.6015625 C-126.83548587 195.05861674 -129.00822972 196.46818759 -131.1875 197.875 C-145.23409181 207.10675439 -158.38439518 217.20079305 -170.9375 228.375 C-171.50581543 228.88015137 -172.07413086 229.38530273 -172.65966797 229.90576172 C-179.84785152 236.1286392 -179.84785152 236.1286392 -185.9375 243.375 C-177.51443374 250.01747804 -169.06018036 256.61533834 -160.54638672 263.14111328 C-157.84100188 265.21592587 -155.13945834 267.29572853 -152.4375 269.375 C-151.35418482 270.20835693 -150.27085149 271.04169027 -149.1875 271.875 C-142.6875 276.875 -142.6875 276.875 -141.0612793 278.12597656 C-139.98206341 278.95611766 -138.90279938 279.78619618 -137.82348633 280.61621094 C-135.05175024 282.74786479 -132.28095629 284.88072601 -129.51171875 287.015625 C-123.68245702 291.50788479 -117.83904271 295.9777721 -111.9375 300.375 C-108.80221445 298.99787458 -106.81694227 297.44545952 -104.51171875 294.92578125 C-103.87943359 294.24193359 -103.24714844 293.55808594 -102.59570312 292.85351562 C-101.62020508 291.78133789 -101.62020508 291.78133789 -100.625 290.6875 C-99.3384213 289.28667415 -98.05066694 287.88692715 -96.76171875 286.48828125 C-96.12854736 285.80064697 -95.49537598 285.1130127 -94.84301758 284.40454102 C-92.43638655 281.84127084 -89.94716804 279.36927709 -87.44897461 276.89575195 C-85.03598572 274.46795228 -82.84690975 271.87156425 -80.640625 269.2578125 C-79.06685443 267.51800192 -77.44108777 266.15976533 -75.625 264.6875 C-70.71509648 259.89543417 -71.07624057 251.98225483 -70.828125 245.53125 C-70.81513534 243.47888393 -70.86796681 241.42622899 -70.9375 239.375 C-65.3275 239.705 -59.7175 240.035 -53.9375 240.375 C-53.9375 243.015 -53.9375 245.655 -53.9375 248.375 C-44.3675 248.375 -34.7975 248.375 -24.9375 248.375 C-21.64737378 238.50462135 -23.28132467 229.2905842 -24.59155273 219.18896484 C-24.87696252 216.98484411 -25.1529665 214.77968891 -25.42773438 212.57421875 C-25.83675598 203.78856935 -25.83675598 203.78856935 -29.94140625 196.71875 C-30.78574219 196.1103125 -31.63007813 195.501875 -32.5 194.875 C-39.7716494 189.20083135 -44.58685544 182.45136855 -48.3125 174.0625 C-53.29557744 164.40256776 -64.50138972 157.86685777 -73.4375 152.08984375 C-75.9375 150.375 -75.9375 150.375 -76.9375 148.375 C-77.20352986 143.05440271 -76.76590349 139.43382388 -74.9375 134.375 C-78.08288695 133.89287364 -81.22888596 133.41485675 -84.375 132.9375 C-85.25349609 132.80279297 -86.13199219 132.66808594 -87.03710938 132.52929688 C-92.66115089 131.67842713 -98.28032007 130.96776656 -103.9375 130.375 Z M-198.9375 255.375 C-200.77104029 257.22080477 -202.55061833 259.08725551 -204.3125 261 C-204.85052246 261.58394531 -205.38854492 262.16789062 -205.94287109 262.76953125 C-211.15566251 268.50008894 -215.93536505 274.52001453 -220.63476562 280.67382812 C-221.87664114 282.29552763 -223.13327354 283.90589478 -224.390625 285.515625 C-229.69825388 292.32993563 -234.79560088 299.27858499 -239.83496094 306.29321289 C-244.39322039 312.63632495 -249.01128272 318.93333579 -253.65332031 325.21533203 C-254.76234501 326.71619413 -255.85833015 328.22674771 -256.94360352 329.74487305 C-258.4592397 331.74413209 -259.98484516 333.55436972 -261.66381836 335.40551758 C-271.37555594 346.58671085 -272.58716438 358.34516711 -274.25 372.6875 C-274.55951671 375.07599869 -274.87337208 377.46393887 -275.19140625 379.85131836 C-275.82994512 384.68172519 -276.44643801 389.51414221 -277.04541016 394.34960938 C-277.86952051 400.93842199 -278.79268354 407.50921642 -279.76171875 414.078125 C-279.9054744 415.05488693 -280.04923004 416.03164886 -280.19734192 417.03800964 C-280.47616485 418.92891203 -280.75537338 420.81975761 -281.03500366 422.71054077 C-281.66883714 427.00483587 -282.29329536 431.30033265 -282.90625 435.59765625 C-283.0120488 436.31910828 -283.1178476 437.0405603 -283.22685242 437.78387451 C-283.73812083 441.39346159 -283.9375 444.70416377 -283.9375 448.375 C-273.7075 448.375 -263.4775 448.375 -252.9375 448.375 C-251.88949219 443.75242187 -250.84148437 439.12984375 -249.76171875 434.3671875 C-249.09264699 431.43209199 -248.4231213 428.49711491 -247.75195312 425.5625 C-246.68768075 420.90887745 -245.62507153 416.25492007 -244.57250977 411.59863281 C-243.72340458 407.8428837 -242.86672536 404.08893499 -242.00486183 400.3360939 C-241.67805856 398.90705497 -241.35394689 397.47739763 -241.03262901 396.04711533 C-240.58063208 394.03733547 -240.11894224 392.03000708 -239.6550293 390.02294922 C-239.39521774 388.88155487 -239.13540619 387.74016052 -238.86772156 386.56417847 C-237.13564221 380.62590481 -234.98627489 376.97570504 -230.0625 373.25 C-225.65760064 369.79813955 -221.51217066 366.20977034 -217.4375 362.375 C-212.7000391 357.9354576 -207.81619102 353.78348466 -202.75 349.71875 C-199.53899294 347.04291079 -196.48731379 344.23131701 -193.4375 341.375 C-188.5448174 336.79530998 -183.54598001 332.46103902 -178.296875 328.2890625 C-176.34201303 326.70316455 -174.56036289 325.05473095 -172.75 323.3125 C-169.75765951 321.25110989 -167.63520507 320.50616625 -163.97158813 320.7829895 C-155.35662705 323.29032796 -146.82764218 335.30087419 -140.5390625 341.5703125 C-139.5939789 342.51115503 -139.5939789 342.51115503 -138.6298027 343.47100449 C-135.30503525 346.78087757 -131.98307816 350.09353977 -128.66357422 353.40869141 C-125.24059343 356.82615653 -121.80840813 360.23422123 -118.37404823 363.64024544 C-115.72505062 366.27062944 -113.082775 368.90768768 -110.4423027 371.54662704 C-109.17931639 372.80659084 -107.91383423 374.06405804 -106.64580154 375.31894302 C-104.87731592 377.07037181 -103.11853958 378.83102247 -101.36181641 380.59423828 C-100.83923248 381.10760742 -100.31664856 381.62097656 -99.77822876 382.14990234 C-95.29157977 386.68869316 -93.90342277 390.6705219 -92.90014648 396.85205078 C-92.72333847 397.92311066 -92.54653046 398.99417053 -92.36436462 400.09768677 C-92.18096024 401.24365326 -91.99755585 402.38961975 -91.80859375 403.5703125 C-91.61403091 404.75470917 -91.41946808 405.93910583 -91.2190094 407.15939331 C-90.59894834 410.93873747 -89.98653946 414.7192684 -89.375 418.5 C-88.75876455 422.2876755 -88.14089729 426.07507017 -87.52027893 429.86203003 C-87.13460034 432.21762958 -86.75165578 434.5736787 -86.37168884 436.9302063 C-86.19803299 437.99496185 -86.02437714 439.05971741 -85.84545898 440.15673828 C-85.69382797 441.09429962 -85.54219696 442.03186096 -85.38597107 442.99783325 C-84.96729 445.51041679 -84.96729 445.51041679 -83.9375 448.375 C-76.6775 448.375 -69.4175 448.375 -61.9375 448.375 C-60.13349125 412.77589404 -61.86707918 384.51584163 -77.9375 352.375 C-79.07703125 352.3656543 -80.2165625 352.35630859 -81.390625 352.34667969 C-85.64768528 352.30658945 -89.90403727 352.24077905 -94.16064453 352.16748047 C-95.99746553 352.13938069 -97.83440497 352.11811182 -99.67138672 352.10400391 C-102.32320314 352.08242103 -104.97361185 352.03569501 -107.625 351.984375 C-108.84268066 351.98253204 -108.84268066 351.98253204 -110.08496094 351.98065186 C-116.67926797 351.81398967 -121.92804799 349.97195955 -126.9609375 345.62890625 C-127.40695313 345.07074219 -127.85296875 344.51257813 -128.3125 343.9375 C-129.00472656 343.10412109 -129.00472656 343.10412109 -129.7109375 342.25390625 C-133.9295981 335.7915631 -133.64691141 328.84915589 -132.9375 321.375 C-131.93301726 318.28100364 -130.69443071 316.16541937 -128.9375 313.375 C-128.25773923 312.04829449 -127.58771442 310.71643335 -126.9375 309.375 C-128.01064453 308.57449219 -128.01064453 308.57449219 -129.10546875 307.7578125 C-136.21390742 302.44257634 -143.27028324 297.06458906 -150.29638672 291.64111328 C-153.00772129 289.54932793 -155.72278452 287.46239443 -158.4375 285.375 C-159.52085149 284.54169027 -160.60418482 283.70835693 -161.6875 282.875 C-162.22375 282.4625 -162.76 282.05 -163.3125 281.625 C-168.1875 277.875 -168.1875 277.875 -169.81396484 276.6237793 C-170.89229426 275.7943575 -171.97074389 274.96509198 -173.04931641 274.13598633 C-175.83523945 271.99410264 -178.61872833 269.84916226 -181.3984375 267.69921875 C-189.6890917 259.91804996 -189.6890917 259.91804996 -198.9375 255.375 Z M-55.9375 264.375 C-56.95849695 270.65805815 -57.9047746 276.89986174 -58.5625 283.23046875 C-58.7330188 284.7918457 -58.7330188 284.7918457 -58.90698242 286.38476562 C-59.13112778 288.46126099 -59.3402815 290.53944415 -59.5324707 292.61914062 C-60.42329627 300.66089586 -62.5727926 308.71756582 -68.8125 314.3125 C-74.68528947 318.18854105 -79.15678526 319.74049912 -86.19140625 319.78125 C-86.85534897 319.79208618 -87.51929169 319.80292236 -88.20335388 319.81408691 C-91.0104224 319.85947902 -93.81738672 319.87139202 -96.62475586 319.88623047 C-98.68896419 319.90201151 -100.75242548 319.93501524 -102.81640625 319.96875 C-104.0391626 319.97583984 -105.26191895 319.98292969 -106.52172852 319.99023438 C-110.28540616 320.41418949 -112.71890475 321.40799729 -115.9375 323.375 C-117.35791821 326.21583641 -117.25202272 328.22977278 -116.9375 331.375 C-114.70543569 334.22280619 -113.38757001 335.22497666 -109.9375 336.375 C-105.5085099 336.58230405 -101.07681825 336.56079642 -96.64355469 336.56030273 C-94.47310029 336.56246454 -92.30317532 336.58055808 -90.1328125 336.59960938 C-76.59954847 336.65609033 -63.71104232 335.77445691 -53.1875 326.3125 C-44.6944828 316.73563478 -41.54892059 303.71952927 -37.93066406 291.74511719 C-37.05479805 288.84953763 -36.16144582 285.95977379 -35.265625 283.0703125 C-34.69949954 281.22427122 -34.13435882 279.3779276 -33.5703125 277.53125 C-33.3047757 276.67084106 -33.03923889 275.81043213 -32.76565552 274.9239502 C-32.52475189 274.12211304 -32.28384827 273.32027588 -32.03564453 272.49414062 C-31.82279816 271.79309204 -31.60995178 271.09204346 -31.39065552 270.36975098 C-30.78981364 268.0658269 -30.78981364 268.0658269 -30.9375 264.375 C-39.1875 264.375 -47.4375 264.375 -55.9375 264.375 Z M-78.24438477 290.66015625 C-78.78377686 291.24667969 -79.32316895 291.83320313 -79.87890625 292.4375 C-80.46220703 293.06914062 -81.04550781 293.70078125 -81.64648438 294.3515625 C-82.25814453 295.01929688 -82.86980469 295.68703125 -83.5 296.375 C-84.42329102 297.37660156 -84.42329102 297.37660156 -85.36523438 298.3984375 C-86.89173216 300.05510176 -88.41568501 301.71403502 -89.9375 303.375 C-86.58395165 304.46822722 -85.90046146 304.36222809 -82.3125 303.125 C-78.75549567 301.62558843 -78.75549567 301.62558843 -76.9375 298.375 C-76.48355448 296.09587062 -76.48355448 296.09587062 -76.3125 293.6875 C-76.23773438 292.87925781 -76.16296875 292.07101562 -76.0859375 291.23828125 C-76.03695312 290.62339844 -75.98796875 290.00851562 -75.9375 289.375 C-77.12415082 289.2581409 -77.12415082 289.2581409 -78.24438477 290.66015625 Z M-305.9375 470.125 C-308.46520877 473.74906715 -308.46520877 473.74906715 -308.9375 480.375 C-293.0975 480.375 -277.2575 480.375 -260.9375 480.375 C-259.6175 475.095 -258.2975 469.815 -256.9375 464.375 C-262.04259379 464.3057697 -267.14602985 464.246147 -272.2512207 464.21020508 C-273.98435006 464.19520731 -275.71744204 464.17480228 -277.45043945 464.14868164 C-279.95533525 464.11189797 -282.4597252 464.09518349 -284.96484375 464.08203125 C-285.72772202 464.06654739 -286.49060028 464.05106354 -287.27659607 464.03511047 C-293.94538585 464.03306869 -301.20211916 465.01657308 -305.9375 470.125 Z M-80.9375 464.375 C-80.79514543 466.10445653 -80.64845618 467.83355654 -80.5 469.5625 C-80.41878906 470.52542969 -80.33757812 471.48835938 -80.25390625 472.48046875 C-79.96400639 475.13251558 -79.46070735 477.75896323 -78.9375 480.375 C-65.7375 480.375 -52.5375 480.375 -38.9375 480.375 C-40.01363989 472.66784206 -40.01363989 472.66784206 -44.9375 467.375 C-52.21630195 463.59332102 -60.01278845 464.02189593 -68 464.1875 C-69.24716797 464.20103516 -70.49433594 464.21457031 -71.77929688 464.22851562 C-74.83248967 464.2636098 -77.8847599 464.31277733 -80.9375 464.375 Z " fill="#000000" transform="translate(381.9375,7.625)"/>
</svg>
