


<svg version="1.1" xmlns="http://www.w3.org/2000/svg" width="32" height="32">
<path d="M0 0 C8.36729005 6.38111514 16.12101599 13.56234013 23.90234375 20.6328125 C26.44444894 22.87922856 29.05410645 25.01574178 31.6953125 27.14453125 C36.24891962 30.82589814 40.55613766 34.69727598 44.83935547 38.68310547 C48.07207454 41.67365766 51.38718916 44.5072481 54.8203125 47.26953125 C59.33889426 50.90517175 63.60014579 54.73789527 67.84204102 58.68579102 C71.053303 61.65668753 74.34659065 64.46914202 77.7578125 67.20703125 C82.53572588 71.04998604 87.01026234 75.13784454 91.48193359 79.32568359 C95.69460355 83.24859979 100.08444805 86.88864149 104.57421875 90.4921875 C107.58350302 92.98779594 110.45969904 95.60718268 113.3203125 98.26953125 C117.05358505 101.74372368 120.84402361 105.07021835 124.8203125 108.26953125 C129.33809063 111.90452514 133.59849766 115.73663415 137.83984375 119.68359375 C141.07242997 122.67394483 144.38737116 125.50739454 147.8203125 128.26953125 C152.33809063 131.90452514 156.59849766 135.73663415 160.83984375 139.68359375 C164.07242997 142.67394483 167.38737116 145.50739454 170.8203125 148.26953125 C175.39455706 151.95268921 179.7408627 155.81685019 184.03540039 159.81762695 C186.87334869 162.46001523 189.76760402 164.98954719 192.7578125 167.45703125 C200.09936109 173.88469412 203.73863938 182.29144571 204.60546875 191.9453125 C204.9372314 204.22053072 201.80984582 213.55409935 193.57421875 222.7109375 C184.94364939 231.01853337 174.90111241 233.42253955 163.24609375 233.20898438 C161.85414948 233.16723587 160.46222237 233.12491152 159.0703125 233.08203125 C157.63154985 233.05687806 156.19274407 233.03407745 154.75390625 233.01367188 C151.27512536 232.95932072 147.79800797 232.87345282 144.3203125 232.76953125 C144.32399967 233.468763 144.32768684 234.16799475 144.33148575 234.88841534 C144.42005947 251.95052667 144.48612996 269.01257914 144.52756119 286.07487011 C144.54813273 294.32628353 144.57614903 302.57754291 144.62207031 310.82885742 C144.66210465 318.02585041 144.68778456 325.22273175 144.69666648 332.419833 C144.70185335 336.22603044 144.71392942 340.03190866 144.74323273 343.83800316 C144.77066529 347.43069672 144.77870233 351.02294384 144.77274323 354.61573219 C144.77434447 356.54201624 144.79572006 358.46825324 144.81799316 360.39440918 C144.75667019 373.54330156 141.68548567 384.20193261 132.47265625 393.66796875 C124.73121855 400.96308102 116.43113963 403.85426121 105.88452148 403.9465332 C104.60226181 403.95936844 103.32000214 403.97220367 101.99888611 403.98542786 C100.60473014 403.99359973 99.21056973 404.0010426 97.81640625 404.0078125 C96.75352733 404.01392579 96.75352733 404.01392579 95.6691761 404.02016258 C91.91413801 404.04098053 88.15913593 404.05529728 84.40405273 404.06469727 C80.55671228 404.07571711 76.70995728 404.11007709 72.86282253 404.14986897 C69.87792509 404.17622529 66.89316277 404.18440604 63.90815926 404.18797874 C62.49179215 404.1928005 61.07542923 404.20428583 59.65917778 404.22301674 C46.88705914 404.38135908 36.33620029 402.50012161 26.51171875 393.96875 C17.49455186 384.91943634 15.00135281 374.89786541 14.93055725 362.3646698 C14.93671555 361.07901627 14.94287384 359.79336273 14.94921875 358.46875 C14.94250502 357.10169975 14.93391721 355.73465757 14.92356873 354.36763 C14.88390315 348.61757479 14.8822533 342.86760121 14.88452148 337.11743164 C14.88457315 333.57841986 14.86513355 330.03989436 14.83518791 326.50101662 C14.82455535 324.53111181 14.83641742 322.56112552 14.84901428 320.5912323 C14.75725944 309.36321056 13.01646037 298.95542495 5.4921875 290.2578125 C4.3203125 288.76953125 4.3203125 288.76953125 4.3203125 286.76953125 C3.73636719 286.48980469 3.15242187 286.21007812 2.55078125 285.921875 C0.46153242 284.84249075 -1.41841884 283.64346676 -3.3671875 282.33203125 C-11.0535832 277.5386701 -18.62111686 275.63565239 -27.6796875 276.76953125 C-38.39795678 279.55257054 -46.15057444 284.81810332 -52.6796875 293.76953125 C-56.06662996 300.39784558 -57.79416869 306.60607346 -57.83740234 314.03173828 C-57.84766449 315.30050812 -57.85792664 316.56927795 -57.86849976 317.87649536 C-57.87193768 318.55234806 -57.8753756 319.22820076 -57.87891769 319.92453384 C-57.89076899 322.05320568 -57.91024038 324.18168025 -57.93203735 326.31027222 C-57.99342223 332.36140246 -58.04751257 338.41251339 -58.08105469 344.46386719 C-58.10215079 348.17099449 -58.13757516 351.87776233 -58.18181229 355.58468246 C-58.19585942 356.98866381 -58.20466887 358.39270877 -58.20786667 359.79675674 C-58.24509335 374.58502058 -60.89389967 384.94721208 -71.55859375 395.65625 C-81.18162748 403.63191679 -92.95042336 404.37279298 -104.9375 404.265625 C-106.37612989 404.26578049 -107.81476019 404.26727767 -109.25338745 404.27003479 C-112.24707897 404.27140836 -115.24028531 404.25903525 -118.23388672 404.23608398 C-122.04421335 404.20765023 -125.85373904 404.21046454 -129.66412544 404.2231741 C-132.62753988 404.23017302 -135.59077356 404.22229519 -138.55416489 404.20991707 C-139.95818257 404.20544699 -141.36221995 404.20502622 -142.76623917 404.20898247 C-156.37993076 404.22940366 -166.72394968 402.14589917 -176.87890625 392.73046875 C-184.43794628 384.82212004 -187.8098535 375.82196325 -187.79994202 364.929245 C-187.80131668 363.76121841 -187.80269135 362.59319183 -187.80410767 361.38977051 C-187.79871475 359.4811322 -187.79871475 359.4811322 -187.79321289 357.53393555 C-187.79293066 356.17360944 -187.79308945 354.81328317 -187.7936554 353.45295715 C-187.79394198 349.76740697 -187.78806766 346.08188942 -187.78108144 342.39634681 C-187.77482482 338.54196829 -187.77424227 334.68758899 -187.77305603 330.83320618 C-187.76994952 323.53767622 -187.7617453 316.24216128 -187.75170654 308.94663793 C-187.74052428 300.63954788 -187.73502963 292.33245712 -187.73001111 284.02536142 C-187.71956213 266.94007602 -187.70197585 249.85480522 -187.6796875 232.76953125 C-188.55592773 232.79571533 -189.43216797 232.82189941 -190.33496094 232.84887695 C-193.64519282 232.93505818 -196.95420127 232.99723382 -200.26513672 233.04418945 C-201.68687979 233.0690451 -203.10849911 233.10294326 -204.52978516 233.14672852 C-216.26499577 233.49870202 -226.99545845 231.9556977 -236.0546875 223.70703125 C-243.04542067 216.98647134 -247.22371946 208.45998538 -247.8828125 198.7890625 C-248.06021756 186.65159951 -245.64905886 178.09136891 -237.6796875 168.76953125 C-231.69634277 162.73973198 -225.10013547 157.44363367 -218.49609375 152.1171875 C-214.93417251 149.14809642 -211.55164644 146.01172667 -208.15820312 142.85351562 C-204.94687522 139.88251935 -201.65349961 137.06999293 -198.2421875 134.33203125 C-194.05731443 130.9660686 -190.09654352 127.43777108 -186.1796875 123.76953125 C-181.41877416 119.3108093 -176.51501187 115.13155501 -171.42578125 111.046875 C-168.41649698 108.55126656 -165.54030096 105.93187982 -162.6796875 103.26953125 C-158.09211311 99.00032346 -153.34525746 95.01194386 -148.4609375 91.08203125 C-145.43949562 88.56982115 -142.55526977 85.94552298 -139.6796875 83.26953125 C-135.09208637 79.00034973 -130.34526022 75.01194608 -125.4609375 71.08203125 C-122.43949562 68.56982115 -119.55526977 65.94552298 -116.6796875 63.26953125 C-112.09208637 59.00034973 -107.34526022 55.01194608 -102.4609375 51.08203125 C-98.90783664 48.12776761 -95.5394507 45.00039701 -92.15795898 41.85327148 C-88.946697 38.88237497 -85.65340935 36.06992048 -82.2421875 33.33203125 C-78.05730704 29.96606265 -74.09660254 26.43771672 -70.1796875 22.76953125 C-65.35417755 18.25153278 -60.39728963 13.98790751 -55.2265625 9.86328125 C-52.76881742 7.8428037 -50.48503859 5.71043229 -48.1796875 3.51953125 C-34.91418962 -8.45526954 -14.88091135 -9.97081307 0 0 Z " fill="#000000" transform="translate(277.6796875,57.23046875)"/>
</svg>
