<?xml version="1.0" encoding="UTF-8"?>
<svg version="1.1" xmlns="http://www.w3.org/2000/svg" width="512" height="512">
<path d="M0 0 C6.82312548 5.67502192 13.42380471 11.59212289 19.99121094 17.55957031 C22.53331613 19.80598637 25.14297364 21.94249959 27.78417969 24.07128906 C32.33858892 27.75330441 36.64665533 31.62529264 40.93041992 35.61206055 C44.14181376 38.58315657 47.43527732 41.39575494 50.84667969 44.13378906 C55.62459307 47.97674385 60.09912953 52.06460236 64.57080078 56.25244141 C68.78347074 60.17535761 73.17331523 63.8153993 77.66308594 67.41894531 C80.67237021 69.91455375 83.54856623 72.53394049 86.40917969 75.19628906 C90.14245224 78.6704815 93.9328908 81.99697616 97.90917969 85.19628906 C102.42695781 88.83128296 106.68736485 92.66339196 110.92871094 96.61035156 C114.16129716 99.60070264 117.47623835 102.43415236 120.90917969 105.19628906 C125.42695781 108.83128296 129.68736485 112.66339196 133.92871094 116.61035156 C137.16129716 119.60070264 140.47623835 122.43415236 143.90917969 125.19628906 C148.42776145 128.83192956 152.68901298 132.66465308 156.9309082 136.61254883 C160.14217019 139.58344534 163.43545784 142.39589983 166.84667969 145.13378906 C171.73595995 149.06508262 176.34078968 153.23898246 180.90698242 157.53588867 C183.2401632 159.7256467 185.57301652 161.82416752 188.09667969 163.79394531 C194.45934396 169.0280965 198.0540742 176.67764833 199.40917969 184.69628906 C200.52404578 196.53313891 198.6538269 206.58536805 191.03808594 215.91894531 C185.390394 222.08129503 178.76180585 227.05254685 170.40917969 228.69628906 C168.01974674 228.77849432 165.62813122 228.80374378 163.23730469 228.79394531 C162.21367828 228.79182289 162.21367828 228.79182289 161.16937256 228.78965759 C158.99926285 228.7840799 156.82925798 228.7715316 154.65917969 228.75878906 C153.18392077 228.75377118 151.70866022 228.74920877 150.23339844 228.74511719 C146.62529171 228.73411781 143.01724594 228.71686859 139.40917969 228.69628906 C139.41194507 229.5116683 139.41471045 230.32704754 139.41755962 231.16713524 C139.48389169 251.03219932 139.5334954 270.89724423 139.5646162 290.76239586 C139.58006706 300.36914428 139.60112247 309.97581865 139.63549805 319.58251953 C139.665455 327.95839064 139.68476763 336.33420809 139.69144517 344.71013129 C139.69534678 349.14270206 139.70447882 353.57511938 139.72636986 358.00764084 C139.74683459 362.18547776 139.75299344 366.363099 139.74850273 370.54098129 C139.74932349 372.06872228 139.75522943 373.59647098 139.76679611 375.1241684 C139.86500605 388.77274002 137.86720226 400.12039733 128.66308594 410.70410156 C118.80248246 420.17520096 107.11611008 421.45350411 94.05761719 421.32519531 C92.50688511 421.32602645 90.95615314 421.32849501 89.40542603 421.33250427 C86.17626004 421.33534264 82.94779522 421.32085262 79.71875 421.29321289 C75.60560414 421.25907509 71.49370513 421.26518579 67.38049889 421.28387547 C64.1854332 421.29450363 60.99065168 421.28545628 57.79561234 421.27049065 C56.27995272 421.26535476 54.76426286 421.26573398 53.24860764 421.2720356 C39.59065727 421.30753209 29.69496969 418.67519796 19.72167969 409.07128906 C12.59668749 401.37629749 10.26529978 392.77570788 10.25146484 382.5222168 C10.24638412 381.70049484 10.24130341 380.87877289 10.23606873 380.03215027 C10.22537844 378.24902342 10.21675301 376.46588327 10.20994949 374.68273735 C10.19812702 371.85230985 10.17866279 369.02203264 10.15682983 366.19166565 C10.09534613 358.14434888 10.04131065 350.09704633 10.0078125 342.04956055 C9.98675816 337.12350965 9.95136479 332.19773139 9.9070549 327.27183723 C9.89297467 325.40256035 9.88419066 323.5332352 9.88100052 321.663908 C9.85284887 306.73980603 9.18935865 294.23175223 -1.40722656 282.72363281 C-8.98400063 275.51421748 -18.53764489 272.33354052 -28.87597656 272.48535156 C-39.10138387 273.27984364 -47.41984552 278.09135285 -54.40332031 285.44628906 C-61.06966567 293.5046787 -62.7396681 302.80085764 -62.73266602 312.98388672 C-62.73614044 313.8057547 -62.73961487 314.62762268 -62.74319458 315.47439575 C-62.75053019 317.25478061 -62.75588723 319.03517449 -62.75948524 320.81557083 C-62.76668185 323.64188181 -62.7823737 326.46802228 -62.80082703 329.29428101 C-62.85313573 337.32881282 -62.90122018 345.36325089 -62.91674805 353.39794922 C-62.92687947 358.31872645 -62.95633472 363.23907301 -62.99806786 368.15967941 C-63.01031021 370.0261648 -63.01551159 371.89271119 -63.01326942 373.75923538 C-62.99983942 388.59221535 -64.37650744 400.35189178 -75.25097656 411.37988281 C-82.43334099 417.94053915 -89.71175103 420.78701201 -99.37207031 420.88916016 C-100.04588242 420.89733765 -100.71969452 420.90551514 -101.41392517 420.91394043 C-103.63954813 420.93870665 -105.86510733 420.9552944 -108.09082031 420.96972656 C-108.85548615 420.97505024 -109.62015198 420.98037392 -110.4079895 420.98585892 C-114.46127314 421.01256189 -118.5145264 421.03193949 -122.56787109 421.04638672 C-125.90246292 421.05967937 -129.23643604 421.08744821 -132.57080078 421.12841797 C-136.61499727 421.17809598 -140.65863652 421.20255089 -144.703125 421.2096138 C-146.23394867 421.21627167 -147.7647626 421.23134872 -149.29541016 421.25550461 C-162.02384446 421.44479988 -172.99531613 419.32945244 -182.54785156 410.21191406 C-189.23253062 401.98068402 -192.71936712 392.59347405 -192.71107483 382.02079773 C-192.71192925 381.36315723 -192.71278368 380.70551673 -192.713664 380.02794772 C-192.71530634 377.83232449 -192.70981788 375.63677827 -192.7043457 373.44116211 C-192.70406354 371.86408998 -192.70422214 370.28701773 -192.70478821 368.70994568 C-192.70507503 364.43350712 -192.69919683 360.15709663 -192.69221425 355.88066459 C-192.68596163 351.40968706 -192.6853754 346.93870889 -192.68418884 342.46772766 C-192.68108116 334.00347179 -192.67287535 325.53922883 -192.66283935 317.07497865 C-192.65166074 307.43780478 -192.64616336 297.80063029 -192.64114392 288.16345155 C-192.63069228 268.34105685 -192.61310372 248.51867377 -192.59082031 228.69628906 C-193.47753418 228.71723633 -194.36424805 228.73818359 -195.27783203 228.75976562 C-198.6140411 228.82853549 -201.94948126 228.8783729 -205.28613281 228.91601562 C-206.72147619 228.93595095 -208.15674028 228.96310981 -209.59179688 228.99804688 C-222.24789151 229.29812164 -231.91160681 227.37420461 -241.59082031 218.69628906 C-249.14737553 211.41960626 -252.68077116 202.59753371 -252.90332031 192.19628906 C-252.76589472 180.15280949 -249.03815394 171.27161259 -240.59082031 162.69628906 C-237.98304647 160.40940951 -235.31014016 158.24834305 -232.57910156 156.11035156 C-229.27363553 153.44005352 -226.18485656 150.60523156 -223.09082031 147.69628906 C-218.33089758 143.23657316 -213.4260473 139.05823467 -208.33691406 134.97363281 C-205.32762979 132.47802438 -202.45143377 129.85863764 -199.59082031 127.19628906 C-195.00324592 122.92708128 -190.25639027 118.93870167 -185.37207031 115.00878906 C-182.35062843 112.49657896 -179.46640259 109.87228079 -176.59082031 107.19628906 C-172.00321918 102.92710755 -167.25639303 98.93870389 -162.37207031 95.00878906 C-159.35062843 92.49657896 -156.46640259 89.87228079 -153.59082031 87.19628906 C-149.00321918 82.92710755 -144.25639303 78.93870389 -139.37207031 75.00878906 C-135.81896945 72.05452542 -132.45058351 68.92715483 -129.0690918 65.7800293 C-125.85782981 62.80913278 -122.56454216 59.9966783 -119.15332031 57.25878906 C-114.96844724 53.89282641 -111.00767633 50.36452889 -107.09082031 46.69628906 C-102.32990698 42.23756711 -97.42614468 38.05831283 -92.33691406 33.97363281 C-89.32762979 31.47802438 -86.45143377 28.85863764 -83.59082031 26.19628906 C-79.00511436 21.92882005 -74.26254363 17.93991728 -69.37597656 14.01660156 C-66.32005696 11.47071623 -63.42768202 8.79160929 -60.52832031 6.07128906 C-42.24390766 -10.95608862 -20.73786346 -16.9951183 0 0 Z M-33.15332031 26.63378906 C-36.66221785 29.92691252 -40.20844821 33.06430386 -43.96582031 36.07128906 C-48.51942744 39.75265595 -52.82664548 43.62403379 -57.10986328 47.60986328 C-61.19724746 51.39105659 -65.47116204 54.89311574 -69.80957031 58.38378906 C-72.83101219 60.89599917 -75.71523804 63.52029733 -78.59082031 66.19628906 C-83.17842145 70.46547058 -87.9252476 74.45387423 -92.80957031 78.38378906 C-96.36267117 81.3380527 -99.73105711 84.4654233 -103.11254883 87.61254883 C-106.32381082 90.58344534 -109.61709846 93.39589983 -113.02832031 96.13378906 C-117.21319338 99.49975172 -121.17396429 103.02804923 -125.09082031 106.69628906 C-129.85173365 111.15501101 -134.75549595 115.3342653 -139.84472656 119.41894531 C-142.85401083 121.91455375 -145.73020686 124.53394049 -148.59082031 127.19628906 C-153.17839471 131.46549685 -157.92525035 135.45387645 -162.80957031 139.38378906 C-165.83101219 141.89599917 -168.71523804 144.52029733 -171.59082031 147.19628906 C-176.17842145 151.46547058 -180.9252476 155.45387423 -185.80957031 159.38378906 C-188.83101959 161.89600532 -191.71515325 164.52037891 -194.59082031 167.19628906 C-200.72964246 172.90592022 -207.12419783 178.29691266 -213.79785156 183.37597656 C-217.71427723 186.45391405 -217.71427723 186.45391405 -219.52832031 191.07128906 C-219.54894531 191.93753906 -219.56957031 192.80378906 -219.59082031 193.69628906 C-214.81610907 197.47223733 -210.27354037 197.10541828 -204.46972656 197.06738281 C-202.46256338 197.08476322 -200.45540196 197.10234762 -198.44824219 197.12011719 C-195.29708635 197.13019106 -192.14604433 197.13378513 -188.99487305 197.13208008 C-185.94448173 197.13565503 -182.89496239 197.16301362 -179.84472656 197.19238281 C-178.90705948 197.18420029 -177.9693924 197.17601776 -177.00331116 197.16758728 C-171.40739276 197.23109 -167.88614919 197.74356527 -163.59082031 201.69628906 C-160.78301399 206.30301562 -160.21386863 209.75855625 -160.20555115 215.11723328 C-160.1976976 216.20593121 -160.1976976 216.20593121 -160.1896854 217.31662303 C-160.17576867 219.73721376 -160.18301363 222.15726781 -160.19018555 224.57788086 C-160.18444089 226.3177233 -160.17735724 228.05756177 -160.16903687 229.7973938 C-160.15394091 233.53785076 -160.14814799 237.27816514 -160.14956474 241.01865196 C-160.15159903 246.93030606 -160.13202901 252.84176835 -160.10939026 258.75337219 C-160.06843308 270.22958518 -160.049809 281.70578299 -160.03321838 293.18205261 C-160.01085385 307.80114487 -159.97740267 322.42019293 -159.92601925 337.03921252 C-159.90606597 342.91918829 -159.89651558 348.79906347 -159.8950671 354.67907178 C-159.89232273 358.33063118 -159.8815063 361.98213472 -159.86855698 365.63367081 C-159.86426659 367.33043337 -159.86342447 369.02720857 -159.86623192 370.72397423 C-159.86961778 373.03487799 -159.86088485 375.345427 -159.84910583 377.65629578 C-159.84747153 378.95099635 -159.84583723 380.24569693 -159.8441534 381.57963085 C-159.83122098 384.86161073 -159.83122098 384.86161073 -157.59082031 387.69628906 C-154.60149399 388.69273117 -152.58775087 388.83423571 -149.46435547 388.85742188 C-147.89725327 388.87183319 -147.89725327 388.87183319 -146.29849243 388.88653564 C-145.17035126 388.89078552 -144.04221008 388.8950354 -142.87988281 388.89941406 C-141.71959564 388.90511414 -140.55930847 388.91081421 -139.36386108 388.91668701 C-136.9076224 388.92613829 -134.45137103 388.9326715 -131.99511719 388.93652344 C-128.23773091 388.94623245 -124.48089076 388.97725687 -120.72363281 389.00878906 C-118.3382194 389.01531879 -115.95280207 389.02056938 -113.56738281 389.02441406 C-112.4432901 389.03676086 -111.31919739 389.04910767 -110.16104126 389.06182861 C-109.11000214 389.05882751 -108.05896301 389.05582642 -106.97607422 389.05273438 C-106.05468658 389.05638 -105.13329895 389.06002563 -104.18399048 389.06378174 C-100.84411097 388.5904687 -99.1238495 387.95826334 -96.59082031 385.69628906 C-96.08792716 382.89461516 -95.92919373 380.68763895 -95.97900391 377.8828125 C-95.97333908 377.08716888 -95.96767426 376.29152527 -95.96183777 375.47177124 C-95.94830182 372.83259406 -95.96932208 370.19478225 -95.98925781 367.55566406 C-95.98375509 365.71257592 -95.97562818 363.86949391 -95.96499634 362.02642822 C-95.94205616 357.15928286 -95.94633975 352.29258528 -95.95880127 347.42541504 C-95.97705286 339.6788059 -95.96680816 331.93246786 -95.93294144 324.18592072 C-95.92691127 321.49903994 -95.94001523 318.8127499 -95.95492554 316.12591553 C-95.96357271 303.03320958 -95.22953643 289.98699704 -88.77832031 278.25878906 C-88.42503662 277.58904053 -88.07175293 276.91929199 -87.70776367 276.22924805 C-85.08428733 271.35724748 -82.29146505 266.8312393 -78.59082031 262.69628906 C-77.97078125 261.973125 -77.35074219 261.24996094 -76.71191406 260.50488281 C-64.88326581 247.63060819 -47.57088594 240.64606706 -30.31347656 239.47363281 C-12.04150958 239.00090476 5.63007443 244.36444212 19.40917969 256.69628906 C20.13234375 257.31632813 20.85550781 257.93636719 21.60058594 258.57519531 C33.89296776 269.8692111 41.61511869 287.06285163 42.51895523 303.71929932 C42.66888072 308.58683868 42.66582692 313.45464808 42.65300941 318.32408142 C42.64735899 321.08993998 42.65666348 323.85538818 42.67021179 326.62121582 C42.70713089 334.47601461 42.72581126 342.33066344 42.71459961 350.18554688 C42.70876087 355.00949914 42.72693107 359.83286076 42.76048851 364.6566925 C42.76844904 366.4907313 42.76715668 368.32483435 42.756464 370.15885925 C42.74219296 372.71301266 42.75834053 375.26528738 42.78149414 377.81933594 C42.76384254 378.95542801 42.76384254 378.95542801 42.74583435 380.11447144 C42.73169044 382.4635675 42.73169044 382.4635675 43.40917969 385.69628906 C46.67852306 388.61757226 49.48486833 389.07154629 53.77856445 389.06860352 C54.82637589 389.07483231 55.87418732 389.0810611 56.95375061 389.08747864 C58.07470627 389.07826889 59.19566193 389.06905914 60.35058594 389.05957031 C62.09032936 389.06031807 62.09032936 389.06031807 63.86521912 389.06108093 C66.31372799 389.05874324 68.76223939 389.04903278 71.21069336 389.0324707 C74.96131837 389.0088543 78.71123347 389.01191544 82.46191406 389.01855469 C84.8414756 389.01297857 87.22103414 389.00586911 89.60058594 388.99707031 C91.28505577 388.99843742 91.28505577 388.99843742 93.0035553 388.99983215 C94.04821457 388.99030014 95.09287384 388.98076813 96.16918945 388.97094727 C97.08676529 388.96633987 98.00434113 388.96173248 98.94972229 388.95698547 C101.57234003 388.67899447 103.19439851 388.11047276 105.40917969 386.69628906 C106.88915667 383.73633509 106.53727154 381.08789407 106.54048157 377.78327942 C106.54259728 377.06372076 106.544713 376.34416211 106.54689282 375.60279864 C106.55290876 373.17927581 106.55189153 370.75580481 106.55102539 368.33227539 C106.55405589 366.59951692 106.55757704 364.86675924 106.56155396 363.13400269 C106.5694527 359.39570336 106.57459158 355.65741363 106.57784462 351.91910744 C106.58374754 346.00672602 106.60028176 340.09440504 106.6191864 334.18205261 C106.62552414 332.15890602 106.63184976 330.13575939 106.63816357 328.11261272 C106.64132938 327.09926054 106.64449519 326.08590836 106.64775693 325.04184854 C106.68984885 311.27359667 106.72280274 297.50537245 106.73510742 283.73706055 C106.74348771 274.4554328 106.76597905 265.17395411 106.80446309 255.89240092 C106.82422827 250.9798562 106.83662687 246.06753431 106.8316288 241.15494728 C106.82698224 236.53129966 106.84078823 231.90807411 106.8686409 227.28451157 C106.87555308 225.5894414 106.87567893 223.89432761 106.86844063 222.1992588 C106.85954048 219.88041125 106.87526302 217.56295201 106.89692688 215.24421692 C106.90050941 213.2999039 106.90050941 213.2999039 106.90416431 211.31631184 C107.6259087 206.14274432 109.58448756 202.34575683 113.52441406 198.78417969 C117.85532835 197.15092359 121.97355842 197.27532467 126.56542969 197.29003906 C127.5453186 197.27920288 128.52520752 197.2683667 129.53479004 197.25720215 C133.71666758 197.21141213 137.89848312 197.19986813 142.08056641 197.18505859 C145.13824472 197.16935379 148.19540665 197.13635093 151.25292969 197.10253906 C152.66717224 197.10707092 152.66717224 197.10707092 154.10998535 197.11169434 C159.04039295 197.05532757 162.3791584 196.88232683 166.40917969 193.69628906 C166.14458726 190.05944023 165.89418988 188.20131844 163.32714844 185.52832031 C161.97556641 184.52865234 161.97556641 184.52865234 160.59667969 183.50878906 C156.33967883 180.2320549 152.32599846 176.87142362 148.40917969 173.19628906 C144.70213883 169.74305717 140.92399761 166.43096876 136.97167969 163.25878906 C132.19376631 159.41583427 127.71922985 155.32797577 123.24755859 151.14013672 C119.03488863 147.21722052 114.64504414 143.57717882 110.15527344 139.97363281 C107.14598917 137.47802438 104.26979314 134.85863764 101.40917969 132.19628906 C97.67590714 128.72209663 93.88546858 125.39560196 89.90917969 122.19628906 C85.39140156 118.56129517 81.13099453 114.72918616 76.88964844 110.78222656 C73.65706222 107.79187549 70.34212102 104.95842577 66.90917969 102.19628906 C62.39059793 98.56064856 58.12934639 94.72792504 53.88745117 90.7800293 C50.67618918 87.80913278 47.38290154 84.9966783 43.97167969 82.25878906 C39.19376631 78.41583427 34.71922985 74.32797577 30.24755859 70.14013672 C26.03488863 66.21722052 21.64504414 62.57717882 17.15527344 58.97363281 C14.14598917 56.47802438 11.26979314 53.85863764 8.40917969 51.19628906 C3.83040155 46.93526709 -0.90595384 42.95306124 -5.78222656 39.03222656 C-9.48555727 35.95212675 -13.01687954 32.70472906 -16.53222656 29.41308594 C-24.39829139 21.84675465 -24.39829139 21.84675465 -33.15332031 26.63378906 Z " fill="#000000" transform="translate(282.5908203125,43.3037109375)"/>
</svg>
