<?xml version="1.0" encoding="UTF-8"?>
<svg version="1.1" xmlns="http://www.w3.org/2000/svg" width="512" height="512">
<path d="M0 0 C5.94751363 3.97875262 10.94857719 9.49592924 14 16 C14.36398382 18.32874888 14.70026653 20.66211305 15 23 C16.748573 22.97643433 16.748573 22.97643433 18.5324707 22.95239258 C22.85417786 22.89812466 27.17585485 22.86366141 31.49780273 22.83520508 C33.36894799 22.82011127 35.24005783 22.79963411 37.11108398 22.77368164 C39.79940526 22.73732407 42.48725913 22.72027985 45.17578125 22.70703125 C46.43217155 22.68380547 46.43217155 22.68380547 47.71394348 22.66011047 C53.52030112 22.65842496 53.52030112 22.65842496 55.72673035 24.22953796 C57.37434851 26.52052589 57.34654649 27.86406697 57.29296875 30.66796875 C57.28330078 31.56064453 57.27363281 32.45332031 57.26367188 33.37304688 C57.23853516 34.30181641 57.21339844 35.23058594 57.1875 36.1875 C57.17396484 37.12787109 57.16042969 38.06824219 57.14648438 39.03710938 C57.11113096 41.35865038 57.06178674 43.67903653 57 46 C57.752314 45.99111755 58.50462799 45.98223511 59.27973938 45.9730835 C66.41360655 45.8925132 73.54724918 45.83182227 80.68145466 45.79275131 C84.34813866 45.77198831 88.01444276 45.74388156 91.6809082 45.69824219 C95.22766472 45.6543756 98.77405877 45.63077832 102.3210659 45.62049103 C104.31445154 45.60964079 106.30769393 45.57848176 108.30085754 45.54681396 C119.45789341 45.54409657 128.16098988 47.41627077 136.24609375 55.4140625 C142.20295698 64.19678736 142.57455384 72.84183277 142.50120544 83.19534302 C142.50510337 84.72445341 142.51074774 86.25356018 142.51797634 87.78265846 C142.53267817 91.96333269 142.52258138 96.14362823 142.50823963 100.32429004 C142.49710379 104.84102873 142.50908098 109.35771543 142.51808167 113.87445068 C142.53199769 122.71379156 142.52447036 131.55298936 142.50940608 140.39232339 C142.49252779 150.68872982 142.49575848 160.98510079 142.49950016 171.28151678 C142.50537559 189.65303877 142.49121881 208.02449217 142.46655273 226.39599609 C142.44262591 244.2189389 142.43555161 262.0417901 142.44604492 279.86474609 C142.45745551 299.28044568 142.45938299 318.69610291 142.44494683 338.11180198 C142.44342101 340.18220957 142.44190065 342.25261716 142.44038582 344.32302475 C142.439628 345.34166997 142.43887019 346.3603152 142.43808941 347.40982846 C142.43334823 354.58566561 142.4351968 361.76148385 142.43945122 368.93732071 C142.44437897 377.68156385 142.43838843 386.42572039 142.41855692 395.16994371 C142.40868916 399.63068283 142.4035743 404.09129014 142.41144943 408.55203629 C142.41851301 412.63665635 142.41168585 416.72101057 142.3938458 420.80559562 C142.38980576 422.28187106 142.39079376 423.75817078 142.39736467 425.23443712 C142.44054276 435.8445035 141.51202176 443.64713144 134.81640625 452.171875 C130.78067594 456.23364228 124.67273811 459.77811354 118.86804044 460.12880117 C118.03563577 460.13058974 117.20323109 460.13237831 116.34560204 460.13422108 C114.90284198 460.14090784 114.90284198 460.14090784 113.43093526 460.14772969 C112.37191114 460.14754533 111.31288701 460.14736097 110.22177124 460.14717102 C109.09849761 460.15084771 107.97522397 460.1545244 106.81791174 460.1583125 C103.03403947 460.16937214 99.25019463 460.17319706 95.46630859 460.17700195 C92.7612891 460.18273177 90.05627374 460.1898986 87.35125732 460.19691467 C79.21891598 460.21667898 71.08657339 460.22674574 62.95421404 460.23564246 C59.12400223 460.24002585 55.2937918 460.24539257 51.46358109 460.25063133 C38.72976404 460.26764439 25.99594786 460.28213801 13.2621212 460.28938007 C9.9574623 460.29128995 6.65280341 460.29321029 3.34814453 460.29516602 C2.52679215 460.29564976 1.70543977 460.2961335 0.85919793 460.2966319 C-12.4426858 460.3049301 -25.74447953 460.33026311 -39.04632397 460.36274669 C-52.7049241 460.39582933 -66.36347852 460.41382996 -80.02211893 460.41702431 C-87.69015289 460.41918841 -95.35805567 460.42792224 -103.02605057 460.45348549 C-109.55737391 460.47520906 -116.0885342 460.48323485 -122.61988957 460.47351871 C-125.95076679 460.46897848 -129.2810354 460.47303161 -132.61191177 460.49028015 C-136.22818117 460.50795783 -139.84359952 460.50091194 -143.45986938 460.48774719 C-145.02832908 460.50420106 -145.02832908 460.50420106 -146.62847483 460.52098733 C-154.80630787 460.449198 -162.41428523 458.39663801 -168.59740603 452.70132673 C-175.88946811 443.85615815 -176.86888092 434.59336076 -176.7484436 423.53964233 C-176.75393501 422.00610047 -176.76204791 420.47256618 -176.77253091 418.93905032 C-176.79357395 414.75518445 -176.77753395 410.57218132 -176.75502992 406.38835382 C-176.73726596 401.8647775 -176.75425572 397.34130924 -176.76675415 392.81773376 C-176.78568711 383.96857065 -176.77256903 375.11973475 -176.74822827 366.27059601 C-176.72092638 355.95921969 -176.72426936 345.64792046 -176.72849493 335.33651717 C-176.73486825 316.93619182 -176.71157529 298.53602155 -176.67236328 280.13574219 C-176.63434661 262.29161864 -176.62019187 244.44767677 -176.63134766 226.60351562 C-176.64346929 207.15700405 -176.64309888 187.71057226 -176.62037599 168.26406729 C-176.61796148 166.1897231 -176.61554951 164.1153789 -176.61314011 162.0410347 C-176.61193303 161.02049676 -176.61072595 159.99995883 -176.6094823 158.9484955 C-176.60173164 151.76505607 -176.60250821 144.58164639 -176.6063118 137.3982048 C-176.61056044 128.64268962 -176.60007148 119.88733333 -176.57108469 111.13186286 C-176.55661998 106.66678254 -176.54842266 102.20193338 -176.55757141 97.73683357 C-176.56574946 93.64593802 -176.55532312 89.55551886 -176.53031926 85.46469541 C-176.52448408 83.98845023 -176.52529906 82.51215984 -176.53360541 81.03592651 C-176.58297339 71.38232535 -175.75106774 63.53052749 -170.24609375 55.4140625 C-162.16098988 47.41627077 -153.45789341 45.54409657 -142.30085754 45.54681396 C-141.00145737 45.56745911 -139.70205719 45.58810425 -138.36328125 45.609375 C-136.98895602 45.61685562 -135.61461996 45.62253992 -134.24028015 45.62652588 C-130.66115732 45.64163955 -127.08270649 45.68079291 -123.50384521 45.7253418 C-119.83664027 45.76660717 -116.16932441 45.78460289 -112.50195312 45.8046875 C-105.33433241 45.84730548 -98.16726114 45.91537734 -91 46 C-91.01571045 45.40985107 -91.0314209 44.81970215 -91.04760742 44.21166992 C-91.10997939 41.53704414 -91.14899657 38.86257136 -91.1875 36.1875 C-91.21263672 35.25873047 -91.23777344 34.32996094 -91.26367188 33.37304688 C-91.27333984 32.48037109 -91.28300781 31.58769531 -91.29296875 30.66796875 C-91.3086792 29.84578857 -91.32438965 29.0236084 -91.34057617 28.17651367 C-91 26 -91 26 -89.72673035 24.22953796 C-86.63982317 22.03147063 -82.82707056 22.63953307 -79.17578125 22.70703125 C-78.31438034 22.71127609 -77.45297943 22.71552094 -76.56547546 22.71989441 C-73.81416569 22.73668752 -71.06358838 22.77434044 -68.3125 22.8125 C-66.4472762 22.82754604 -64.58204093 22.84123459 -62.71679688 22.85351562 C-58.14424902 22.88659307 -53.5722487 22.9383794 -49 23 C-48.85828369 21.89462891 -48.71656738 20.78925781 -48.57055664 19.65039062 C-47.3934283 12.11918699 -42.04174705 6.23033915 -36.25390625 1.5078125 C-25.10123157 -5.95307559 -11.77405628 -6.13194302 0 0 Z M-160 63 C-164.78672296 70.31902408 -164.56496164 77.19343991 -164.50793457 85.72705078 C-164.51254717 87.22968715 -164.5189025 88.73231901 -164.52684355 90.23494148 C-164.54351088 94.35171817 -164.53530244 98.468123 -164.52289867 102.58490086 C-164.51383983 107.02942461 -164.52782205 111.4738849 -164.53881836 115.918396 C-164.55659926 124.62030875 -164.55276551 133.32208345 -164.5411678 142.0240016 C-164.53213207 149.09659934 -164.53091008 156.1691584 -164.53526306 163.24176025 C-164.53587599 164.24859804 -164.53648893 165.25543583 -164.53712043 166.29278386 C-164.53839934 168.33819375 -164.53969619 170.38360362 -164.5410108 172.42901349 C-164.55241534 191.6061424 -164.53930485 210.78319481 -164.51780933 229.96031117 C-164.49993847 246.41303222 -164.50304261 262.86564037 -164.52148438 279.31835938 C-164.5428933 298.42714484 -164.55131671 317.53586326 -164.53903532 336.64465904 C-164.53776113 338.68251927 -164.53650365 340.7203795 -164.53526306 342.75823975 C-164.53464596 343.76089028 -164.53402886 344.76354082 -164.53339306 345.79657471 C-164.52994022 352.86018809 -164.53576707 359.92375893 -164.54518127 366.98736572 C-164.55640286 375.5962642 -164.55335782 384.20501679 -164.5320583 392.81389856 C-164.52155005 397.20580479 -164.51742219 401.59746785 -164.53065491 405.98937225 C-164.54258936 410.01122764 -164.53599916 414.03261485 -164.5147447 418.05442786 C-164.51028307 419.50788338 -164.5125351 420.9613786 -164.52224785 422.41480851 C-164.5710757 430.32971256 -164.4689127 436.31233137 -160 443 C-155.58881526 446.51094296 -152.06955557 448.12183093 -146.46774769 448.13422108 C-145.53315812 448.13867892 -144.59856855 448.14313676 -143.63565809 448.14772969 C-142.09279009 448.14745315 -142.09279009 448.14745315 -140.51875305 448.14717102 C-138.88178688 448.15268605 -138.88178688 448.15268605 -137.21175069 448.1583125 C-133.53610058 448.16937086 -129.86047872 448.17319683 -126.18481445 448.17700195 C-123.55699066 448.18326496 -120.92916775 448.18991161 -118.30134583 448.19691467 C-110.40186336 448.21667719 -102.50237961 448.22674515 -94.6028786 448.23564246 C-90.88261776 448.24002583 -87.16235834 448.24539253 -83.44209862 448.25063133 C-71.07457557 448.26764362 -58.70705341 448.28213762 -46.33952045 448.28938007 C-43.13007417 448.29128996 -39.9206279 448.29321029 -36.71118164 448.29516602 C-35.91349187 448.29564976 -35.1158021 448.2961335 -34.29393991 448.2966319 C-21.37290443 448.30493157 -8.45196155 448.33026741 4.4690335 448.36274669 C17.73551456 448.39582246 31.00194856 448.41382931 44.26847106 448.41702431 C51.71682178 448.41918897 59.16503748 448.42793095 66.61334801 448.45348549 C72.9569545 448.47519962 79.30039318 448.48323948 85.64403262 448.47351871 C88.87954555 448.46897592 92.11464024 448.47304353 95.35012054 448.49028015 C98.8616512 448.5079407 102.37230393 448.50092054 105.88383484 448.48774719 C106.90125989 448.49871644 107.91868494 448.50968568 108.96694106 448.52098733 C115.07987014 448.465634 119.95981604 447.65075673 125 444 C128.99340724 438.98264219 130.12395978 435.28089564 130.13422108 428.96848011 C130.14090784 427.06498679 130.14090784 427.06498679 130.14772969 425.12303907 C130.14764039 423.70676664 130.14745054 422.29049421 130.14717102 420.8742218 C130.15046957 419.37590587 130.15419512 417.87759083 130.1583125 416.37927693 C130.16834162 412.25132568 130.17205076 408.12338896 130.17470181 403.99542725 C130.17860215 399.54742636 130.18818067 395.09943701 130.19691467 390.65144348 C130.21668661 379.90432591 130.22674617 369.15720739 130.23564246 358.41007617 C130.24002412 353.35092547 130.24539124 348.29177583 130.25063133 343.23262596 C130.26764425 326.41808063 130.28213892 309.60353596 130.28938007 292.78898335 C130.29129001 288.42450777 130.29321034 284.0600322 130.29516602 279.69555664 C130.29564976 278.61076785 130.2961335 277.52597906 130.2966319 276.40831789 C130.30493402 258.83139513 130.33027375 241.25454038 130.36274669 223.67764733 C130.39580328 205.63799439 130.41382756 187.59837603 130.41702431 169.55869263 C130.4191907 159.42757239 130.42795812 149.29655134 130.45348549 139.16546059 C130.47517333 130.53816316 130.48325234 121.91098901 130.47351871 113.28366742 C130.46896846 108.88165488 130.47090224 104.47989679 130.49028015 100.07791901 C130.507873 96.04663672 130.50694585 92.01579525 130.49138286 87.98450854 C130.48900087 86.52752881 130.49336101 85.07051887 130.50521151 83.61358539 C130.5762049 74.30771499 130.31355961 67.54011775 123.64794922 60.52441406 C117.79254744 58.07754425 111.89279297 58.51149506 105.6328125 58.609375 C104.22892058 58.61684348 102.82501817 58.62253354 101.42111206 58.62652588 C97.74164608 58.64173484 94.06282045 58.68097418 90.38360596 58.7253418 C86.6230129 58.76639786 82.86231549 58.78455882 79.1015625 58.8046875 C71.73408435 58.84747441 64.3671322 58.91566652 57 59 C56.98018066 59.59538574 56.96036133 60.19077148 56.93994141 60.80419922 C56.84483874 63.49492153 56.73510158 66.18485148 56.625 68.875 C56.5940625 69.81214844 56.563125 70.74929687 56.53125 71.71484375 C56.47324219 73.05869141 56.47324219 73.05869141 56.4140625 74.4296875 C56.3826416 75.25710449 56.3512207 76.08452148 56.31884766 76.93701172 C56 79 56 79 54 81 C51.54182434 81.25168228 51.54182434 81.25168228 48.38208008 81.25396729 C46.59007675 81.26242676 46.59007675 81.26242676 44.76187134 81.27105713 C43.44439911 81.26700867 42.12692688 81.26296021 40.76953125 81.25878906 C39.37348243 81.26149795 37.97743505 81.26505831 36.58139038 81.26940918 C32.7839395 81.27854765 28.98659697 81.27498297 25.18914413 81.26865101 C21.22090099 81.26359853 17.25266732 81.26828036 13.28442383 81.27142334 C6.61961191 81.27506519 -0.04515573 81.27025817 -6.70996094 81.26074219 C-14.4228085 81.2498572 -22.13555034 81.25338263 -29.84839535 81.264395 C-36.46243414 81.27346166 -43.07644105 81.2747562 -49.69048405 81.26951766 C-53.64429012 81.26639453 -57.59804646 81.26599798 -61.55184937 81.27259064 C-65.26840557 81.27835448 -68.98482504 81.27438499 -72.70136642 81.26280212 C-74.7215328 81.2588822 -76.7417107 81.26484937 -78.76187134 81.27105713 C-79.95654022 81.26541748 -81.15120911 81.25977783 -82.38208008 81.25396729 C-83.42479568 81.25321323 -84.46751129 81.25245918 -85.54182434 81.25168228 C-88 81 -88 81 -90 79 C-90.31884766 76.93701172 -90.31884766 76.93701172 -90.4140625 74.4296875 C-90.45273438 73.53378906 -90.49140625 72.63789062 -90.53125 71.71484375 C-90.5621875 70.77769531 -90.593125 69.84054688 -90.625 68.875 C-90.66367188 67.93011719 -90.70234375 66.98523438 -90.7421875 66.01171875 C-90.83661346 63.67467625 -90.92218394 61.33764499 -91 59 C-99.11049658 58.90715703 -107.22076965 58.83616327 -115.33166695 58.79275131 C-119.09825591 58.77191146 -122.86448024 58.74366092 -126.63085938 58.69824219 C-130.26836587 58.65465402 -133.90552253 58.63083581 -137.54327011 58.62049103 C-138.92832824 58.61312274 -140.31336807 58.59873395 -141.69827652 58.57707977 C-151.75699165 58.07954098 -151.75699165 58.07954098 -160 63 Z " fill="#000000" transform="translate(273,28)"/>
<path d="M0 0 C0.76594482 -0.00318237 1.53188965 -0.00636475 2.32104492 -0.00964355 C3.19204834 -0.0222522 4.06305176 -0.03486084 4.96044922 -0.04785156 C5.89800049 -0.03975464 6.83555176 -0.03165771 7.80151367 -0.02331543 C8.76677979 -0.02714233 9.7320459 -0.03096924 10.7265625 -0.03491211 C12.76750735 -0.03763425 14.80848691 -0.03025199 16.84936523 -0.0135498 C19.97743339 0.00785533 23.10320465 -0.01334147 26.23120117 -0.03894043 C28.21297709 -0.03629721 30.19475157 -0.03117234 32.17651367 -0.02331543 C33.58284058 -0.03546082 33.58284058 -0.03546082 35.01757812 -0.04785156 C36.32408325 -0.0289386 36.32408325 -0.0289386 37.65698242 -0.00964355 C38.42292725 -0.00646118 39.18887207 -0.00327881 39.97802734 0 C42.86009577 0.72795233 43.48142652 1.98219184 44.98901367 4.50793457 C45.36933041 7.26908875 45.36933041 7.26908875 45.37669373 10.50476074 C45.38659836 11.73294525 45.39650299 12.96112976 45.40670776 14.22653198 C45.4024698 15.58465676 45.39791194 16.94278057 45.39306641 18.30090332 C45.39876959 19.73341403 45.40573365 21.1659202 45.41386414 22.59841919 C45.43181528 26.48682211 45.43062371 30.37499962 45.42492175 34.26343155 C45.42183312 37.50911048 45.42791862 40.75474592 45.4339605 44.00041866 C45.44801015 51.65628104 45.44644043 59.31203183 45.43505859 66.96789551 C45.42357284 74.8682892 45.43765955 82.76834361 45.46445507 90.66869259 C45.48659785 97.45096956 45.4932528 104.23313992 45.48737866 111.01545048 C45.48400493 115.06660652 45.48645168 119.11754498 45.50362968 123.16867065 C45.51907461 126.97731052 45.51517116 130.78544683 45.49632454 134.59406662 C45.49263198 135.9920886 45.49576662 137.39014768 45.50621033 138.78813553 C45.51937377 140.69575518 45.5054934 142.60350448 45.49021912 144.5111084 C45.49000983 145.57888016 45.48980055 146.64665192 45.48958492 147.7467804 C44.86583196 151.18740567 43.69747968 152.36754569 40.98901367 154.50793457 C38.94042969 155.01586914 38.94042969 155.01586914 36.74291992 155.0255127 C35.91526123 155.03812134 35.08760254 155.05072998 34.23486328 155.0637207 C33.34935791 155.05562378 32.46385254 155.04752686 31.55151367 155.03918457 C30.63442627 155.04301147 29.71733887 155.04683838 28.77246094 155.05078125 C26.83584494 155.05350006 24.8991922 155.04614103 22.96264648 155.02941895 C19.99924814 155.00800851 17.03827416 155.02922126 14.07495117 155.05480957 C12.19213332 155.05216629 10.30931698 155.0470413 8.42651367 155.03918457 C7.5410083 155.04728149 6.65550293 155.05537842 5.74316406 155.0637207 C4.50167603 155.04480774 4.50167603 155.04480774 3.23510742 155.0255127 C2.5099292 155.02233032 1.78475098 155.01914795 1.03759766 155.01586914 C-1.94861824 154.27545415 -3.08537835 152.87846641 -5.01098633 150.50793457 C-5.51155758 147.7467804 -5.51155758 147.7467804 -5.51219177 144.5111084 C-5.52202591 143.28292389 -5.53186005 142.05473938 -5.54199219 140.78933716 C-5.53262049 139.4312106 -5.52284119 138.07308681 -5.51269531 136.71496582 C-5.51647897 135.28245513 -5.5219794 133.8499481 -5.52906799 132.41744995 C-5.54303406 128.52895702 -5.53184507 124.640906 -5.51535678 120.75243759 C-5.5015099 116.68370971 -5.50796594 112.61500758 -5.51148987 108.54626465 C-5.51419228 101.7134285 -5.50071377 94.88076799 -5.47753906 88.04797363 C-5.45092905 80.14761987 -5.44918207 72.24755977 -5.46092743 64.34717655 C-5.47170565 56.74816695 -5.46551782 49.14926361 -5.45137215 41.55026245 C-5.4456127 38.31588226 -5.44569468 35.08157983 -5.45043755 31.84719849 C-5.45520897 28.03860554 -5.44509911 24.23033427 -5.42348289 20.42180252 C-5.41791706 19.02379059 -5.4174479 17.62574773 -5.42243576 16.22773361 C-5.42838854 14.32006882 -5.41405022 12.41237279 -5.39866638 10.50476074 C-5.39623649 9.43698898 -5.39380659 8.36921722 -5.39130306 7.26908875 C-4.88887792 3.62140994 -3.74886847 0.94688853 0 0 Z " fill="#000000" transform="translate(312.010986328125,266.4920654296875)"/>
<path d="M0 0 C1.31328781 -0.0049926 1.31328781 -0.0049926 2.65310669 -0.01008606 C4.50750197 -0.01515395 6.36190639 -0.01749443 8.21630859 -0.01733398 C11.0519112 -0.01951708 13.8871227 -0.03766478 16.72265625 -0.05664062 C18.52343617 -0.05957525 20.32421794 -0.06155958 22.125 -0.0625 C22.97303192 -0.06968552 23.82106384 -0.07687103 24.6947937 -0.08427429 C25.88590256 -0.07965935 25.88590256 -0.07965935 27.10107422 -0.07495117 C27.79675507 -0.07637619 28.49243591 -0.07780121 29.209198 -0.07926941 C31.57760852 0.21555823 33.16736733 0.92218304 35.1953125 2.16796875 C36.34903284 4.47540942 36.32818179 5.80001369 36.34248352 8.36776733 C36.34963882 9.2482222 36.35679413 10.12867706 36.36416626 11.03581238 C36.36685516 12.00416519 36.36954407 12.97251801 36.37231445 13.97021484 C36.38217125 15.49720253 36.38217125 15.49720253 36.39222717 17.05503845 C36.41198664 20.4338284 36.42362757 23.81257389 36.43359375 27.19140625 C36.43766928 28.34299854 36.4417448 29.49459084 36.44594383 30.68107986 C36.46681407 36.77403841 36.4811127 42.86697436 36.49047852 48.95996094 C36.50155586 55.26418858 36.53596863 61.5680645 36.57565022 67.87216759 C36.60174802 72.71052727 36.61016419 77.54880221 36.61375999 82.3872261 C36.61864223 84.71171067 36.63030238 87.03619104 36.64879799 89.36060715 C36.67304766 92.60966948 36.67225031 95.8578092 36.6652832 99.10693359 C36.67809326 100.07123795 36.69090332 101.0355423 36.70410156 102.02906799 C36.65344244 108.49363541 36.65344244 108.49363541 34.43132019 111.76443481 C32.00987185 113.28436917 30.78058333 113.67312171 27.94921875 113.68554688 C27.12156006 113.69815552 26.29390137 113.71076416 25.44116211 113.72375488 C24.55565674 113.71565796 23.67015137 113.70756104 22.7578125 113.69921875 C21.8407251 113.70304565 20.9236377 113.70687256 19.97875977 113.71081543 C18.04214377 113.71353424 16.10549103 113.70617521 14.16894531 113.68945312 C11.20554697 113.66804269 8.24457299 113.68925544 5.28125 113.71484375 C3.39843215 113.71220047 1.51561581 113.70707548 -0.3671875 113.69921875 C-1.25269287 113.70731567 -2.13819824 113.7154126 -3.05053711 113.72375488 C-3.8781958 113.71114624 -4.70585449 113.6985376 -5.55859375 113.68554688 C-6.28377197 113.6823645 -7.0089502 113.67918213 -7.75610352 113.67590332 C-10.94241059 112.88587688 -11.9459173 111.89982371 -13.8046875 109.16796875 C-14.39795699 105.82172492 -14.34044714 102.51355622 -14.30639648 99.12280273 C-14.31179947 98.1029126 -14.31720245 97.08302246 -14.32276917 96.03222656 C-14.33528217 92.65921053 -14.31874883 89.28704367 -14.30078125 85.9140625 C-14.30093617 83.57283992 -14.3024239 81.23161707 -14.30519104 78.89039612 C-14.30657615 73.98353745 -14.29399687 69.07697068 -14.27124023 64.17016602 C-14.24283995 57.87263252 -14.24559584 51.57558362 -14.25833035 45.27801418 C-14.26527628 40.44395286 -14.25751088 35.61000407 -14.24507332 30.77595711 C-14.24054937 28.45346571 -14.24023021 26.13096228 -14.24413872 23.80846977 C-14.24704064 20.56664012 -14.23059278 17.3254848 -14.20874023 14.08374023 C-14.21324188 13.1189827 -14.21774353 12.15422516 -14.22238159 11.16023254 C-14.21247696 10.27840302 -14.20257233 9.39657349 -14.19236755 8.48802185 C-14.18993766 7.7216764 -14.18750776 6.95533094 -14.18500423 6.1657629 C-13.70241368 3.63072697 -12.78706789 2.76858601 -10.8046875 1.16796875 C-7.45528784 -0.50673108 -3.68339603 0.00481054 0 0 Z " fill="#000000" transform="translate(244.8046875,307.83203125)"/>
<path d="M0 0 C8.28284765 0.02313645 16.35421989 1.05967876 24.53564453 2.24804688 C26.91639608 2.5912072 29.29936471 2.91393724 31.68310547 3.2355957 C33.21192538 3.45247108 34.74057828 3.67052777 36.26904297 3.88989258 C36.97431122 3.98377762 37.67957947 4.07766266 38.40621948 4.1743927 C42.53464306 4.79459115 45.78158653 5.58120395 49.02685547 8.27661133 C51.20036713 16.17260832 48.26327026 27.13244136 47.1652832 35.21264648 C46.83751429 37.66538911 46.54053197 40.12074425 46.24365234 42.57739258 C46.03394239 44.15186269 45.82241836 45.72609247 45.60888672 47.30004883 C45.52532425 48.02719086 45.44176178 48.75433289 45.35566711 49.50350952 C44.61710756 54.57553603 43.08258574 57.15494418 39.02685547 60.27661133 C35.83935547 60.27661133 35.83935547 60.27661133 33.02685547 59.27661133 C30.72767016 55.82783337 30.85693706 55.11873526 31.27685547 51.15161133 C31.38384766 50.10231445 31.49083984 49.05301758 31.60107422 47.97192383 C31.81183594 46.14274414 31.81183594 46.14274414 32.02685547 44.27661133 C32.11016113 43.5428125 32.1934668 42.80901367 32.27929688 42.05297852 C32.84020115 37.12481405 33.42600846 32.20005669 34.02685547 27.27661133 C33.56537109 27.63787109 33.10388672 27.99913086 32.62841797 28.37133789 C23.80953291 35.26871687 14.96110641 42.11726829 5.98852539 48.8137207 C1.24809307 52.353741 -3.46418095 55.9284788 -8.16064453 59.52661133 C-9.20188477 60.32421875 -9.20188477 60.32421875 -10.26416016 61.13793945 C-11.72219497 62.25492895 -13.18020198 63.37195473 -14.63818359 64.48901367 C-25.77660926 73.0163613 -36.93383377 81.51753536 -48.16796875 89.91845703 C-55.0311418 95.05674021 -61.8326327 100.27481795 -68.63818359 105.48901367 C-79.67144221 113.93584759 -90.71679179 122.3662279 -101.8515625 130.67895508 C-105.73748582 133.58476108 -109.60171551 136.51721837 -113.45361328 139.46801758 C-114.8719043 140.55373047 -114.8719043 140.55373047 -116.31884766 141.66137695 C-118.17474825 143.08359631 -120.02899156 144.50798166 -121.88134766 145.93481445 C-123.15461914 146.9103125 -123.15461914 146.9103125 -124.45361328 147.90551758 C-125.20537842 148.48374268 -125.95714355 149.06196777 -126.73168945 149.65771484 C-133.17040265 154.3080914 -133.17040265 154.3080914 -137.16064453 154.15161133 C-139.97314453 153.27661133 -139.97314453 153.27661133 -141.97314453 150.27661133 C-142.03622798 146.90953202 -141.97468918 144.40372055 -139.65673828 141.79516602 C-137.82313486 140.30297019 -135.9347401 138.97110929 -133.97314453 137.65161133 C-132.49699118 136.60338849 -131.02175928 135.55386706 -129.54736328 134.50317383 C-128.40533447 133.70314941 -128.40533447 133.70314941 -127.24023438 132.88696289 C-123.68310149 130.36027233 -120.23791847 127.69381047 -116.78564453 125.02661133 C-115.36682726 123.93877992 -113.94754405 122.85155599 -112.52783203 121.76489258 C-111.79532227 121.20366699 -111.0628125 120.64244141 -110.30810547 120.06420898 C-99.16967981 111.53686136 -88.01245529 103.0356873 -76.77832031 94.63476562 C-69.90928799 89.49209576 -63.10193585 84.26961221 -56.29052734 79.05102539 C-44.21553764 69.80523681 -32.10510437 60.6094078 -19.92871094 51.49755859 C-14.43377712 47.38208553 -8.97554194 43.22477617 -3.54345703 39.02661133 C1.31692043 35.27494415 6.20500661 31.5594738 11.08935547 27.83911133 C12.46595337 26.79025757 12.46595337 26.79025757 13.87036133 25.72021484 C18.77379275 21.98606672 18.77379275 21.98606672 21.02685547 20.27661133 C21.73898193 19.71063232 22.4511084 19.14465332 23.18481445 18.56152344 C25.02685547 17.27661133 25.02685547 17.27661133 27.02685547 17.27661133 C27.02685547 16.61661133 27.02685547 15.95661133 27.02685547 15.27661133 C26.17865234 15.22762695 25.33044922 15.17864258 24.45654297 15.12817383 C18.08746201 14.7222324 11.74007569 14.21644209 5.40185547 13.46411133 C4.27521484 13.33391602 3.14857422 13.2037207 1.98779297 13.06958008 C-1.45184807 12.14840972 -2.84674817 11.10659471 -4.97314453 8.27661133 C-4.81483983 4.31899374 -4.56120631 0.63942672 0 0 Z " fill="#000000" transform="translate(300.97314453125,168.723388671875)"/>
<path d="M0 0 C0.87100342 -0.01260864 1.74200684 -0.02521729 2.6394043 -0.03820801 C3.57695557 -0.03011108 4.51450684 -0.02201416 5.48046875 -0.01367188 C6.44573486 -0.01749878 7.41100098 -0.02132568 8.40551758 -0.02526855 C10.44646243 -0.02799069 12.48744199 -0.02060843 14.52832031 -0.00390625 C17.65638846 0.01749888 20.78215973 -0.00369791 23.91015625 -0.02929688 C25.89193216 -0.02665365 27.87370665 -0.02152879 29.85546875 -0.01367188 C31.26179565 -0.02581726 31.26179565 -0.02581726 32.6965332 -0.03820801 C34.00303833 -0.01929504 34.00303833 -0.01929504 35.3359375 0 C36.10188232 0.00318237 36.86782715 0.00636475 37.65698242 0.00964355 C39.66796875 0.51757812 39.66796875 0.51757812 41.41346741 2.1640625 C43.0154724 5.16951467 43.05528243 7.28893236 43.07202148 10.69140625 C43.08470566 11.93950073 43.09738983 13.18759521 43.11045837 14.47351074 C43.10840701 15.83195156 43.10541904 17.19039124 43.1015625 18.54882812 C43.10612493 19.94600682 43.11143069 21.34318326 43.1174469 22.74035645 C43.12637362 25.66570159 43.12395967 28.59077367 43.11401367 31.51611328 C43.10251684 35.26235105 43.12274712 39.00764722 43.15193081 42.75376129 C43.17028761 45.63802053 43.17000164 48.52205381 43.16429329 51.40635681 C43.16414005 52.78744326 43.17018692 54.168545 43.18258476 55.54957581 C43.19748214 57.48091454 43.18419412 59.41240836 43.16967773 61.34375 C43.16951157 62.44199097 43.1693454 63.54023193 43.16917419 64.67175293 C42.54424937 68.22005197 41.54500611 69.39719045 38.66796875 71.51757812 C36.61938477 72.0255127 36.61938477 72.0255127 34.421875 72.03515625 C33.59421631 72.04776489 32.76655762 72.06037354 31.91381836 72.07336426 C31.02831299 72.06526733 30.14280762 72.05717041 29.23046875 72.04882812 C28.31338135 72.05265503 27.39629395 72.05648193 26.45141602 72.0604248 C24.51480002 72.06314361 22.57814728 72.05578458 20.64160156 72.0390625 C17.67820322 72.01765207 14.71722924 72.03886482 11.75390625 72.06445312 C9.8710884 72.06180984 7.98827206 72.05668485 6.10546875 72.04882812 C5.21996338 72.05692505 4.33445801 72.06502197 3.42211914 72.07336426 C2.59446045 72.06075562 1.76680176 72.04814697 0.9140625 72.03515625 C0.18888428 72.03197388 -0.53629395 72.0287915 -1.28344727 72.0255127 C-4.30805843 71.27557782 -5.47596879 69.99115201 -7.33203125 67.51757812 C-7.83323669 64.67175293 -7.83323669 64.67175293 -7.83374023 61.34375 C-7.84312119 60.09565552 -7.85250214 58.84756104 -7.86216736 57.56164551 C-7.85168899 56.2031994 -7.84031996 54.84475991 -7.828125 53.48632812 C-7.82828003 52.08915125 -7.82976963 50.69197395 -7.83253479 49.2947998 C-7.83391807 46.36935367 -7.82137364 43.44439824 -7.79858398 40.51904297 C-7.77019878 36.77290871 -7.77293723 33.02758954 -7.7856741 29.28139496 C-7.79263576 26.39712588 -7.78483658 23.51304454 -7.77241707 20.62879944 C-7.76790725 19.24773377 -7.76756168 17.86664791 -7.77148247 16.48558044 C-7.77439909 14.55415521 -7.75571174 12.62273396 -7.73608398 10.69140625 C-7.730681 9.59316528 -7.72527802 8.49492432 -7.7197113 7.36340332 C-7.03093559 2.307339 -5.14840564 0.02139077 0 0 Z " fill="#000000" transform="translate(162.33203125,349.482421875)"/>
</svg>
