<?xml version="1.0" encoding="UTF-8"?>
<svg version="1.1" xmlns="http://www.w3.org/2000/svg" width="512" height="512">
<path d="M0 0 C1.46373047 0.32145996 1.46373047 0.32145996 2.95703125 0.64941406 C36.84220135 8.27690812 68.87249568 23.26005598 96 45 C96.97324219 45.76957031 97.94648438 46.53914063 98.94921875 47.33203125 C113.93661326 59.44565234 127.70437957 73.38136434 139 89 C139.63808594 89.86625 140.27617187 90.7325 140.93359375 91.625 C166.37425198 126.98128226 183.82906407 171.30521471 184.23828125 215.23828125 C184.2480751 216.10847397 184.25786896 216.97866669 184.26795959 217.87522888 C184.4439066 237.58490621 184.20257486 256.65024514 180 276 C179.78569336 276.99290039 179.57138672 277.98580078 179.35058594 279.00878906 C169.93054853 321.11786459 148.98193203 359.09495524 119 390 C118.48469727 390.54108398 117.96939453 391.08216797 117.43847656 391.63964844 C110.01038098 399.43343488 102.2253965 406.3623855 93.59765625 412.80371094 C92.17825924 413.86652349 90.77535682 414.95128533 89.375 416.0390625 C61.58586774 437.14143481 28.98351266 450.0798231 -5 457 C-5.84804199 457.17934082 -6.69608398 457.35868164 -7.56982422 457.54345703 C-35.70121672 463.24446573 -68.05738406 462.03593578 -96 456 C-97.49152588 455.67854004 -97.49152588 455.67854004 -99.01318359 455.35058594 C-141.12020514 445.92947413 -179.09630761 424.98062006 -210 395 C-210.54108398 394.48469727 -211.08216797 393.96939453 -211.63964844 393.43847656 C-219.38976797 386.051999 -226.31838164 378.32716191 -232.70898438 369.73535156 C-233.55007113 368.60478336 -234.39744514 367.47885704 -235.25195312 366.35839844 C-257.80848842 336.77752212 -271.90183086 301.55648337 -278 265 C-278.18546387 263.91066162 -278.37092773 262.82132324 -278.56201172 261.69897461 C-280.2431147 250.69832257 -280.3984571 239.79656894 -280.375 228.6875 C-280.37445618 227.71745026 -280.37391235 226.74740051 -280.37335205 225.74795532 C-280.333258 210.16371776 -279.45846342 195.2506996 -276 180 C-275.67056396 178.52031738 -275.67056396 178.52031738 -275.33447266 177.01074219 C-267.21398218 141.48287799 -251.45172835 107.999259 -228 80 C-227.06227131 78.87388831 -226.12476624 77.74759036 -225.1875 76.62109375 C-224.465625 75.75613281 -223.74375 74.89117187 -223 74 C-218.93501119 75.37184347 -216.32603439 77.22068459 -213.1875 80.125 C-212.39730469 80.84945312 -211.60710937 81.57390625 -210.79296875 82.3203125 C-209.90544922 83.15175781 -209.90544922 83.15175781 -209 84 C-210.57024463 87.64126997 -212.82555685 90.22451169 -215.4375 93.1875 C-221.77218707 100.59793253 -226.93557524 108.68769657 -232 117 C-232.40637695 117.66547852 -232.81275391 118.33095703 -233.23144531 119.01660156 C-252.9877221 151.75883732 -262.47574722 189.55306388 -262.3125 227.625 C-262.30976578 228.94860535 -262.30976578 228.94860535 -262.30697632 230.2989502 C-262.26139943 243.40549872 -261.82479524 256.1547604 -259 269 C-258.82839355 269.81162598 -258.65678711 270.62325195 -258.47998047 271.45947266 C-255.09579473 287.12229476 -250.42819228 302.76127695 -243 317 C-242.45472656 316.11699219 -241.90945312 315.23398437 -241.34765625 314.32421875 C-223.45333298 285.68768573 -200.13260964 268.39386328 -167.41430664 260.46142578 C-160.87622095 259.21185738 -154.51190264 258.85248877 -147.87623596 258.85955811 C-146.99118077 258.85658698 -146.10612557 258.85361586 -145.19425052 258.8505547 C-142.24610843 258.84192441 -139.29800721 258.84036427 -136.34985352 258.83886719 C-134.2284995 258.83423489 -132.1071463 258.82920968 -129.98579407 258.82382202 C-124.233244 258.81073318 -118.4807056 258.80425959 -112.72814298 258.79981136 C-109.12784689 258.79687414 -105.52755394 258.79276805 -101.92725945 258.78830719 C-90.6446508 258.77463971 -79.36204938 258.76497015 -68.07943302 258.7611053 C-55.08969097 258.75663034 -42.10005445 258.73910537 -29.11034447 258.7101047 C-19.04800281 258.6884258 -8.9856907 258.67839766 1.07667404 258.67706418 C7.07595736 258.67602033 13.07514138 258.67020267 19.07439995 258.65224457 C24.72565289 258.63565692 30.37673304 258.63365987 36.02800179 258.64238358 C38.08978364 258.64314834 40.1515752 258.63888632 42.21333313 258.62892532 C70.76634879 258.49918762 98.15842744 264.50943005 120 284 C120.804375 284.66257812 121.60875 285.32515625 122.4375 286.0078125 C132.63705977 294.64556468 140.52166292 305.36423939 147 317 C150.74330957 310.00526554 153.60822279 302.99669712 156 295.4375 C156.3410376 294.36628906 156.6820752 293.29507812 157.03344727 292.19140625 C162.30504018 275.08707453 166.05585063 257.23070872 166.23828125 239.28515625 C166.25304001 238.07811035 166.25304001 238.07811035 166.26809692 236.84667969 C166.86853774 174.92463906 146.62985638 119.69505248 103 75 C71.44148672 43.33872373 30.59116343 24.21295201 -13 16 C-14.25039063 15.76410156 -15.50078125 15.52820313 -16.7890625 15.28515625 C-50.35872266 9.79703758 -86.02838097 13.67601192 -118 25 C-118.64694824 25.22268555 -119.29389648 25.44537109 -119.96044922 25.67480469 C-130.41625733 29.28657957 -140.2496525 33.78654889 -150 39 C-150.60585937 39.32226562 -151.21171875 39.64453125 -151.8359375 39.9765625 C-164.08864813 46.55771275 -175.23495825 54.51307103 -185.9140625 63.40625 C-188 65 -188 65 -192 67 C-195.3 63.04 -198.6 59.08 -202 55 C-200.20464119 51.40928237 -199.6337428 50.40730361 -196.68359375 48.15234375 C-196.01118652 47.63534912 -195.3387793 47.11835449 -194.64599609 46.58569336 C-193.91719238 46.04178955 -193.18838867 45.49788574 -192.4375 44.9375 C-191.67518066 44.36459229 -190.91286133 43.79168457 -190.12744141 43.20141602 C-161.80110083 22.15041718 -130.53156361 7.51845526 -96 0 C-94.60080322 -0.31541748 -94.60080322 -0.31541748 -93.17333984 -0.63720703 C-63.49113207 -7.06199339 -29.58677313 -6.68449448 0 0 Z M-217.8359375 310.27734375 C-221.77210815 315.22952957 -224.96226818 320.46098688 -228 326 C-228.64710938 327.05316406 -229.29421875 328.10632813 -229.9609375 329.19140625 C-231.77480333 332.66159557 -232.75542499 335.08227064 -233 339 C-230.88955755 344.01899639 -227.95860579 347.95729956 -224.51708984 352.14453125 C-223.08635359 353.8943857 -221.73299776 355.67906898 -220.39453125 357.5 C-185.3942718 404.5382679 -132.96498754 433.63665034 -75.375 442.25 C-19.57743665 448.73808876 37.282082 434.46799611 82 400 C83.0003125 399.23042969 84.000625 398.46085937 85.03125 397.66796875 C101.6924925 384.38206417 116.37754011 369.28465309 128.65332031 351.85888672 C129.89719713 350.14190374 131.20507754 348.51300846 132.5546875 346.87890625 C134.80485526 343.8415919 136.1582873 341.69058644 137 338 C135.76014654 332.0216967 133.17628082 327.17098518 130 322 C129.62037109 321.37770508 129.24074219 320.75541016 128.84960938 320.11425781 C115.2491953 298.46249129 94.78762344 283.403923 69.81640625 277.54296875 C63.51622585 276.32837086 57.47955645 275.85136849 51.08587646 275.85282898 C50.21125393 275.84915229 49.3366314 275.8454756 48.43550515 275.8416875 C45.51656769 275.83071034 42.5976659 275.82681693 39.67871094 275.82299805 C37.58045338 275.81672865 35.48219691 275.81008143 33.38394165 275.80308533 C26.50076056 275.78209069 19.61757938 275.77168388 12.734375 275.76171875 C10.35770913 275.7576688 7.98104338 275.7535518 5.60437775 275.74936867 C-5.56931349 275.73032326 -16.74299817 275.71609359 -27.91670251 275.7077567 C-40.77685542 275.69800113 -53.63683544 275.67172269 -66.4969275 275.63125581 C-76.45991728 275.60099129 -86.42285781 275.58627786 -96.38589263 275.58297569 C-102.32492873 275.58063607 -108.26378001 275.57181883 -114.20276642 275.54651451 C-119.80069873 275.52304882 -125.39832698 275.51907418 -130.99629593 275.52927589 C-133.03627923 275.52976698 -135.07627845 275.52357493 -137.11621475 275.50971985 C-169.8328902 275.30018111 -195.83260358 285.12512282 -217.8359375 310.27734375 Z " fill="#000000" transform="translate(304,28)"/>
<path d="M0 0 C17.56687232 16.30113698 26.59038791 38.73327528 28.2890625 62.35546875 C28.69271337 83.09303216 22.66168227 100.47539847 12.0390625 117.87890625 C8.14899477 116.4910983 5.07347542 114.66368355 1.7265625 112.25390625 C0.84355469 111.62226563 -0.03945313 110.990625 -0.94921875 110.33984375 C-1.61308594 109.85773438 -2.27695312 109.375625 -2.9609375 108.87890625 C-2.70401123 108.36094482 -2.44708496 107.8429834 -2.18237305 107.30932617 C4.73697665 93.57542083 4.73697665 93.57542083 9.0390625 78.87890625 C9.379375 77.14640625 9.379375 77.14640625 9.7265625 75.37890625 C11.50269256 55.48624959 6.52858917 36.11184759 -5.9921875 20.31640625 C-17.26216401 7.30037704 -30.97441223 -1.61727253 -47.9609375 -5.12109375 C-49.0540625 -5.34796875 -50.1471875 -5.57484375 -51.2734375 -5.80859375 C-71.74871426 -7.5437867 -91.22263654 -3.01121036 -107.5234375 9.91015625 C-123.68000678 23.89938087 -132.53413867 41.70412203 -134.12109375 63.03125 C-134.86425622 82.45040844 -127.19655016 100.33416815 -114.8359375 115.00390625 C-101.58309847 129.13129811 -83.18693742 137.19700993 -63.88867188 137.9609375 C-49.67340941 138.04271274 -36.80185001 134.53459726 -24.66796875 127.26953125 C-21.9609375 125.87890625 -21.9609375 125.87890625 -17.9609375 125.87890625 C-15.8203125 128.43359375 -15.8203125 128.43359375 -13.7109375 131.75390625 C-13.00453125 132.84445313 -12.298125 133.935 -11.5703125 135.05859375 C-9.9609375 137.87890625 -9.9609375 137.87890625 -9.9609375 139.87890625 C-31.88130486 153.76415503 -56.54128869 159.27516078 -82.13134766 153.67944336 C-105.69703769 147.9776987 -126.18650317 133.91547769 -139.03857422 113.20483398 C-146.32321191 100.74244119 -151.1781996 86.32397849 -151.9609375 71.87890625 C-152.01378906 70.93917969 -152.06664062 69.99945313 -152.12109375 69.03125 C-152.83502411 43.98160653 -143.36974289 21.49769031 -126.9609375 2.87890625 C-92.64913761 -33.27295862 -35.95660188 -32.12680821 0 0 Z " fill="#000000" transform="translate(317.9609375,113.12109375)"/>
<path d="M0 0 C15.05614197 0 26.55123591 4.8800131 37.44921875 15.25390625 C43.61592966 21.89280023 47.76698073 29.22870031 50 38 C50.226875 38.845625 50.45375 39.69125 50.6875 40.5625 C51.1301241 44.014968 51 47.5192743 51 51 C45.39 51 39.78 51 34 51 C33.6596875 48.834375 33.6596875 48.834375 33.3125 46.625 C31.67253257 38.4829082 28.40413128 31.44351159 22 26 C21.278125 25.319375 20.55625 24.63875 19.8125 23.9375 C13.59259926 19.65267949 7.44782729 18.06397533 0 17 C0 11.39 0 5.78 0 0 Z " fill="#000000" transform="translate(256,128)"/>
</svg>
