<?xml version="1.0" encoding="UTF-8"?>
<svg version="1.1" xmlns="http://www.w3.org/2000/svg" width="512" height="512">
<path d="M0 0 C1.20705207 -0.00384115 2.41410415 -0.00768229 3.65773356 -0.01163983 C4.99894124 -0.0108596 6.34014887 -0.00998081 7.68135643 -0.00901413 C9.10486347 -0.0115979 10.52836978 -0.0146111 11.95187509 -0.01801753 C15.86847974 -0.02608954 19.78506606 -0.02787722 23.70167804 -0.028615 C27.92406567 -0.03046523 32.14644378 -0.03801248 36.36882591 -0.04475021 C45.60450182 -0.05833607 54.8401734 -0.06435881 64.07585764 -0.06876087 C69.84298259 -0.07152319 75.61010587 -0.07576056 81.37722969 -0.08026505 C97.34512858 -0.09245866 113.31302612 -0.10275739 129.28092957 -0.10614014 C130.30306695 -0.1063597 131.32520434 -0.10657927 132.37831559 -0.10680549 C133.91519311 -0.10713291 133.91519311 -0.10713291 135.48311865 -0.10746694 C137.55931958 -0.1079104 139.6355205 -0.10835697 141.71172142 -0.10880661 C142.74158902 -0.10902804 143.77145662 -0.10924947 144.83253233 -0.10947761 C161.51564736 -0.11342461 178.19871867 -0.13087524 194.88181682 -0.15416613 C212.01072145 -0.17788631 229.13960416 -0.19034231 246.26852548 -0.19150805 C255.88547544 -0.19242451 265.50236848 -0.19816919 275.11930275 -0.21632767 C283.30952888 -0.23173772 291.49968049 -0.23684382 299.68991835 -0.22858956 C303.86734084 -0.2246861 308.04461331 -0.22559773 312.22201729 -0.23964691 C316.05037675 -0.2524042 319.87847374 -0.2511724 323.70683293 -0.2390562 C325.73925552 -0.23618058 327.77168272 -0.24802118 329.80406916 -0.26047826 C337.09605441 -0.22117745 343.30431836 0.52493682 350.13213158 3.13142776 C351.06025658 3.48463089 351.98838158 3.83783401 352.94463158 4.20174026 C365.88102296 10.43892897 374.4807062 20.65049747 379.50713158 34.00642776 C381.25337856 39.09332115 382.25753971 43.82466674 382.25517941 49.2132349 C382.25717045 50.21944128 382.2591615 51.22564766 382.26121289 52.26234514 C382.25830004 53.36059214 382.2553872 54.45883915 382.25238609 55.59036636 C382.25366773 57.34861851 382.25366773 57.34861851 382.25497526 59.14239091 C382.25633734 62.39195912 382.25321294 65.64148744 382.2481972 68.89105093 C382.2438782 72.39678993 382.24534015 75.90252707 382.24609947 79.40826797 C382.24662379 85.48088713 382.24348663 91.55349553 382.23786163 97.62611198 C382.22973413 106.40609231 382.22713013 115.18606744 382.22587364 123.96605112 C382.22368509 138.21103964 382.21703033 152.45602243 382.20757103 166.70100784 C382.19839183 180.53857266 382.19131347 194.37613591 382.18706322 208.21370316 C382.18666913 209.49315383 382.18666913 209.49315383 382.18626709 210.798452 C382.18496205 215.07754319 382.18369834 219.3566344 382.18245518 223.63572562 C382.1720887 259.13429708 382.15447573 294.6328619 382.13213158 330.13142776 C383.23678261 329.65030029 384.34143364 329.16917282 385.47955894 328.67346573 C391.08056463 326.30884105 396.04441509 325.9546609 402.07353783 325.89314651 C402.83706062 325.88507477 403.60058342 325.87700302 404.38724327 325.86868668 C406.00180895 325.854894 407.61640321 325.84415044 409.23100853 325.83626175 C410.86098001 325.82479331 412.49091547 325.80442365 414.12065697 325.77473831 C428.62415537 325.5110919 440.78822724 327.16373366 452.13213158 337.13142776 C459.24815125 344.6025655 464.22821209 353.67932883 464.2793026 364.13205338 C464.29003555 365.64362518 464.29003555 365.64362518 464.30098534 367.1857338 C464.30501869 368.83539894 464.30501869 368.83539894 464.30913353 370.51839066 C464.31899033 372.26303604 464.31899033 372.26303604 464.32904625 374.04292679 C464.34877468 377.89664653 464.36044218 381.75032726 464.37041283 385.60408401 C464.37448835 386.92162611 464.37856388 388.23916821 464.38276291 389.59663582 C464.40180824 395.85383663 464.41603768 402.11102574 464.42437488 408.36824995 C464.43412933 415.56871353 464.46040427 422.76886822 464.50087577 429.96922308 C464.53114695 435.54820058 464.54585432 441.12709013 464.54915589 446.70614809 C464.55149491 450.03157411 464.56231084 453.35659672 464.58561707 456.68195152 C464.61005884 460.40111595 464.6090334 464.11948239 464.60210228 467.83870316 C464.61491234 468.9243103 464.6277224 470.00991745 464.64092064 471.12842178 C464.55568745 483.74009062 460.15149651 492.86373624 451.47588158 501.84627151 C443.27795989 509.44481685 434.32064204 512.27111052 423.37822533 512.36970901 C422.52213173 512.37778076 421.66603813 512.38585251 420.7840023 512.39416885 C418.97094799 512.40798553 417.15786792 512.41871847 415.34477806 512.42659378 C413.50713437 512.43807198 411.66952292 512.4584573 409.83208275 512.48811722 C395.79434524 512.71451194 383.96424716 512.12178385 373.13213158 502.13142776 C365.28089683 494.36662863 360.8352856 487.05999941 359.13213158 476.13142776 C359.13213158 471.84142776 359.13213158 467.55142776 359.13213158 463.13142776 C329.10213158 463.13142776 299.07213158 463.13142776 268.13213158 463.13142776 C268.13213158 468.41142776 268.13213158 473.69142776 268.13213158 479.13142776 C265.11269846 490.16397185 259.70982706 499.56106329 250.13213158 506.13142776 C242.57701241 510.12632639 236.24766295 512.29103666 227.69463158 512.36970901 C226.85931908 512.37778076 226.02400658 512.38585251 225.16338158 512.39416885 C223.39142995 512.40800191 221.61945177 512.41872755 219.84746361 512.42659378 C218.05148468 512.43805885 216.25553833 512.45842287 214.4597683 512.48811722 C198.80356295 512.74688552 187.24044072 510.99689336 175.13213158 500.13142776 C162.6120672 486.54286068 163.60714374 470.09257384 163.88213158 452.81892776 C163.90223212 450.6138659 163.92047658 448.4087863 163.93681908 446.20369339 C163.98052087 440.84587914 164.0471492 435.48873804 164.13213158 430.13142776 C162.9560836 430.14031021 161.78003563 430.14919266 160.56834984 430.15834427 C149.44673668 430.23968114 138.32518443 430.29951331 127.20334053 430.33867645 C121.48644355 430.35948798 115.76978805 430.38768761 110.05303001 430.43318558 C104.52870648 430.47687332 99.0046142 430.50061319 93.48013115 430.51093674 C91.37995073 430.5182871 89.27978194 430.53263994 87.17970085 430.55434799 C72.45888497 430.70036395 59.63921751 430.46787941 48.13213158 420.13142776 C47.5159597 419.60677933 46.89978783 419.08213089 46.26494408 418.54158401 C38.83339195 411.76388089 34.52027621 402.26851859 33.88603592 392.24032307 C33.87773051 390.80179012 33.88021228 389.36316758 33.89162254 387.92465591 C33.88991369 387.12646578 33.88820484 386.32827565 33.88644421 385.50589794 C33.88316493 382.84655772 33.89412711 380.18747303 33.9050808 377.52815628 C33.90564525 375.61581808 33.90532769 373.70347945 33.90419579 371.79114151 C33.9036226 366.60986497 33.91537146 361.42868126 33.9293437 356.24742627 C33.94185669 350.82887701 33.94302201 345.41032555 33.94539452 339.99176407 C33.9516076 329.73551256 33.96801614 319.47930375 33.9880935 309.22307104 C34.01045779 297.54478137 34.02144727 285.86648966 34.03148437 274.1881839 C34.05238249 250.16924153 34.08755518 226.15033704 34.13213158 202.13142776 C33.53237511 202.14253082 32.93261864 202.15363388 32.31468773 202.16507339 C26.01961362 202.27649426 19.72482378 202.35143478 13.42900658 202.40608597 C11.08579169 202.43108585 8.74265364 202.46509726 6.3997097 202.50862503 C-11.16294844 202.82651812 -24.29489814 202.29205944 -37.51239967 189.54549026 C-43.88880563 182.66865751 -47.97157637 174.2757865 -48.01503944 164.87178421 C-48.02219475 163.80661575 -48.02935005 162.7414473 -48.03672218 161.64400101 C-48.03941109 160.48034012 -48.04209999 159.31667923 -48.04487038 158.11775589 C-48.05144157 156.88799026 -48.05801277 155.65822464 -48.0647831 154.39119339 C-48.08451737 150.31501902 -48.09618605 146.23888403 -48.10614967 142.16267776 C-48.11019962 140.75507971 -48.11431661 139.34748185 -48.11849976 137.93988419 C-48.13754761 131.32120644 -48.15177591 124.70253977 -48.16011173 118.08383989 C-48.16986381 110.46796012 -48.19613152 102.85237256 -48.23661262 95.23659563 C-48.26689057 89.33573694 -48.28159185 83.43496141 -48.28489274 77.53402662 C-48.28723119 74.01688749 -48.29603167 70.50006063 -48.32135391 66.98300552 C-48.34922218 63.04866346 -48.34476798 59.11469734 -48.33783913 55.18025589 C-48.35064919 54.03278885 -48.36345924 52.88532181 -48.37665749 51.70308304 C-48.28118452 36.74754463 -42.44718919 24.2379665 -32.32099342 13.42439651 C-23.81076143 5.46976884 -11.6895489 0.0139552 0 0 Z M48.13213158 22.13142776 C49.21485335 24.83923604 50.29888322 27.54648872 51.38603783 30.25252151 C51.81787376 31.34693558 52.2497097 32.44134964 52.69463158 33.56892776 C53.12904564 34.6607637 53.5634597 35.75259964 54.01103783 36.87752151 C55.7799263 42.01161244 56.25709426 46.86321145 56.26241684 52.27218246 C56.26604119 53.48916683 56.26966553 54.70615119 56.27339971 55.96001387 C56.27240323 57.30202332 56.27132112 58.6440327 56.27016258 59.98604202 C56.27258201 61.41825072 56.2754447 62.85045872 56.27871192 64.28266573 C56.28645217 68.21387563 56.28808364 72.14506806 56.28876305 76.07628465 C56.29060502 80.31764775 56.29821305 84.55900069 56.30524254 88.80035782 C56.31676129 96.14870451 56.32500908 103.49704891 56.33136177 110.84540176 C56.34169135 122.45805243 56.36225488 134.07067453 56.38448143 145.68330765 C56.39196078 149.65656653 56.39937453 153.62982553 56.4067688 157.60308456 C56.40954465 159.0924421 56.40954465 159.0924421 56.41237658 160.61188766 C56.43329812 171.91087873 56.45213011 183.20987293 56.4700222 194.50886917 C56.47247947 196.05803385 56.47247947 196.05803385 56.47498639 197.63849479 C56.50128766 214.38559202 56.51992311 231.13269146 56.53661411 247.87980062 C56.55402567 265.07205419 56.5828589 282.26426442 56.62150347 299.45648336 C56.64491624 310.06239308 56.65889919 320.66823213 56.66083111 331.2741679 C56.66293809 338.53895132 56.67584725 345.80366439 56.69731043 353.06841624 C56.70935454 357.26154408 56.71648071 361.45453222 56.71059799 365.64767647 C56.70530984 369.48563909 56.71375417 373.32331649 56.73315437 377.16123146 C56.73773601 378.55010594 56.73725107 379.93900823 56.73120598 381.3278771 C56.72372299 383.2154715 56.73645332 385.10311363 56.75016403 386.99067307 C56.75152056 388.03924594 56.75287709 389.08781882 56.75427473 390.16816664 C57.45619262 395.67280684 59.94787719 399.43327494 64.13213158 402.94392776 C64.81275658 403.52787308 65.49338158 404.11181839 66.19463158 404.71345901 C70.43087348 407.81377315 75.00015618 407.26592477 80.00981712 407.24495316 C80.91733727 407.24509918 81.82485741 407.24524521 82.75987816 407.24539566 C85.7628931 407.24469837 88.7658462 407.23691453 91.76885033 407.22908401 C93.84964527 407.22721918 95.93044065 407.22579559 98.01123619 407.2247963 C103.49063388 407.22097625 108.9700051 407.21115031 114.44939232 407.20009232 C120.03959864 407.18986719 125.62980923 407.18529631 131.2200222 407.18025589 C142.19073696 407.16952761 153.16143207 407.15245731 164.13213158 407.13142776 C164.14093094 406.30029968 164.14093094 406.30029968 164.14990807 405.45238113 C164.21423877 399.64373871 164.29875653 393.83563018 164.39458275 388.02742386 C164.42767359 385.86473541 164.45575394 383.70196389 164.47856712 381.53914261 C164.51240584 378.41590103 164.56473509 375.29341 164.62041283 372.17049026 C164.62680275 371.21590927 164.63319267 370.26132828 164.63977623 369.27782059 C164.88773765 357.75048478 168.35908671 347.55717556 176.13603783 338.90095901 C184.67994302 330.75444476 194.31975815 327.01123069 205.97588158 326.89314651 C206.74081932 326.88507477 207.50575706 326.87700302 208.29387474 326.86868668 C209.9144167 326.85487454 211.5349874 326.84413958 213.15556908 326.83626175 C214.79237621 326.82480539 216.42914788 326.80445546 218.06572533 326.77473831 C232.46244624 326.51369566 244.96991973 328.03320492 256.13213158 338.13142776 C266.1386139 349.38631959 267.18327147 359.94966601 268.13213158 375.13142776 C298.16213158 375.13142776 328.19213158 375.13142776 359.13213158 375.13142776 C359.22032892 333.38898275 359.2941796 291.64662568 359.33639289 249.90411413 C359.34139567 244.97500237 359.34657296 240.0458908 359.35185814 235.11677933 C359.35290738 234.13549017 359.35395662 233.15420102 359.35503766 232.14317583 C359.37243852 216.25841194 359.40397447 200.37370601 359.44074276 184.48897649 C359.47816103 168.18737293 359.50036931 151.88579971 359.50848556 135.58415496 C359.51397148 125.52676268 359.53129261 115.46953423 359.56379744 105.41219239 C359.58495626 98.51363684 359.59132852 91.61516587 359.58613709 84.71658023 C359.58357744 80.73760547 359.58747576 76.75891682 359.60895348 72.77999306 C359.62849652 69.1327515 359.62935191 65.48598699 359.61572716 61.83872293 C359.61325127 59.90351799 359.63043368 57.96831821 359.64845681 56.03319561 C359.58216558 46.32824473 357.70120796 37.90486357 350.88603783 30.66267776 C341.48140378 22.45195049 330.20187534 21.82558836 318.22377586 21.89091873 C316.48361684 21.88835546 316.48361684 21.88835546 314.70830309 21.8857404 C311.51559116 21.88303177 308.32304467 21.88922084 305.13035226 21.89929652 C301.67718999 21.90798067 298.22403461 21.90500737 294.77086449 21.90349197 C288.79708494 21.90244625 282.82334928 21.90869009 276.84958076 21.91996765 C268.21265493 21.93626218 259.5757502 21.94143469 250.93881066 21.94394363 C236.92397463 21.94831455 222.90916196 21.96160724 208.89433861 21.98054886 C195.28496479 21.9989233 181.67559733 22.01307214 168.06621361 22.02156448 C166.80665533 22.02235265 166.80665533 22.02235265 165.52165143 22.02315675 C161.30884972 22.02576693 157.09604797 22.02829432 152.88324618 22.03078055 C117.96619133 22.05149425 83.04916362 22.0867033 48.13213158 22.13142776 Z M-18.36786842 32.44392776 C-25.3558466 41.7818455 -26.0183884 51.44010394 -26.0131321 62.69734573 C-26.01649071 63.73729691 -26.01984932 64.77724808 -26.02330971 65.84871292 C-26.03277944 69.27369264 -26.03476075 72.69862328 -26.03583717 76.12361526 C-26.03905226 78.51343684 -26.04241652 80.90325821 -26.04592323 83.29307938 C-26.05190436 88.29795666 -26.05376415 93.30281669 -26.05317116 98.3076973 C-26.05306954 104.70870268 -26.06672654 111.10959715 -26.08394337 117.51057625 C-26.09508173 122.44520446 -26.09708981 127.379806 -26.09656143 132.3144455 C-26.09773859 134.67385236 -26.10214548 137.03325998 -26.1098938 139.39265442 C-26.11973168 142.69742148 -26.11680067 146.00194952 -26.11078835 149.30672073 C-26.11640785 150.2732457 -26.12202736 151.23977066 -26.12781715 152.23558426 C-26.11071358 163.40373533 -26.11071358 163.40373533 -21.11786842 173.00642776 C-20.64864967 173.54009964 -20.17943092 174.07377151 -19.69599342 174.62361526 C-13.82652219 179.46467487 -8.48581729 179.53976635 -1.21943092 179.42439651 C0.29936165 179.41802925 0.29936165 179.41802925 1.8488369 179.41153336 C5.06854406 179.39480078 8.28761502 179.35715802 11.50713158 179.31892776 C13.69592459 179.30387395 15.88472746 179.29018676 18.07353783 179.27791214 C23.42661783 179.24491508 28.77932924 179.19476972 34.13213158 179.13142776 C34.22578176 162.24116638 34.2962117 145.3509866 34.33938026 128.46052456 C34.35996144 120.61709449 34.38799638 112.77382622 34.43388939 104.93050003 C34.47389399 98.0902383 34.49959666 91.25009381 34.50848556 84.40971833 C34.51367742 80.79137257 34.52578583 77.17336206 34.5550518 73.55512428 C34.58754099 69.50513404 34.58808232 65.45571801 34.58623314 61.40559769 C34.60061424 60.22019897 34.61499535 59.03480026 34.62981224 57.81348038 C34.57529596 46.73529192 31.96053963 38.06593447 24.22197533 30.01033401 C17.16183094 23.66280234 10.14524603 22.64798514 0.88213158 22.72517776 C-6.58236159 23.53383119 -13.22983111 26.94622784 -18.36786842 32.44392776 Z M192.42510033 354.65877151 C187.17873094 361.35113671 186.83418516 366.51562842 186.84160423 374.76155472 C186.83488701 375.83208084 186.82816978 376.90260696 186.82124901 378.00557327 C186.80225534 381.54366578 186.79834402 385.0815687 186.79619408 388.61970901 C186.78976689 391.08204603 186.78303859 393.54438228 186.77602196 396.00671768 C186.7640456 401.16899257 186.76034149 406.33120051 186.76152611 411.49348831 C186.76172926 418.10104594 186.73443182 424.70817331 186.69998169 431.31562901 C186.67771896 436.40207253 186.67368839 441.48841242 186.67474556 446.57489967 C186.67238849 449.01050359 186.66355904 451.44611031 186.64808083 453.88166618 C186.62843542 457.29245425 186.6342542 460.70231347 186.64629173 464.11311722 C186.63505272 465.11443176 186.62381371 466.11574631 186.61223412 467.14740372 C186.66743354 473.3177453 187.61301781 477.97773724 191.13213158 483.13142776 C193.17412307 485.23090466 193.17412307 485.23090466 195.50713158 486.56892776 C196.60154564 487.27855667 196.60154564 487.27855667 197.71806908 488.00252151 C203.46778167 490.69130297 209.78664696 490.31430631 216.00713158 490.31892776 C216.86693626 490.33117386 217.72674095 490.34341995 218.61260033 490.35603714 C226.63468865 490.37429683 233.78477176 489.4914205 240.13213158 484.13142776 C245.24873957 478.08908095 245.85207537 472.69165797 245.76323509 464.97713089 C245.7703904 463.88665955 245.7775457 462.7961882 245.78491783 461.67267227 C245.80175903 458.08557494 245.78242732 454.49973539 245.76103783 450.91267776 C245.76186694 448.40978772 245.7643279 445.90689773 245.76834679 443.40401077 C245.77120167 438.16538932 245.75706667 432.92709099 245.7290554 427.68855667 C245.69700796 421.64897705 245.69702252 415.61004336 245.71427017 409.57041788 C245.73018445 403.73869788 245.72327063 397.90721446 245.70633316 392.0755043 C245.70116072 389.6036367 245.70162172 387.13175051 245.70787811 384.65988541 C245.71334608 381.20142885 245.69290236 377.74405746 245.66557884 374.28572464 C245.67210472 373.27042175 245.6786306 372.25511887 245.68535423 371.20904922 C245.59161603 364.20887921 244.36801675 358.4090663 239.31572533 353.29158401 C238.73951439 352.92935745 238.16330345 352.56713089 237.56963158 352.19392776 C236.99084251 351.81365433 236.41205345 351.43338089 235.81572533 351.04158401 C230.45653079 348.14438604 224.39787668 348.87044937 218.47295189 348.83626175 C217.08612916 348.82476427 215.69934992 348.80434736 214.31279564 348.77473831 C205.27970635 348.5819721 199.31148872 348.49726611 192.42510033 354.65877151 Z M385.75713158 356.56892776 C381.84602799 362.73643726 381.83509485 368.61676847 381.84160423 375.69148636 C381.83488701 376.74265137 381.82816978 377.79381638 381.82124901 378.87683487 C381.80228337 382.34456002 381.79834561 385.81209151 381.79619408 389.27986526 C381.78976556 391.69593256 381.78303716 394.11199907 381.77602196 396.52806473 C381.76405306 401.5902067 381.76034078 406.65228045 381.76152611 411.71443558 C381.76172936 418.19305247 381.73441819 424.67123102 381.69998169 431.14974403 C381.6777188 436.13925044 381.67368838 441.12865122 381.67474556 446.11820221 C381.67238904 448.50635795 381.66356271 450.89451657 381.64808083 453.28262329 C381.6284325 456.62625263 381.63425499 459.96893474 381.64629173 463.31258011 C381.63505272 464.29362213 381.62381371 465.27466415 381.61223412 466.28543472 C381.677114 473.39655843 383.26741948 478.59828284 387.77275658 484.15486526 C388.5693972 484.8238887 388.5693972 484.8238887 389.38213158 485.50642776 C389.90291283 485.96791214 390.42369408 486.42939651 390.96025658 486.90486526 C397.492032 490.59367369 404.77958457 490.46887659 412.06963158 490.44392776 C413.00742455 490.46004105 413.94521751 490.47615433 414.91142845 490.49275589 C422.39780991 490.49795838 429.41845024 489.47066173 435.50713158 484.81892776 C442.43782153 477.72322138 442.28199473 469.5475212 442.27739525 460.2139473 C442.28075386 459.23105728 442.28411247 458.24816727 442.28757286 457.23549271 C442.29705067 453.99506227 442.29902433 450.75468368 442.30010033 447.51424026 C442.30331493 445.25511529 442.30667915 442.99599053 442.31018639 440.736866 C442.31616959 436.00428663 442.3180271 431.2717255 442.31743431 426.53914261 C442.31733269 420.48439722 442.33098816 414.4297691 442.34820652 408.3750515 C442.35934157 403.70982199 442.36135306 399.04462071 442.36082458 394.37937927 C442.3620023 392.14753566 442.36641236 389.91569126 442.37415695 387.68386078 C442.38398781 384.55839005 442.38106657 381.43317236 442.3750515 378.3076973 C442.38067101 377.39211044 442.38629051 376.47652359 442.39208031 375.53319168 C442.35288897 367.49242848 441.39673933 360.56594835 436.13213158 354.13142776 C428.97002337 348.72330524 422.71433192 348.85408589 414.10063744 348.78133011 C412.67208561 348.76483002 411.2436143 348.73761822 409.81548119 348.69929886 C399.65034607 348.42841703 393.02358972 349.11124704 385.75713158 356.56892776 Z M268.13213158 398.13142776 C268.13213158 411.99142776 268.13213158 425.85142776 268.13213158 440.13142776 C298.16213158 440.13142776 328.19213158 440.13142776 359.13213158 440.13142776 C359.13213158 426.27142776 359.13213158 412.41142776 359.13213158 398.13142776 C329.10213158 398.13142776 299.07213158 398.13142776 268.13213158 398.13142776 Z " fill="#000000" transform="translate(47.867868423461914,-0.13142776489257813)"/>
<path d="M0 0 C0.76493774 -0.00807175 1.52987549 -0.01614349 2.31799316 -0.02445984 C3.93853512 -0.03827198 5.55910583 -0.04900694 7.1796875 -0.05688477 C8.81649463 -0.06834112 10.45326631 -0.08869106 12.08984375 -0.1184082 C27.30457607 -0.39428311 39.47096707 1.56670583 51.15625 12.23828125 C61.36337027 23.67860378 62.15625 33.6626498 62.15625 49.23828125 C92.18625 49.23828125 122.21625 49.23828125 153.15625 49.23828125 C153.15625 45.27828125 153.15625 41.31828125 153.15625 37.23828125 C155.39609462 24.18875174 162.5669418 13.98655554 173.15625 6.23828125 C180.82168015 1.64587749 187.18591665 0.09092537 196.09765625 0 C196.86117905 -0.00807175 197.62470184 -0.01614349 198.41136169 -0.02445984 C200.02592738 -0.03825251 201.64052163 -0.04899608 203.25512695 -0.05688477 C204.88509843 -0.0683532 206.5150339 -0.08872286 208.14477539 -0.1184082 C222.64827379 -0.38205461 234.81234566 1.27058714 246.15625 11.23828125 C253.27226967 18.70941899 258.25233052 27.78618232 258.30342102 38.23890686 C258.31415398 39.75047867 258.31415398 39.75047867 258.32510376 41.29258728 C258.32779266 42.39236404 258.33048157 43.49214081 258.33325195 44.62524414 C258.33982315 45.78834106 258.34639435 46.95143799 258.35316467 48.14978027 C258.3728931 52.00350001 258.38456061 55.85718074 258.39453125 59.7109375 C258.39860678 61.0284796 258.4026823 62.34602169 258.40688133 63.7034893 C258.42592666 69.96069012 258.44015611 76.21787923 258.4484933 82.47510344 C258.45824776 89.67556701 258.4845227 96.87572171 258.52499419 104.07607657 C258.55526538 109.65505407 258.56997274 115.23394361 258.57327431 120.81300157 C258.57561333 124.13842759 258.58642926 127.4634502 258.60973549 130.78880501 C258.63417726 134.50796944 258.63315182 138.22633587 258.6262207 141.94555664 C258.64543579 143.57396736 258.64543579 143.57396736 258.66503906 145.23527527 C258.57980587 157.84694411 254.17561493 166.97058973 245.5 175.953125 C237.30207831 183.55167034 228.34476046 186.377964 217.40234375 186.4765625 C216.54625015 186.48463425 215.69015656 186.49270599 214.80812073 186.50102234 C212.99506641 186.51483901 211.18198634 186.52557195 209.36889648 186.53344727 C207.53125279 186.54492547 205.69364134 186.56531078 203.85620117 186.5949707 C189.81846367 186.82136542 177.98836558 186.22863734 167.15625 176.23828125 C159.30501525 168.47348212 154.85940402 161.1668529 153.15625 150.23828125 C153.15625 145.94828125 153.15625 141.65828125 153.15625 137.23828125 C123.12625 137.23828125 93.09625 137.23828125 62.15625 137.23828125 C62.15625 142.51828125 62.15625 147.79828125 62.15625 153.23828125 C59.13681688 164.27082534 53.73394548 173.66791677 44.15625 180.23828125 C36.60113084 184.23317988 30.27178138 186.39789014 21.71875 186.4765625 C20.8834375 186.48463425 20.048125 186.49270599 19.1875 186.50102234 C17.41554838 186.5148554 15.64357019 186.52558104 13.87158203 186.53344727 C12.0756031 186.54491234 10.27965675 186.56527635 8.48388672 186.5949707 C-7.17231862 186.85373901 -18.73544085 185.10374684 -30.84375 174.23828125 C-43.75951949 160.2202383 -42.42800284 142.75300288 -42.33984375 124.9453125 C-42.33999895 122.3870998 -42.34149141 119.82888687 -42.34425354 117.27067566 C-42.34563269 111.92911392 -42.33360027 106.58782977 -42.31030273 101.24633789 C-42.28366085 95.09601338 -42.28196417 88.94606622 -42.2936911 82.79570371 C-42.30451572 76.84175234 -42.29814313 70.88791471 -42.28413582 64.93396568 C-42.27963714 62.41630128 -42.27927059 59.89862582 -42.28320122 57.38096046 C-42.28612735 53.85897055 -42.26954008 50.33758691 -42.24780273 46.81567383 C-42.25230438 45.7873645 -42.25680603 44.75905518 -42.26144409 43.69958496 C-42.1353252 31.33550974 -38.06550951 20.85216575 -29.84375 11.55078125 C-21.76765266 3.91024871 -10.88212519 0.11024306 0 0 Z M-13.55078125 28.765625 C-18.79715064 35.4579902 -19.14169641 40.6224819 -19.13427734 48.8684082 C-19.14099457 49.93893433 -19.14771179 51.00946045 -19.15463257 52.11242676 C-19.17362623 55.65051926 -19.17753756 59.18842219 -19.1796875 62.7265625 C-19.18611469 65.18889952 -19.19284299 67.65123576 -19.19985962 70.11357117 C-19.21183598 75.27584605 -19.21554009 80.438054 -19.21435547 85.6003418 C-19.21415232 92.20789943 -19.24144975 98.81502679 -19.27589989 105.42248249 C-19.29816261 110.50892601 -19.30219318 115.59526591 -19.30113602 120.68175316 C-19.30349309 123.11735707 -19.31232253 125.5529638 -19.32780075 127.98851967 C-19.34744616 131.39930773 -19.34162737 134.80916695 -19.32958984 138.2199707 C-19.34082886 139.22128525 -19.35206787 140.22259979 -19.36364746 141.2542572 C-19.30844804 147.42459878 -18.36286377 152.08459072 -14.84375 157.23828125 C-12.8017585 159.33775815 -12.8017585 159.33775815 -10.46875 160.67578125 C-9.37433594 161.38541016 -9.37433594 161.38541016 -8.2578125 162.109375 C-2.5080999 164.79815646 3.81076538 164.42115979 10.03125 164.42578125 C10.89105469 164.43802734 11.75085938 164.45027344 12.63671875 164.46289062 C20.65880708 164.48115031 27.80889018 163.59827399 34.15625 158.23828125 C39.272858 152.19593444 39.87619379 146.79851146 39.78735352 139.08398438 C39.79450882 137.99351303 39.80166412 136.90304169 39.80903625 135.77952576 C39.82587746 132.19242842 39.80654575 128.60658887 39.78515625 125.01953125 C39.78598536 122.5166412 39.78844633 120.01375121 39.79246521 117.51086426 C39.79532009 112.27224281 39.7811851 107.03394447 39.75317383 101.79541016 C39.72112638 95.75583053 39.72114094 89.71689684 39.7383886 83.67727137 C39.75430288 77.84555137 39.74738905 72.01406795 39.73045158 66.18235779 C39.72527914 63.71049018 39.72574014 61.23860399 39.73199654 58.76673889 C39.73746451 55.30828234 39.71702078 51.85091094 39.68969727 48.39257812 C39.69622314 47.37727524 39.70274902 46.36197235 39.70947266 45.31590271 C39.61573446 38.31573269 38.39213518 32.51591979 33.33984375 27.3984375 C32.76363281 27.03621094 32.18742187 26.67398437 31.59375 26.30078125 C31.01496094 25.92050781 30.43617188 25.54023438 29.83984375 25.1484375 C24.48064921 22.25123952 18.42199511 22.97730286 12.49707031 22.94311523 C11.11024759 22.93161775 9.72346834 22.91120085 8.33691406 22.8815918 C-0.69617523 22.68882559 -6.66439285 22.60411959 -13.55078125 28.765625 Z M179.78125 30.67578125 C175.87014642 36.84329075 175.85921328 42.72362196 175.86572266 49.79833984 C175.85900543 50.84950485 175.85228821 51.90066986 175.84536743 52.98368835 C175.82640179 56.45141351 175.82246403 59.91894499 175.8203125 63.38671875 C175.81388399 65.80278604 175.80715559 68.21885255 175.80014038 70.63491821 C175.78817148 75.69706019 175.78445921 80.75913394 175.78564453 85.82128906 C175.78584779 92.29990595 175.75853662 98.77808451 175.72410011 105.25659752 C175.70183723 110.24610393 175.6978068 115.2355047 175.69886398 120.22505569 C175.69650746 122.61321143 175.68768113 125.00137006 175.67219925 127.38947678 C175.65255093 130.73310611 175.65837341 134.07578822 175.67041016 137.41943359 C175.65917114 138.40047562 175.64793213 139.38151764 175.63635254 140.39228821 C175.70123243 147.50341192 177.2915379 152.70513633 181.796875 158.26171875 C182.59351563 158.93074219 182.59351563 158.93074219 183.40625 159.61328125 C183.92703125 160.07476562 184.4478125 160.53625 184.984375 161.01171875 C191.51615042 164.70052717 198.80370299 164.57573008 206.09375 164.55078125 C207.03154297 164.56689453 207.96933594 164.58300781 208.93554688 164.59960938 C216.42192833 164.60481186 223.44256867 163.57751521 229.53125 158.92578125 C236.46193995 151.83007487 236.30611315 143.65437468 236.30151367 134.32080078 C236.30487228 133.33791077 236.3082309 132.35502075 236.31169128 131.34234619 C236.32116909 128.10191576 236.32314276 124.86153717 236.32421875 121.62109375 C236.32743335 119.36196878 236.33079758 117.10284402 236.33430481 114.84371948 C236.34028802 110.11114011 236.34214552 105.37857898 236.34155273 100.64599609 C236.34145112 94.5912507 236.35510658 88.53662259 236.37232494 82.48190498 C236.38345999 77.81667547 236.38547148 73.15147419 236.38494301 68.48623276 C236.38612072 66.25438915 236.39053078 64.02254475 236.39827538 61.79071426 C236.40810623 58.66524354 236.40518499 55.54002585 236.39916992 52.41455078 C236.40478943 51.49896393 236.41040894 50.58337708 236.41619873 49.64004517 C236.3770074 41.59928196 235.42085775 34.67280183 230.15625 28.23828125 C222.99414179 22.83015873 216.73845034 22.96093937 208.12475586 22.88818359 C206.69620403 22.8716835 205.26773273 22.84447171 203.83959961 22.80615234 C193.67446449 22.53527051 187.04770815 23.21810052 179.78125 30.67578125 Z M62.15625 72.23828125 C62.15625 86.09828125 62.15625 99.95828125 62.15625 114.23828125 C92.18625 114.23828125 122.21625 114.23828125 153.15625 114.23828125 C153.15625 100.37828125 153.15625 86.51828125 153.15625 72.23828125 C123.12625 72.23828125 93.09625 72.23828125 62.15625 72.23828125 Z " fill="#32CBCB" transform="translate(253.84375,325.76171875)"/>
<path d="M0 0 C3.57623788 1.9137306 5.69762236 4.09286708 7 8 C7.4534597 11.30377783 7.67035166 13.84464493 5.95266724 16.80508423 C1.75869826 22.27712158 -2.87358001 27.1643084 -7.7578125 32.0234375 C-8.58328583 32.85082428 -9.40875916 33.67821106 -10.25924683 34.53067017 C-11.99312906 36.2659057 -13.72950868 37.99864908 -15.46826172 39.72900391 C-18.13092867 42.38090469 -20.78268609 45.04338119 -23.43359375 47.70703125 C-25.12435863 49.39647545 -26.81574331 51.08529964 -28.5078125 52.7734375 C-29.29954865 53.56922211 -30.09128479 54.36500671 -30.90701294 55.18490601 C-32.01869339 56.28712997 -32.01869339 56.28712997 -33.15283203 57.41162109 C-33.80091827 58.05811615 -34.44900452 58.70461121 -35.11672974 59.37069702 C-38.96924055 62.7036798 -42.50896477 63.67838021 -47.53686523 63.46582031 C-50.4061237 62.92319516 -51.45774025 62.1375741 -53.58203125 60.16796875 C-54.27022949 59.5330249 -54.95842773 58.89808105 -55.66748047 58.24389648 C-59.7944268 54.27375166 -63.89908136 50.28689228 -67.94799805 46.23730469 C-69.4541008 44.73342369 -70.96808355 43.23777015 -72.48242188 41.7421875 C-73.4457996 40.78173834 -74.40870809 39.82081823 -75.37109375 38.859375 C-76.23661865 37.99795898 -77.10214355 37.13654297 -77.99389648 36.24902344 C-80.58840409 33.34034581 -80.96327378 31.49580399 -81.25 27.625 C-80.97926023 23.69927335 -80.44616236 22.03661534 -78 19 C-75.09799637 16.66227486 -73.27699106 16.03525341 -69.5625 15.5625 C-62.22161915 16.46401168 -57.56535338 22.17556605 -52.625 27.25 C-51.98433594 27.8996875 -51.34367187 28.549375 -50.68359375 29.21875 C-49.11770636 30.80800885 -47.55671491 32.40176417 -46 34 C-43.05594663 32.67376757 -40.99518106 31.23786345 -38.73193359 28.94311523 C-37.81110489 28.0172184 -37.81110489 28.0172184 -36.87167358 27.07261658 C-36.22050568 26.40798904 -35.56933777 25.74336151 -34.8984375 25.05859375 C-33.88192612 24.03428001 -33.88192612 24.03428001 -32.84487915 22.98927307 C-30.68344708 20.81004522 -28.52882592 18.62424361 -26.375 16.4375 C-24.21317054 14.2480717 -22.04990831 12.06010899 -19.88369751 9.87501526 C-18.5365137 8.51555439 -17.19201179 7.1534297 -15.85043335 5.78843689 C-14.93906113 4.8672683 -14.93906113 4.8672683 -14.00927734 3.92749023 C-13.2079689 3.11380226 -13.2079689 3.11380226 -12.39047241 2.28367615 C-8.89907569 -0.93956126 -4.48102735 -0.68418371 0 0 Z " fill="#33CBCB" transform="translate(228,196)"/>
<path d="M0 0 C3.57623788 1.9137306 5.69762236 4.09286708 7 8 C7.4534597 11.30377783 7.67035166 13.84464493 5.95266724 16.80508423 C1.75869826 22.27712158 -2.87358001 27.1643084 -7.7578125 32.0234375 C-8.58328583 32.85082428 -9.40875916 33.67821106 -10.25924683 34.53067017 C-11.99312906 36.2659057 -13.72950868 37.99864908 -15.46826172 39.72900391 C-18.13092867 42.38090469 -20.78268609 45.04338119 -23.43359375 47.70703125 C-25.12435863 49.39647545 -26.81574331 51.08529964 -28.5078125 52.7734375 C-29.29954865 53.56922211 -30.09128479 54.36500671 -30.90701294 55.18490601 C-32.01869339 56.28712997 -32.01869339 56.28712997 -33.15283203 57.41162109 C-33.80091827 58.05811615 -34.44900452 58.70461121 -35.11672974 59.37069702 C-38.96924055 62.7036798 -42.50896477 63.67838021 -47.53686523 63.46582031 C-50.4061237 62.92319516 -51.45774025 62.1375741 -53.58203125 60.16796875 C-54.27022949 59.5330249 -54.95842773 58.89808105 -55.66748047 58.24389648 C-59.7944268 54.27375166 -63.89908136 50.28689228 -67.94799805 46.23730469 C-69.4541008 44.73342369 -70.96808355 43.23777015 -72.48242188 41.7421875 C-73.4457996 40.78173834 -74.40870809 39.82081823 -75.37109375 38.859375 C-76.23661865 37.99795898 -77.10214355 37.13654297 -77.99389648 36.24902344 C-80.58840409 33.34034581 -80.96327378 31.49580399 -81.25 27.625 C-80.97926023 23.69927335 -80.44616236 22.03661534 -78 19 C-75.09799637 16.66227486 -73.27699106 16.03525341 -69.5625 15.5625 C-62.22161915 16.46401168 -57.56535338 22.17556605 -52.625 27.25 C-51.98433594 27.8996875 -51.34367187 28.549375 -50.68359375 29.21875 C-49.11770636 30.80800885 -47.55671491 32.40176417 -46 34 C-43.05594663 32.67376757 -40.99518106 31.23786345 -38.73193359 28.94311523 C-37.81110489 28.0172184 -37.81110489 28.0172184 -36.87167358 27.07261658 C-36.22050568 26.40798904 -35.56933777 25.74336151 -34.8984375 25.05859375 C-33.88192612 24.03428001 -33.88192612 24.03428001 -32.84487915 22.98927307 C-30.68344708 20.81004522 -28.52882592 18.62424361 -26.375 16.4375 C-24.21317054 14.2480717 -22.04990831 12.06010899 -19.88369751 9.87501526 C-18.5365137 8.51555439 -17.19201179 7.1534297 -15.85043335 5.78843689 C-14.93906113 4.8672683 -14.93906113 4.8672683 -14.00927734 3.92749023 C-13.2079689 3.11380226 -13.2079689 3.11380226 -12.39047241 2.28367615 C-8.89907569 -0.93956126 -4.48102735 -0.68418371 0 0 Z " fill="#33CBCB" transform="translate(228,74)"/>
<path d="M0 0 C0.84926056 -0.00671722 1.69852112 -0.01343445 2.57351685 -0.02035522 C5.37996274 -0.03934721 8.18616963 -0.04326002 10.99267578 -0.04541016 C12.94556781 -0.05183724 14.89845887 -0.05856553 16.85134888 -0.06558228 C20.94519279 -0.07755803 25.0389523 -0.08126279 29.1328125 -0.08007812 C34.37413951 -0.07987492 39.61492442 -0.10717767 44.85612297 -0.14162254 C48.88992795 -0.16387908 52.92360221 -0.16791605 56.95746231 -0.16685867 C58.88953647 -0.16921648 60.82161414 -0.17805014 62.75362778 -0.19352341 C65.45853192 -0.21315818 68.16226377 -0.2073554 70.8671875 -0.1953125 C71.66219666 -0.20655151 72.45720581 -0.21779053 73.27630615 -0.22937012 C78.48554918 -0.17054731 81.40600703 0.88489734 85.56298828 4.29052734 C88.14943293 7.69993165 87.92801943 11.12917224 87.56298828 15.29052734 C85.73820335 19.51634508 83.68862013 21.33739345 79.56298828 23.29052734 C76.6110965 23.58604693 73.87101088 23.72119249 70.9206543 23.71044922 C69.63191406 23.72315353 69.63191406 23.72315353 68.31713867 23.7361145 C65.48357244 23.75946959 62.65054965 23.76050705 59.81689453 23.75927734 C57.84301029 23.7663796 55.86912811 23.77407869 53.89524841 23.78234863 C49.76026671 23.79578986 45.62547594 23.7973637 41.49047852 23.79150391 C36.19635194 23.78560686 30.9031421 23.81620143 25.60919285 23.85662079 C21.5333311 23.88249229 17.45769028 23.88537572 13.38175774 23.88172913 C11.43014153 23.88342075 9.47851516 23.89306734 7.52697945 23.91087341 C4.79560401 23.93305348 2.06608684 23.92336676 -0.6652832 23.90576172 C-1.86946648 23.92565659 -1.86946648 23.92565659 -3.09797668 23.94595337 C-8.87143592 23.85965504 -11.40469215 22.43876922 -15.43701172 18.29052734 C-17.16826293 14.82802491 -16.91516396 11.07644506 -16.43701172 7.29052734 C-12.32451471 0.38740736 -7.55402474 -0.00856854 0 0 Z " fill="#000000" transform="translate(277.43701171875,219.70947265625)"/>
<path d="M0 0 C0.84926056 -0.00671722 1.69852112 -0.01343445 2.57351685 -0.02035522 C5.37996274 -0.03934721 8.18616963 -0.04326002 10.99267578 -0.04541016 C12.94556781 -0.05183724 14.89845887 -0.05856553 16.85134888 -0.06558228 C20.94519279 -0.07755803 25.0389523 -0.08126279 29.1328125 -0.08007812 C34.37413951 -0.07987492 39.61492442 -0.10717767 44.85612297 -0.14162254 C48.88992795 -0.16387908 52.92360221 -0.16791605 56.95746231 -0.16685867 C58.88953647 -0.16921648 60.82161414 -0.17805014 62.75362778 -0.19352341 C65.45853192 -0.21315818 68.16226377 -0.2073554 70.8671875 -0.1953125 C71.66219666 -0.20655151 72.45720581 -0.21779053 73.27630615 -0.22937012 C78.48554918 -0.17054731 81.40600703 0.88489734 85.56298828 4.29052734 C88.14943293 7.69993165 87.92801943 11.12917224 87.56298828 15.29052734 C85.73820335 19.51634508 83.68862013 21.33739345 79.56298828 23.29052734 C76.6110965 23.58604693 73.87101088 23.72119249 70.9206543 23.71044922 C69.63191406 23.72315353 69.63191406 23.72315353 68.31713867 23.7361145 C65.48357244 23.75946959 62.65054965 23.76050705 59.81689453 23.75927734 C57.84301029 23.7663796 55.86912811 23.77407869 53.89524841 23.78234863 C49.76026671 23.79578986 45.62547594 23.7973637 41.49047852 23.79150391 C36.19635194 23.78560686 30.9031421 23.81620143 25.60919285 23.85662079 C21.5333311 23.88249229 17.45769028 23.88537572 13.38175774 23.88172913 C11.43014153 23.88342075 9.47851516 23.89306734 7.52697945 23.91087341 C4.79560401 23.93305348 2.06608684 23.92336676 -0.6652832 23.90576172 C-1.86946648 23.92565659 -1.86946648 23.92565659 -3.09797668 23.94595337 C-8.87143592 23.85965504 -11.40469215 22.43876922 -15.43701172 18.29052734 C-17.16826293 14.82802491 -16.91516396 11.07644506 -16.43701172 7.29052734 C-12.32451471 0.38740736 -7.55402474 -0.00856854 0 0 Z " fill="#000000" transform="translate(277.43701171875,97.70947265625)"/>
</svg>
