<?xml version="1.0" encoding="UTF-8"?>
<svg version="1.1" xmlns="http://www.w3.org/2000/svg" width="512" height="512">
<path d="M0 0 C0.88300781 -0.02835938 1.76601563 -0.05671875 2.67578125 -0.0859375 C11.38903619 1.24760865 16.87322341 6.9879893 22.80981445 12.99560547 C24.12107048 14.29875702 24.12107048 14.29875702 25.45881653 15.62823486 C27.83794047 17.99704272 30.20781722 20.37439334 32.57347512 22.75660467 C35.05879555 25.25584927 37.55433917 27.74485104 40.04838562 30.23538208 C44.23208277 34.41638366 48.40765246 38.60536865 52.57836914 42.79931641 C57.39287341 47.64045237 62.21971618 52.46900952 67.0534156 57.2909745 C71.71528147 61.94204499 76.36859801 66.60157833 81.01799583 71.26511002 C82.99169212 73.24454821 84.9682528 75.22105834 86.94719887 77.19524765 C89.71096985 79.95334088 92.46214925 82.72378718 95.2121582 85.49560547 C96.43947662 86.71617142 96.43947662 86.71617142 97.69158936 87.96139526 C103.59994438 93.94779408 107.10996384 98.54656642 107.1875 107.25 C107.23390625 108.97863281 107.23390625 108.97863281 107.28125 110.7421875 C105.86015923 119.4370192 99.07479907 125.42545689 93.06103516 131.40551758 C92.20348129 132.26993469 91.34592743 133.13435181 90.46238708 134.02496338 C88.12700926 136.37542356 85.78514219 138.71899393 83.43936205 141.05904603 C81.47578047 143.01952098 79.51683145 144.98459308 77.55781686 146.94962996 C72.93532231 151.58612855 68.3051282 156.21483523 63.66992188 160.83862305 C58.89853692 165.59851306 54.14010087 170.37107104 49.38786662 175.15007478 C45.29474009 179.26538672 41.19386641 183.37286349 37.0867008 187.47416419 C34.63911724 189.91838593 32.19448299 192.36537667 29.75722122 194.81989479 C27.04035978 197.55515403 24.30739869 200.27396969 21.57275391 202.99145508 C20.77356033 203.80031662 19.97436676 204.60917816 19.1509552 205.44255066 C13.47828846 211.04096076 8.55935471 214.80015326 0.25 214.8125 C-6.24192015 214.59047811 -10.63768135 212.95632984 -15.32421875 208.43359375 C-20.05710579 203.22069788 -21.4870407 199.81922522 -21.6875 192.6875 C-21.73648438 191.50800781 -21.78546875 190.32851563 -21.8359375 189.11328125 C-20.47684883 179.40695399 -12.21179444 172.87620998 -5.54296875 166.3125 C-4.49570567 165.27084306 -3.44911103 164.2285137 -2.40315247 163.18554688 C0.33070005 160.46306302 3.07344406 157.7497162 5.8182373 155.03826904 C8.62586338 152.26151727 11.42485042 149.47608618 14.22460938 146.69140625 C19.70389258 141.2441461 25.19261266 135.80652403 30.6875 130.375 C29.63835922 130.37261165 28.58921844 130.37022329 27.50828552 130.36776257 C1.97744247 130.30896151 -23.55330626 130.23307486 -49.08404541 130.13928509 C-61.43053331 130.09432433 -73.77699234 130.05491024 -86.12353516 130.02856445 C-96.8850901 130.00558672 -107.64655372 129.97219107 -118.40803623 129.92629844 C-124.10586972 129.90236334 -129.80361275 129.88363638 -135.50149536 129.87738609 C-140.86621684 129.87133663 -146.23070685 129.85134143 -151.59534264 129.82072449 C-153.56251099 129.81194211 -155.52970958 129.80822209 -157.49689674 129.80999184 C-160.187488 129.81164789 -162.87737642 129.79491702 -165.56787109 129.77372742 C-166.34221276 129.77857499 -167.11655443 129.78342257 -167.914361 129.78841704 C-175.98635443 129.68385461 -182.55492 127.26343409 -188.3125 121.375 C-192.87353 115.28418354 -193.26908771 108.7686258 -192.3125 101.375 C-190.72823303 95.4538022 -187.3809446 92.13310358 -182.5078125 88.6015625 C-177.07540163 85.56637208 -171.92549433 85.08135729 -165.80838013 85.0965271 C-164.96612534 85.0907347 -164.12387056 85.0849423 -163.25609291 85.07897437 C-160.44168558 85.0620067 -157.62744257 85.05910064 -154.81298828 85.05615234 C-152.79242045 85.04685194 -150.77185645 85.0366831 -148.751297 85.02571106 C-143.27043028 84.99840969 -137.78958927 84.98326118 -132.30867243 84.97028303 C-126.57911385 84.95465315 -120.84960777 84.92786245 -115.12008667 84.9022522 C-104.27239545 84.85546194 -93.42469435 84.81871898 -82.57695377 84.78557932 C-70.22635209 84.74735973 -57.87580314 84.69794911 -45.5252459 84.64759517 C-20.12103634 84.54427161 5.28320708 84.45501254 30.6875 84.375 C30.09503479 83.78919662 29.50256958 83.20339325 28.89215088 82.59983826 C23.29368346 77.06163179 17.70257304 71.51612357 12.11948013 65.96241665 C9.24931372 63.10786602 6.37644121 60.2561569 3.49707031 57.41088867 C0.71530443 54.66186224 -2.0589398 51.90544392 -4.8282547 49.14387703 C-5.8829043 48.09474483 -6.94017878 47.04824413 -8.00017548 46.00451469 C-20.74036604 33.45201756 -20.74036604 33.45201756 -21.80859375 25.83984375 C-21.78925781 24.67582031 -21.76992188 23.51179688 -21.75 22.3125 C-21.74806641 20.56259766 -21.74806641 20.56259766 -21.74609375 18.77734375 C-21.02032402 13.08233984 -18.77915074 9.30780101 -14.4375 5.625 C-13.78007812 5.05265625 -13.12265625 4.4803125 -12.4453125 3.890625 C-8.4558328 1.05561012 -4.86426987 0.07039464 0 0 Z " fill="#000000" transform="translate(341.3125,148.625)"/>
<path d="M0 0 C2.8291426 -0.00661473 5.6548652 -0.06141774 8.48339844 -0.11791992 C24.81003941 -0.27025239 24.81003941 -0.27025239 31.03100586 4.92138672 C36.1196373 10.32820904 37.87378634 14.01400908 38.13183594 21.6184082 C37.85083116 28.54739434 36.84615489 32.22473443 31.92089844 37.23168945 C26.37521098 42.30514588 21.86411785 43.79150324 14.28417969 43.86450195 C12.85123342 43.88969113 11.41829081 43.91508866 9.98535156 43.94067383 C7.75660423 43.96918191 5.52792119 43.99322866 3.29907227 44.01220703 C-11.10872795 44.15845464 -24.14885902 45.45245731 -35.43066406 55.30200195 C-44.40523824 64.60538596 -46.58372747 76.34131644 -46.57110596 88.77651978 C-46.57407708 89.69606237 -46.5770482 90.61560496 -46.58010936 91.56301248 C-46.58877035 94.63959246 -46.59030241 97.71613341 -46.59179688 100.79272461 C-46.59642692 103.00071292 -46.60145183 105.20870043 -46.60684204 107.41668701 C-46.61995085 113.41281368 -46.62640815 119.40892916 -46.6308527 125.40506792 C-46.63378613 129.15372778 -46.63789148 132.90238461 -46.64235687 136.65104294 C-46.65446286 147.04308479 -46.66484563 157.43512449 -46.66823196 167.82717323 C-46.66845153 168.4916239 -46.6686711 169.15607458 -46.66889732 169.84066012 C-46.66911559 170.50664425 -46.66933387 171.17262838 -46.66955876 171.85879385 C-46.67000222 173.20819004 -46.67044878 174.55758623 -46.67089844 175.90698242 C-46.67123058 176.91098973 -46.67123058 176.91098973 -46.67156944 177.93528001 C-46.67551408 188.77118777 -46.69295949 199.60702815 -46.71625796 210.44290991 C-46.7400203 221.58507897 -46.75217851 232.72722353 -46.75359988 243.86942041 C-46.75464636 250.11840668 -46.76052085 256.36729786 -46.77841949 262.61626053 C-46.79493904 268.49810744 -46.79703676 274.37978819 -46.78828049 280.26165009 C-46.78751217 282.4142209 -46.79182557 284.56680079 -46.80173874 286.71934891 C-46.86990608 302.45035614 -46.78520538 317.27380688 -35.57910156 329.59106445 C-23.46307613 340.95888911 -8.2783555 340.89566074 7.36108398 340.93676758 C24.48502397 341.01229493 24.48502397 341.01229493 31.84667969 347.59106445 C32.39453125 348.26008789 32.94238281 348.92911133 33.50683594 349.6184082 C34.07273437 350.29000977 34.63863281 350.96161133 35.22167969 351.65356445 C38.8738496 356.80894633 38.06133194 363.53787012 37.56933594 369.5559082 C35.84726653 376.35643707 31.34021587 379.94598547 25.56933594 383.5559082 C22.21692447 385.23211394 18.43761797 384.76243936 14.74902344 384.79418945 C13.85756622 384.8022612 12.96610901 384.81033295 12.04763794 384.81864929 C10.14945423 384.83250849 8.25124541 384.8432224 6.35302734 384.85107422 C4.43888897 384.86248129 2.52477947 384.88274904 0.61083984 384.91259766 C-14.6079628 385.14985298 -28.96904893 384.24895786 -42.68066406 376.8684082 C-43.33558838 376.52737061 -43.9905127 376.18633301 -44.6652832 375.83496094 C-61.48630709 366.802397 -73.80700419 353.73096239 -82.61816406 336.9309082 C-82.93922119 336.34108154 -83.26027832 335.75125488 -83.59106445 335.14355469 C-90.99397863 320.44290852 -91.01121808 305.00712167 -90.94824219 288.9621582 C-90.95367295 286.6212521 -90.96080093 284.28034943 -90.96948242 281.93945312 C-90.98760505 275.62539165 -90.98069406 269.31159373 -90.96796608 262.99752808 C-90.95881598 257.03815716 -90.9658291 251.07880947 -90.97167486 245.11943913 C-90.98304127 232.59753522 -90.97002916 220.07574906 -90.94847339 207.55386448 C-90.93060597 196.84354934 -90.93371119 186.13340771 -90.95214844 175.4230957 C-90.97362518 162.9415375 -90.98194301 150.4600821 -90.96969938 137.978508 C-90.9634078 131.38749357 -90.96255909 124.79657541 -90.97584534 118.20556641 C-90.98747014 112.00668549 -90.97925748 105.80812956 -90.95626831 99.60928345 C-90.9510165 97.34551531 -90.95243381 95.08171944 -90.96131897 92.81796265 C-91.01693527 77.19815077 -90.29801682 62.31201479 -82.68066406 48.2434082 C-82.33559814 47.58445557 -81.99053223 46.92550293 -81.63500977 46.24658203 C-70.10428495 24.76880742 -52.02447355 10.01461004 -28.85009766 2.74658203 C-19.28726239 0.15558623 -9.85563928 -0.00258001 0 0 Z " fill="#000000" transform="translate(154.4306640625,63.444091796875)"/>
</svg>
