<?xml version="1.0" encoding="UTF-8"?>
<svg version="1.1" xmlns="http://www.w3.org/2000/svg" width="512" height="512">
<path d="M0 0 C6.72724586 1.48159581 12.82598855 3.21024218 17 9 C20.94988788 15.37078691 19.60792852 19.92577318 18 27 C17.08601436 30.4542004 16.04342647 33.85697646 14.9609375 37.26171875 C14.67521881 38.17838821 14.38950012 39.09505768 14.09512329 40.039505 C13.19449786 42.92411622 12.28493042 45.80581219 11.375 48.6875 C10.75721483 50.66062026 10.14002211 52.63392612 9.5234375 54.60742188 C8.02245352 59.40711704 6.51345163 64.2042223 5 69 C6.26585937 68.83991455 7.53171875 68.6798291 8.8359375 68.51489258 C25.00183693 66.47049071 39.48617814 69.88737726 52.39453125 79.84765625 C57.70904055 84.28082072 61.56994584 89.0073763 65 95 C65.4640625 95.80566406 65.928125 96.61132812 66.40625 97.44140625 C73.18062185 110.02519582 73.67943646 124.01240893 70.08984375 137.7421875 C65.73221202 150.76822644 57.19574458 162.15640771 45.10546875 169.01171875 C30.75601483 175.74717671 15.1094074 177.6540768 -0.00390625 172.2578125 C-8.89188557 168.5264835 -15.58102214 164.24663976 -22 157 C-22.64910154 158.58199631 -23.29414694 160.16565724 -23.9375 161.75 C-24.29714844 162.63171875 -24.65679687 163.5134375 -25.02734375 164.421875 C-25.85356576 166.61186104 -26.49369943 168.71898271 -27 171 C-26.06462402 171.10417236 -25.12924805 171.20834473 -24.16552734 171.31567383 C-19.09788596 172.04462027 -14.25653003 173.51265524 -9.3515625 174.94921875 C-7.83361588 175.39186821 -7.83361588 175.39186821 -6.28500366 175.84346008 C-4.15109214 176.46859791 -2.01801826 177.0966013 0.11425781 177.72729492 C3.35335876 178.68112721 6.59824046 179.6131672 9.84375 180.54492188 C11.92487413 181.15751398 14.00561657 181.77140456 16.0859375 182.38671875 C17.04559418 182.65884689 18.00525085 182.93097504 18.99398804 183.21134949 C29.24142188 186.3000863 37.8016374 191.56113815 43.16317749 201.06097412 C44.29653838 203.34575997 45.33733813 205.65384209 46.35546875 207.9921875 C46.93143044 209.2757312 46.93143044 209.2757312 47.51902771 210.58520508 C48.7533776 213.34349821 49.97072043 216.1089171 51.1875 218.875 C52.03272367 220.77403128 52.8789195 222.67263015 53.72607422 224.57080078 C55.79135191 229.20552953 57.84297252 233.8461516 59.89044189 238.48876953 C61.19263631 241.43598814 62.50423047 244.37891968 63.8184967 247.32077026 C65.09138568 250.17038124 66.35852284 253.02253464 67.625 255.875 C68.06739014 256.86999512 68.50978027 257.86499023 68.96557617 258.89013672 C69.36107666 259.79006348 69.75657715 260.68999023 70.1640625 261.6171875 C70.49873535 262.37628418 70.8334082 263.13538086 71.17822266 263.91748047 C73.60786073 270.07458469 73.85960866 276.16834795 71.9375 282.5 C68.20074435 290.06041259 61.94228415 296.2439187 56.3125 302.40625 C53.99803784 305.0022008 51.80501577 307.66555183 49.625 310.375 C45.9470594 314.92436903 42.08276789 319.2314021 38.09521484 323.50585938 C34.99444054 326.85134579 32.09429849 330.30511516 29.25 333.875 C23.53765778 340.91650177 18.76946182 345.36916145 10 348 C9.01 348 8.02 348 7 348 C7.21092285 348.63164062 7.4218457 349.26328125 7.63916016 349.9140625 C18.55511923 382.7981671 24.14795147 414.87850337 27.75 449.25 C27.91956711 450.84338699 27.91956711 450.84338699 28.09255981 452.46896362 C31.92811675 488.81215558 31.92811675 488.81215558 24.421875 499.1796875 C19.47067199 505.26832904 13.75806924 509.24345602 6 511 C-2.65044624 511.80753812 -8.9242124 511.15081491 -15.71484375 505.59765625 C-23.57328374 497.73921626 -23.62418764 484.61975929 -24.83112717 474.16126442 C-25.09388036 471.88832161 -25.36697832 469.6168129 -25.64248657 467.34538269 C-26.32588999 461.69609944 -26.99481045 456.04513082 -27.65948486 450.39361572 C-30.64081353 425.0474979 -34.01776753 400.06996038 -41.1875 375.5 C-41.8705344 373.11516804 -42.55157525 370.72976406 -43.23046875 368.34375 C-43.53903809 367.25964844 -43.84760742 366.17554688 -44.16552734 365.05859375 C-45.25553712 361.06337945 -46.1554913 357.05364177 -47 353 C-47.78503906 352.80664062 -48.57007813 352.61328125 -49.37890625 352.4140625 C-50.95478516 352.02347656 -50.95478516 352.02347656 -52.5625 351.625 C-53.59503906 351.36976563 -54.62757813 351.11453125 -55.69140625 350.8515625 C-59.14676117 349.96222676 -62.57107943 348.98579242 -66 348 C-66.24373352 348.8490239 -66.48746704 349.69804779 -66.73858643 350.57279968 C-67.70918216 353.95353603 -68.67987982 357.33424307 -69.65065575 360.71492767 C-70.10459884 362.29578746 -70.55851834 363.87665402 -71.01241493 365.45752716 C-73.79766126 375.15786076 -76.58603217 384.85728346 -79.38061523 394.55493164 C-80.44525545 398.25013231 -81.50976139 401.94537165 -82.57421875 405.640625 C-82.84191511 406.56976652 -83.10961147 407.49890804 -83.38541985 408.45620537 C-86.74262482 420.11163638 -90.07669915 431.77324362 -93.37802124 443.44462585 C-94.95574846 449.02137828 -96.54395634 454.59512702 -98.13531303 460.16800404 C-99.20231501 463.90715133 -100.26341629 467.64776298 -101.31091309 471.39242554 C-102.29147164 474.89774177 -103.28669845 478.3985601 -104.29300499 481.8965683 C-104.82557852 483.76249225 -105.34231521 485.63291435 -105.85835266 487.503479 C-108.67348523 497.20544397 -112.13579358 504.99429695 -121.16796875 510.125 C-127.72784466 513.25807506 -135.97730154 512.98558791 -142.93359375 511.28125 C-151.14058605 508.18332901 -156.125783 503.89192352 -160 496 C-163.2187017 485.20545956 -159.31592124 474.79019824 -156.26171875 464.421875 C-155.75223767 462.65601243 -155.24395902 460.88980257 -154.73678589 459.12327576 C-153.64372128 455.32560917 -152.54235049 451.53048963 -151.43435669 447.7371521 C-149.65613547 441.64919678 -147.89609175 435.55607525 -146.13842773 429.4621582 C-143.66980898 420.90912678 -141.19329373 412.35841934 -138.71191406 403.80908203 C-135.18950709 391.66940165 -131.69492853 379.52184812 -128.2109375 367.37109375 C-127.93604555 366.4125178 -127.6611536 365.45394184 -127.37793159 364.46631813 C-126.26936809 360.60058928 -125.160861 356.73484428 -124.05255222 352.8690424 C-121.2703891 343.16585588 -118.48123171 333.46468355 -115.69172859 323.76360512 C-110.98888036 307.40823273 -106.29268467 291.05096783 -101.60313225 274.69177818 C-99.78254067 268.34145001 -97.96099056 261.99139671 -96.13945484 255.6413393 C-94.69979444 250.62219279 -93.26074171 245.60287397 -91.82327271 240.58309937 C-81.84466522 205.73955418 -71.67013271 170.97172798 -60.76528549 136.40576553 C-59.65244316 132.8762121 -58.54277427 129.34566103 -57.43286133 125.81518555 C-56.03971804 121.38421503 -54.64638125 116.95330623 -53.25172424 112.52281189 C-50.14581167 102.65466386 -47.0527122 92.78257181 -43.96822357 82.90770721 C-43.25660552 80.62973442 -42.54465661 78.35186532 -41.83258057 76.07403564 C-41.48363865 74.95781578 -41.48363865 74.95781578 -41.1276474 73.81904602 C-40.66228958 72.3304667 -40.19692201 70.84189043 -39.73154449 69.35331726 C-38.61289937 65.77474727 -37.49496348 62.19595908 -36.37872314 58.61663818 C-33.97872093 50.92251849 -31.56487194 43.23306641 -29.12542725 35.55133057 C-28.37474772 33.18253138 -27.62837122 30.81236427 -26.8862915 28.44085693 C-25.84035797 25.10572584 -24.77630111 21.77692969 -23.70703125 18.44921875 C-23.40455978 17.4729805 -23.10208832 16.49674225 -22.79045105 15.49092102 C-18.80800867 3.27595131 -13.00467072 -1.23058216 0 0 Z M21 245 C19.01548601 252.09886423 17.04151106 259.20056958 15.0809164 266.30607986 C14.17018814 269.60541808 13.25586825 272.90367155 12.33325195 276.19970703 C11.27257924 279.98955837 10.22768367 283.78367006 9.18359375 287.578125 C8.85032578 288.76053772 8.5170578 289.94295044 8.1736908 291.16119385 C7.87330399 292.26203308 7.57291718 293.36287231 7.26342773 294.49707031 C6.86038673 295.94935028 6.86038673 295.94935028 6.44920349 297.43096924 C5.99395197 300.03458919 6.13685938 301.53107614 7 304 C16.01742305 295.1656495 16.01742305 295.1656495 24.46875 285.796875 C25.51633112 284.56757062 26.60234187 283.37027895 27.71875 282.203125 C28.53859375 281.32914062 28.53859375 281.32914062 29.375 280.4375 C29.85710937 279.94121094 30.33921875 279.44492187 30.8359375 278.93359375 C32.63835707 275.93964179 33.26256149 273.44099727 33 270 C31.72776886 265.7265413 29.98290003 261.70169992 28.1875 257.625 C27.72279297 256.52027344 27.25808594 255.41554687 26.77929688 254.27734375 C24.89775973 248.77545356 24.89775973 248.77545356 21 245 Z " fill="#000000" transform="translate(300,0)"/>
</svg>
