<?xml version="1.0" encoding="UTF-8"?>
<svg version="1.1" xmlns="http://www.w3.org/2000/svg" width="512" height="512">
<path d="M0 0 C40.73258691 37.09857902 66.02515215 90.53183589 68.75683594 145.60009766 C70.46911078 184.8857584 62.61938029 223.95939121 43.75683594 258.60009766 C43.14324219 259.75380859 42.52964844 260.90751953 41.89746094 262.09619141 C27.49284562 288.31616269 7.05064607 312.08682667 -17.24316406 329.60009766 C-17.9023584 330.07656738 -18.56155273 330.55303711 -19.24072266 331.04394531 C-52.54584237 354.81094233 -93.02816562 370.48868197 -134.24316406 371.60009766 C-135.01821289 371.62587891 -135.79326172 371.65166016 -136.59179688 371.67822266 C-180.75613241 372.99117206 -226.68136159 362.22700522 -263.24316406 336.60009766 C-264.31050781 335.87693359 -265.37785156 335.15376953 -266.47753906 334.40869141 C-313.03740944 302.43928231 -344.83886952 253.24775475 -355.77050781 197.93164062 C-356.7619772 192.50826211 -357.55807139 187.06992121 -358.24316406 181.60009766 C-358.37464844 180.61009766 -358.50613281 179.62009766 -358.64160156 178.60009766 C-363.12305844 136.93466072 -354.23664782 93.31775297 -334.24316406 56.60009766 C-333.62957031 55.44638672 -333.01597656 54.29267578 -332.38378906 53.10400391 C-305.22592932 3.66996582 -258.22764969 -32.77774766 -204.27685547 -48.56396484 C-131.67349184 -68.56991343 -55.96347388 -49.91545887 0 0 Z M-280.24316406 21.60009766 C-281.02304687 22.32712891 -281.80292969 23.05416016 -282.60644531 23.80322266 C-308.698138 48.8290025 -325.60253834 83.62498533 -333.24316406 118.60009766 C-333.406875 119.31230469 -333.57058594 120.02451172 -333.73925781 120.75830078 C-338.94510682 144.31369196 -338.77702214 173.13216402 -333.24316406 196.60009766 C-333.0444873 197.46376953 -332.84581055 198.32744141 -332.64111328 199.21728516 C-325.4149682 229.78902105 -311.74377777 256.10503639 -292.24316406 280.60009766 C-291.80020996 281.16631836 -291.35725586 281.73253906 -290.90087891 282.31591797 C-289.72791815 283.78222629 -288.49001429 285.19608143 -287.24316406 286.60009766 C-286.58316406 286.60009766 -285.92316406 286.60009766 -285.24316406 286.60009766 C-284.83066406 285.60751953 -284.41816406 284.61494141 -283.99316406 283.59228516 C-276.19001321 265.10848567 -266.07789415 249.23298525 -252.24316406 234.60009766 C-251.54707031 233.85115234 -250.85097656 233.10220703 -250.13378906 232.33056641 C-234.60511696 216.15014347 -215.06874556 205.41302388 -194.24316406 197.60009766 C-194.24316406 196.94009766 -194.24316406 196.28009766 -194.24316406 195.60009766 C-195.71460675 194.31221523 -197.24773556 193.09439439 -198.80566406 191.91259766 C-216.36504613 178.07718566 -226.53225507 158.66339248 -229.99316406 136.60009766 C-230.1079053 135.26909928 -230.18596222 133.93480743 -230.24316406 132.60009766 C-230.29472656 131.52759766 -230.34628906 130.45509766 -230.39941406 129.35009766 C-230.97588116 106.29141379 -223.5121686 85.025412 -208.24316406 67.60009766 C-207.65019531 66.91173828 -207.05722656 66.22337891 -206.44628906 65.51416016 C-192.09421926 49.99675136 -170.04318079 41.52960245 -149.25097656 40.44384766 C-126.09869328 39.81385355 -104.71625814 47.28922592 -87.24316406 62.60009766 C-86.55480469 63.19306641 -85.86644531 63.78603516 -85.15722656 64.39697266 C-69.85710572 78.54807256 -61.27678994 100.46576096 -60.04003906 120.96728516 C-59.72073707 144.86171789 -66.81562165 166.82059911 -83.24316406 184.60009766 C-92.36004718 193.65853921 -92.36004718 193.65853921 -96.24316406 195.60009766 C-96.24316406 196.26009766 -96.24316406 196.92009766 -96.24316406 197.60009766 C-95.69080078 197.82036621 -95.1384375 198.04063477 -94.56933594 198.26757812 C-73.70784991 206.67180147 -56.71564856 217.25256332 -40.24316406 232.60009766 C-39.56382812 233.22529297 -38.88449219 233.85048828 -38.18457031 234.49462891 C-23.64577292 248.38985781 -11.60977418 267.50026731 -5.24316406 286.60009766 C8.13039252 282.14224546 20.61974388 254.68462755 26.75683594 242.60009766 C34.85497371 226.14246013 40.54127619 208.65342261 43.75683594 190.60009766 C43.9348877 189.60478027 44.11293945 188.60946289 44.29638672 187.58398438 C45.88090275 177.77527791 46.15737827 168.13428798 46.13183594 158.22509766 C46.13095978 157.39105408 46.13008362 156.5570105 46.12918091 155.69769287 C46.08078861 141.67799089 45.10700228 128.26361489 41.75683594 114.60009766 C41.51545898 113.60913086 41.27408203 112.61816406 41.02539062 111.59716797 C28.31900576 61.13923461 -3.83320891 19.27383692 -48.08691406 -7.78271484 C-123.58934297 -52.54239021 -217.70979155 -38.02269475 -280.24316406 21.60009766 Z M-187.24316406 77.60009766 C-187.95988281 78.20466797 -188.67660156 78.80923828 -189.41503906 79.43212891 C-199.62171197 88.82780649 -207.38029347 102.99359555 -208.42016602 116.98095703 C-208.70742548 128.52626957 -208.91101289 138.84108872 -204.24316406 149.60009766 C-203.8809375 150.47537109 -203.51871094 151.35064453 -203.14550781 152.25244141 C-196.11001814 167.73051869 -182.76158173 179.43858539 -167.18066406 185.85009766 C-150.1564814 191.56484445 -132.12932838 190.40509588 -116.00244141 182.5390625 C-100.53426942 174.28336038 -89.7228447 160.47665373 -84.00488281 144.14306641 C-79.98715398 130.73003324 -80.68443245 114.41251839 -86.24316406 101.60009766 C-86.78650391 100.2871875 -86.78650391 100.2871875 -87.34082031 98.94775391 C-93.91633095 84.48163051 -106.01706529 73.3613557 -120.24316406 66.60009766 C-143.75372113 57.83344926 -168.03824427 61.33786719 -187.24316406 77.60009766 Z M-241.6796875 254.80029297 C-245.98521516 259.75662494 -249.65280083 265.11444975 -253.24316406 270.60009766 C-253.79230469 271.39158203 -254.34144531 272.18306641 -254.90722656 272.99853516 C-260.94115698 282.19463232 -265.76714345 293.86611512 -268.24316406 304.60009766 C-239.11549849 329.13587242 -202.37485016 345.43912892 -164.24316406 348.60009766 C-163.1794458 348.69846924 -163.1794458 348.69846924 -162.09423828 348.79882812 C-114.78842673 353.00043056 -64.04087041 339.2168943 -27.24316406 308.60009766 C-25.51659 306.97961362 -23.8795652 305.31354216 -22.24316406 303.60009766 C-29.57226501 282.92827446 -39.01409566 265.53749483 -54.24316406 249.60009766 C-54.8915625 248.87693359 -55.53996094 248.15376953 -56.20800781 247.40869141 C-72.93538887 229.46127104 -95.83161342 219.44239186 -119.24316406 213.60009766 C-120.31050781 213.33326172 -121.37785156 213.06642578 -122.47753906 212.79150391 C-166.62189495 204.14159633 -211.92800618 222.23546643 -241.6796875 254.80029297 Z " fill="#000000" transform="translate(401.2431640625,98.39990234375)"/>
</svg>
