<?xml version="1.0" encoding="UTF-8"?>
<svg version="1.1" xmlns="http://www.w3.org/2000/svg" width="512" height="512">
<path d="M0 0 C0.73250977 -0.00700928 1.46501953 -0.01401855 2.21972656 -0.02124023 C4.62604382 -0.03875584 7.03117209 -0.02722142 9.4375 -0.01367188 C11.11849186 -0.01636866 12.79948221 -0.02025264 14.48046875 -0.02526855 C17.99754743 -0.03115485 21.5142188 -0.02262896 25.03125 -0.00390625 C29.53052189 0.01888312 34.02883927 0.00575532 38.52807617 -0.01819611 C41.99746847 -0.03267779 45.46663594 -0.02803731 48.93603516 -0.01768494 C50.59456496 -0.01502418 52.25311544 -0.01826444 53.91162109 -0.02760315 C56.23329421 -0.03780834 58.55344011 -0.02221466 60.875 0 C62.19371094 0.00318237 63.51242187 0.00636475 64.87109375 0.00964355 C70.3879267 0.79536172 73.2388314 3.0964897 76.78015137 7.29492188 C78.76746485 11.15918319 78.94461752 13.74541501 78.95507812 18.08007812 C78.96559204 19.17884277 78.96559204 19.17884277 78.97631836 20.29980469 C78.99383397 22.70612195 78.98229954 25.11125021 78.96875 27.51757812 C78.97144679 29.19856999 78.97533077 30.87956033 78.98034668 32.56054688 C78.98623298 36.07762556 78.97770709 39.59429692 78.95898438 43.11132812 C78.93619501 47.61060002 78.9493228 52.10891739 78.97327423 56.6081543 C78.98775591 60.07754659 78.98311544 63.54671407 78.97276306 67.01611328 C78.97010231 68.67464309 78.97334257 70.33319357 78.98268127 71.99169922 C78.99288646 74.31337233 78.97729279 76.63351823 78.95507812 78.95507812 C78.95189575 80.27378906 78.94871338 81.5925 78.94543457 82.95117188 C78.19142424 88.24537179 75.74548979 91.27498783 71.9375 94.89257812 C66.77249991 97.29061388 62.0372712 97.27139348 56.4375 96.51757812 C51.45821169 94.20576569 49.13692396 91.22931268 46.4375 86.51757812 C45.89160156 83.17431641 45.89160156 83.17431641 45.828125 79.58789062 C45.79589844 78.29882812 45.76367188 77.00976562 45.73046875 75.68164062 C45.7157277 74.33529097 45.70141 72.98893662 45.6875 71.64257812 C45.65931288 70.27274909 45.62938163 68.90295478 45.59765625 67.53320312 C45.52712243 64.1946021 45.47434015 60.85669298 45.4375 57.51757812 C45.02217286 57.93366471 44.60684572 58.34975129 44.17893291 58.77844656 C19.57563747 83.42647592 -5.03285988 108.06929988 -29.64814593 132.70535471 C-32.60221997 135.66193023 -35.55625041 138.61854931 -38.51025391 141.57519531 C-39.09835577 142.1638218 -39.68645764 142.75244829 -40.29238078 143.35891195 C-49.82089652 152.89613572 -59.34587418 162.43688555 -68.86955419 171.97893791 C-78.63822162 181.7662933 -88.41066946 191.54986197 -98.18665385 201.32990897 C-104.22122429 207.36722676 -110.25280917 213.40749609 -116.28063598 219.45154704 C-120.41165869 223.593123 -124.54634009 227.73102261 -128.68394336 231.86602424 C-131.07276451 234.25356151 -133.45934737 236.64322942 -135.84272194 239.03621101 C-138.4247719 241.62816061 -141.01285979 244.21392485 -143.6026001 246.79818726 C-144.35746555 247.55887839 -145.11233099 248.31956952 -145.89007115 249.1033119 C-146.93136084 250.13862843 -146.93136084 250.13862843 -147.99368668 251.19486046 C-148.59060704 251.79254026 -149.18752739 252.39022006 -149.80253625 253.00601137 C-153.51499707 256.19450452 -156.59327264 256.83094673 -161.4375 256.89257812 C-162.44554687 256.9209375 -163.45359375 256.94929688 -164.4921875 256.97851562 C-171.23044292 255.96692003 -175.86716413 250.49692075 -180.47213745 245.84844971 C-181.14288303 245.17941297 -181.81362862 244.51037624 -182.50469983 243.82106566 C-184.74342381 241.58562703 -186.97494024 239.34313194 -189.20654297 237.10058594 C-190.81288921 235.49367538 -192.41967632 233.88720543 -194.02687073 232.28114319 C-198.38417187 227.92441575 -202.73527996 223.56155036 -207.08530569 219.19756031 C-211.63411273 214.63624894 -216.18858592 210.08060245 -220.74246216 205.52435303 C-228.38361848 197.87768722 -236.02127246 190.22754165 -243.65625 182.57470703 C-251.5188092 174.69377767 -259.38347526 166.81496066 -267.25097656 158.93896484 C-267.7362805 158.45313546 -268.22158444 157.96730607 -268.72159456 157.46675459 C-271.1563399 155.02939908 -273.59112665 152.59208494 -276.02593398 150.15479136 C-296.21121126 129.94879525 -316.38915598 109.73548783 -336.5625 89.51757812 C-339.65181549 90.99431284 -341.757626 92.4754083 -344.16601562 94.92578125 C-345.19728577 95.96696106 -345.19728577 95.96696106 -346.24938965 97.0291748 C-346.98177856 97.7781604 -347.71416748 98.527146 -348.46875 99.29882812 C-349.23046509 100.06811646 -349.99218018 100.83740479 -350.77697754 101.63000488 C-353.21033586 104.08779276 -355.63716355 106.55187547 -358.0625 109.01757812 C-361.25468229 112.26288966 -364.45335696 115.50159078 -367.65625 118.73632812 C-368.38863892 119.48531372 -369.12102783 120.23429932 -369.87561035 121.00598145 C-370.90688049 122.04716125 -370.90688049 122.04716125 -371.95898438 123.109375 C-372.55980835 123.72067261 -373.16063232 124.33197021 -373.77966309 124.96179199 C-378.39244439 128.98711878 -382.7226679 128.94542157 -388.6484375 128.83007812 C-393.94990101 128.26155657 -396.40222495 125.73892028 -399.9375 122.01757812 C-402.28575726 116.95979326 -402.53347307 112.00072019 -401.5625 106.51757812 C-398.99659043 102.25570528 -396.08879406 98.7915168 -392.58203125 95.27832031 C-391.85927505 94.55030716 -391.85927505 94.55030716 -391.12191772 93.80758667 C-389.5445687 92.22151 -387.96010682 90.64277385 -386.375 89.06445312 C-385.2689949 87.95709923 -384.1632867 86.84944873 -383.05786133 85.74151611 C-380.74786402 83.42858007 -378.43431293 81.11927542 -376.11816406 78.8125 C-373.15229314 75.85804961 -370.19552786 72.89467443 -367.24134827 69.92853928 C-364.96300105 67.64296248 -362.6799087 65.36217365 -360.39535522 63.08280182 C-359.3030626 61.99184126 -358.21224791 60.89939884 -357.12295532 59.80544281 C-355.60108404 58.27848536 -354.07293633 56.75809719 -352.54296875 55.23925781 C-351.67567139 54.37355164 -350.80837402 53.50784546 -349.91479492 52.61590576 C-345.89863404 49.0333527 -343.04038246 48.21068096 -337.6875 48.14257812 C-336.67945313 48.11421875 -335.67140625 48.08585937 -334.6328125 48.05664062 C-327.89455708 49.06823622 -323.25783587 54.5382355 -318.65286255 59.18670654 C-317.98211697 59.85574328 -317.31137138 60.52478001 -316.62030017 61.21409059 C-314.38157619 63.44952922 -312.15005976 65.69202431 -309.91845703 67.93457031 C-308.31211079 69.54148087 -306.70532368 71.14795082 -305.09812927 72.75401306 C-300.74082813 77.1107405 -296.38972004 81.47360589 -292.03969431 85.83759594 C-287.49088727 90.39890731 -282.93641408 94.9545538 -278.38253784 99.51080322 C-270.74138152 107.15746903 -263.10372754 114.8076146 -255.46875 122.46044922 C-247.6061908 130.34137858 -239.74152474 138.22019559 -231.87402344 146.09619141 C-231.3887195 146.58202079 -230.90341556 147.06785018 -230.40340544 147.56840166 C-227.9686601 150.00575717 -225.53387335 152.44307131 -223.09906602 154.88036489 C-202.91378874 175.086361 -182.73584402 195.29966842 -162.5625 215.51757812 C-159.61614708 214.18871402 -157.53887526 212.7432241 -155.25918198 210.46035576 C-154.62420658 209.82936246 -153.98923118 209.19836916 -153.3350141 208.54825485 C-152.64629478 207.85370984 -151.95757545 207.15916483 -151.24798584 206.443573 C-150.50952872 205.70682472 -149.77107159 204.97007645 -149.01023698 204.21100247 C-146.53036372 201.73443051 -144.05771885 199.25076473 -141.58496094 196.76708984 C-139.81142397 194.9929889 -138.03744683 193.21932791 -136.26306152 191.44607544 C-132.44049629 187.62396604 -128.62102212 183.79880912 -124.80431366 179.9708519 C-119.28599111 174.43627613 -113.76215501 168.90723042 -108.2369571 163.37951936 C-99.27286965 154.41105452 -90.31325774 145.43813233 -81.35644531 136.46240234 C-72.65566368 127.74326303 -63.9527842 119.0262265 -55.24707031 110.31201172 C-54.710462 109.77487796 -54.17385369 109.2377442 -53.62098452 108.68433367 C-50.92896865 105.98970772 -48.23691144 103.29512309 -45.54483366 100.600559 C-23.21097482 78.24596632 -0.88444816 55.88406429 21.4375 33.51757812 C20.5904248 33.50823242 19.74334961 33.49888672 18.87060547 33.48925781 C15.70555648 33.44505201 12.54145188 33.38335286 9.37695312 33.31005859 C8.01151836 33.2819619 6.64592436 33.26069135 5.28027344 33.24658203 C3.30895962 33.2249983 1.33800369 33.17622353 -0.6328125 33.12695312 C-1.81633301 33.10600586 -2.99985352 33.08505859 -4.21923828 33.06347656 C-9.33360472 32.2283865 -12.4277791 29.71202118 -15.9375 26.01757812 C-18.33553575 20.85257804 -18.31631535 16.11734933 -17.5625 10.51757812 C-13.97822937 2.79761062 -8.2761305 0.01997233 0 0 Z " fill="#000000" transform="translate(417.5625,15.482421875)"/>
<path d="M0 0 C1.04462402 -0.00700928 2.08924805 -0.01401855 3.16552734 -0.02124023 C6.61062381 -0.0388121 10.05489551 -0.02719969 13.5 -0.01367188 C15.8984391 -0.016367 18.29687714 -0.0202496 20.6953125 -0.02526855 C25.71885595 -0.03116254 30.74211467 -0.02260346 35.765625 -0.00390625 C42.20189072 0.01888275 48.63748922 0.00575921 55.07373047 -0.01819611 C60.02544168 -0.03265649 64.97699495 -0.02804688 69.92871094 -0.01768494 C72.30175862 -0.01501834 74.67482068 -0.01828502 77.04785156 -0.02760315 C80.36562028 -0.03777219 83.68231145 -0.02226121 87 0 C88.46832275 -0.01214539 88.46832275 -0.01214539 89.96630859 -0.02453613 C95.62935479 0.04578731 99.1245714 0.56573088 103.5 4.51757812 C107.85343976 9.71604024 108.07241674 13.67815045 108.00793457 20.15820312 C108.01417453 21.12281464 108.0204145 22.08742615 108.02684355 23.08126831 C108.04278556 26.31028762 108.0301642 29.53855334 108.01757812 32.76757812 C108.02299868 35.08382609 108.03012097 37.40007061 108.03881836 39.71630859 C108.05706229 46.00549768 108.04997957 52.29442446 108.03730202 58.58361816 C108.02718001 65.16317455 108.03656548 71.74270837 108.04284668 78.32226562 C108.05139149 90.07968516 108.03815549 101.83699428 108.01780933 113.59439468 C107.99993868 124.25113998 108.00304291 134.90771098 108.02148438 145.56445312 C108.0428985 157.94476437 108.05085424 170.3249645 108.03903532 182.70529175 C108.03279688 189.25702093 108.03197453 195.80863008 108.04518127 202.36035156 C108.05672961 208.51967326 108.04873215 214.67866557 108.02560425 220.83795166 C108.02031179 223.09946139 108.02184005 225.36099881 108.03065491 227.62249756 C108.04157232 230.70769127 108.0278919 233.79182697 108.00793457 236.87695312 C108.01685746 237.77364716 108.02578034 238.67034119 108.03497362 239.59420776 C107.96628128 245.06225483 107.13501583 248.17698928 103.5 252.51757812 C98.3117541 257.20355455 93.64568975 257.09012677 87 257.03515625 C85.43306396 257.04567017 85.43306396 257.04567017 83.83447266 257.05639648 C80.38937619 257.07396835 76.94510449 257.06235594 73.5 257.04882812 C71.1015609 257.05152325 68.70312286 257.05540585 66.3046875 257.0604248 C61.28114405 257.06631879 56.25788533 257.05775971 51.234375 257.0390625 C44.79810928 257.0162735 38.36251078 257.02939704 31.92626953 257.05335236 C26.97455832 257.06781274 22.02300505 257.06320313 17.07128906 257.05284119 C14.69824138 257.05017459 12.32517932 257.05344127 9.95214844 257.0627594 C6.63437972 257.07292844 3.31768855 257.05741746 0 257.03515625 C-0.97888184 257.04325317 -1.95776367 257.0513501 -2.96630859 257.05969238 C-8.62935479 256.98936894 -12.1245714 256.46942537 -16.5 252.51757812 C-20.85343976 247.31911601 -21.07241674 243.3570058 -21.00793457 236.87695312 C-21.01417453 235.91234161 -21.0204145 234.9477301 -21.02684355 233.95388794 C-21.04278556 230.72486863 -21.0301642 227.49660291 -21.01757812 224.26757812 C-21.02299868 221.95133016 -21.03012097 219.63508564 -21.03881836 217.31884766 C-21.05706229 211.02965857 -21.04997957 204.74073179 -21.03730202 198.45153809 C-21.02718001 191.8719817 -21.03656548 185.29244788 -21.04284668 178.71289062 C-21.05139149 166.95547109 -21.03815549 155.19816197 -21.01780933 143.44076157 C-20.99993868 132.78401627 -21.00304291 122.12744527 -21.02148438 111.47070312 C-21.0428985 99.09039188 -21.05085424 86.71019175 -21.03903532 74.3298645 C-21.03279688 67.77813532 -21.03197453 61.22652617 -21.04518127 54.67480469 C-21.05672961 48.51548299 -21.04873215 42.35649068 -21.02560425 36.19720459 C-21.02031179 33.93569486 -21.02184005 31.67415744 -21.03065491 29.41265869 C-21.04157232 26.32746498 -21.0278919 23.24332928 -21.00793457 20.15820312 C-21.01685746 19.26150909 -21.02578034 18.36481506 -21.03497362 17.44094849 C-20.96628128 11.97290142 -20.13501583 8.85816697 -16.5 4.51757812 C-11.3117541 -0.1683983 -6.64568975 -0.05497052 0 0 Z M11.5 32.51757812 C11.5 95.87757813 11.5 159.23757813 11.5 224.51757812 C32.62 224.51757812 53.74 224.51757812 75.5 224.51757812 C75.5 161.15757812 75.5 97.79757812 75.5 32.51757812 C54.38 32.51757812 33.26 32.51757812 11.5 32.51757812 Z " fill="#000000" transform="translate(388.5,239.482421875)"/>
<path d="M0 0 C1.04462402 -0.00700928 2.08924805 -0.01401855 3.16552734 -0.02124023 C6.61062381 -0.0388121 10.05489551 -0.02719969 13.5 -0.01367188 C15.8984391 -0.016367 18.29687714 -0.0202496 20.6953125 -0.02526855 C25.71885595 -0.03116254 30.74211467 -0.02260346 35.765625 -0.00390625 C42.20189072 0.01888275 48.63748922 0.00575921 55.07373047 -0.01819611 C60.02544168 -0.03265649 64.97699495 -0.02804688 69.92871094 -0.01768494 C72.30175862 -0.01501834 74.67482068 -0.01828502 77.04785156 -0.02760315 C80.36562028 -0.03777219 83.68231145 -0.02226121 87 0 C88.46832275 -0.01214539 88.46832275 -0.01214539 89.96630859 -0.02453613 C95.62935479 0.04578731 99.1245714 0.56573088 103.5 4.51757812 C107.85343976 9.71604024 108.07241674 13.67815045 108.00793457 20.15820312 C108.01417453 21.12281464 108.0204145 22.08742615 108.02684355 23.08126831 C108.04278556 26.31028762 108.0301642 29.53855334 108.01757812 32.76757812 C108.02299868 35.08382609 108.03012097 37.40007061 108.03881836 39.71630859 C108.05706229 46.00549768 108.04997957 52.29442446 108.03730202 58.58361816 C108.02718001 65.16317455 108.03656548 71.74270837 108.04284668 78.32226562 C108.05139149 90.07968516 108.03815549 101.83699428 108.01780933 113.59439468 C107.99993868 124.25113998 108.00304291 134.90771098 108.02148438 145.56445312 C108.0428985 157.94476437 108.05085424 170.3249645 108.03903532 182.70529175 C108.03279688 189.25702093 108.03197453 195.80863008 108.04518127 202.36035156 C108.05672961 208.51967326 108.04873215 214.67866557 108.02560425 220.83795166 C108.02031179 223.09946139 108.02184005 225.36099881 108.03065491 227.62249756 C108.04157232 230.70769127 108.0278919 233.79182697 108.00793457 236.87695312 C108.01685746 237.77364716 108.02578034 238.67034119 108.03497362 239.59420776 C107.96628128 245.06225483 107.13501583 248.17698928 103.5 252.51757812 C98.3117541 257.20355455 93.64568975 257.09012677 87 257.03515625 C85.43306396 257.04567017 85.43306396 257.04567017 83.83447266 257.05639648 C80.38937619 257.07396835 76.94510449 257.06235594 73.5 257.04882812 C71.1015609 257.05152325 68.70312286 257.05540585 66.3046875 257.0604248 C61.28114405 257.06631879 56.25788533 257.05775971 51.234375 257.0390625 C44.79810928 257.0162735 38.36251078 257.02939704 31.92626953 257.05335236 C26.97455832 257.06781274 22.02300505 257.06320313 17.07128906 257.05284119 C14.69824138 257.05017459 12.32517932 257.05344127 9.95214844 257.0627594 C6.63437972 257.07292844 3.31768855 257.05741746 0 257.03515625 C-0.97888184 257.04325317 -1.95776367 257.0513501 -2.96630859 257.05969238 C-8.62935479 256.98936894 -12.1245714 256.46942537 -16.5 252.51757812 C-20.85343976 247.31911601 -21.07241674 243.3570058 -21.00793457 236.87695312 C-21.01417453 235.91234161 -21.0204145 234.9477301 -21.02684355 233.95388794 C-21.04278556 230.72486863 -21.0301642 227.49660291 -21.01757812 224.26757812 C-21.02299868 221.95133016 -21.03012097 219.63508564 -21.03881836 217.31884766 C-21.05706229 211.02965857 -21.04997957 204.74073179 -21.03730202 198.45153809 C-21.02718001 191.8719817 -21.03656548 185.29244788 -21.04284668 178.71289062 C-21.05139149 166.95547109 -21.03815549 155.19816197 -21.01780933 143.44076157 C-20.99993868 132.78401627 -21.00304291 122.12744527 -21.02148438 111.47070312 C-21.0428985 99.09039188 -21.05085424 86.71019175 -21.03903532 74.3298645 C-21.03279688 67.77813532 -21.03197453 61.22652617 -21.04518127 54.67480469 C-21.05672961 48.51548299 -21.04873215 42.35649068 -21.02560425 36.19720459 C-21.02031179 33.93569486 -21.02184005 31.67415744 -21.03065491 29.41265869 C-21.04157232 26.32746498 -21.0278919 23.24332928 -21.00793457 20.15820312 C-21.01685746 19.26150909 -21.02578034 18.36481506 -21.03497362 17.44094849 C-20.96628128 11.97290142 -20.13501583 8.85816697 -16.5 4.51757812 C-11.3117541 -0.1683983 -6.64568975 -0.05497052 0 0 Z M11.5 32.51757812 C11.5 95.87757813 11.5 159.23757813 11.5 224.51757812 C32.62 224.51757812 53.74 224.51757812 75.5 224.51757812 C75.5 161.15757812 75.5 97.79757812 75.5 32.51757812 C54.38 32.51757812 33.26 32.51757812 11.5 32.51757812 Z " fill="#000000" transform="translate(36.5,239.482421875)"/>
<path d="M0 0 C1.04462402 -0.00700928 2.08924805 -0.01401855 3.16552734 -0.02124023 C6.61062381 -0.0388121 10.05489551 -0.02719969 13.5 -0.01367188 C15.8984391 -0.016367 18.29687714 -0.0202496 20.6953125 -0.02526855 C25.71885595 -0.03116254 30.74211467 -0.02260346 35.765625 -0.00390625 C42.20189072 0.01888275 48.63748922 0.00575921 55.07373047 -0.01819611 C60.02544168 -0.03265649 64.97699495 -0.02804688 69.92871094 -0.01768494 C72.30175862 -0.01501834 74.67482068 -0.01828502 77.04785156 -0.02760315 C80.36562028 -0.03777219 83.68231145 -0.02226121 87 0 C88.46832275 -0.01214539 88.46832275 -0.01214539 89.96630859 -0.02453613 C95.62935479 0.04578731 99.1245714 0.56573088 103.5 4.51757812 C107.07559892 9.04209096 108.00103858 11.98958183 108.00793457 17.72851562 C108.01417453 18.43177979 108.0204145 19.13504395 108.02684355 19.85961914 C108.04273434 22.20428498 108.03018563 24.54790551 108.01757812 26.89257812 C108.02300102 28.57829391 108.03012462 30.26400495 108.03881836 31.94970703 C108.05703483 36.51997526 108.04999115 41.0898818 108.03730202 45.66015625 C108.02716566 50.44597336 108.03656946 55.23175978 108.04284668 60.01757812 C108.05012123 68.05409294 108.04054043 76.09046065 108.02148438 84.12695312 C107.999716 93.4144876 108.00676751 102.70167082 108.02879 111.98919678 C108.04694947 119.96729537 108.04949964 127.9452883 108.03903532 135.92340088 C108.03280341 140.68662269 108.03195646 145.44967946 108.04518127 150.21289062 C108.05674712 154.69130879 108.04870072 159.16927467 108.02560425 163.64764404 C108.02032107 165.2899297 108.02182428 166.93225351 108.03065491 168.57452393 C108.04161012 170.81907437 108.02784933 173.06218177 108.00793457 175.30664062 C108.00642647 176.5617041 108.00491837 177.81676758 108.00336456 179.10986328 C107.23265219 184.32748919 104.75319773 187.38570135 100.90625 190.86022949 C96.19283777 193.15359237 92.17751751 193.07798263 87 193.03515625 C85.95537598 193.04216553 84.91075195 193.0491748 83.83447266 193.05639648 C80.38937619 193.07396835 76.94510449 193.06235594 73.5 193.04882812 C71.1015609 193.05152325 68.70312286 193.05540585 66.3046875 193.0604248 C61.28114405 193.06631879 56.25788533 193.05775971 51.234375 193.0390625 C44.79810928 193.0162735 38.36251078 193.02939704 31.92626953 193.05335236 C26.97455832 193.06781274 22.02300505 193.06320313 17.07128906 193.05284119 C14.69824138 193.05017459 12.32517932 193.05344127 9.95214844 193.0627594 C6.63437972 193.07292844 3.31768855 193.05741746 0 193.03515625 C-0.97888184 193.04325317 -1.95776367 193.0513501 -2.96630859 193.05969238 C-8.62935479 192.98936894 -12.1245714 192.46942537 -16.5 188.51757812 C-20.07559892 183.99306529 -21.00103858 181.04557442 -21.00793457 175.30664062 C-21.01417453 174.60337646 -21.0204145 173.9001123 -21.02684355 173.17553711 C-21.04273434 170.83087127 -21.03018563 168.48725074 -21.01757812 166.14257812 C-21.02300102 164.45686234 -21.03012462 162.7711513 -21.03881836 161.08544922 C-21.05703483 156.51518099 -21.04999115 151.94527445 -21.03730202 147.375 C-21.02716566 142.58918289 -21.03656946 137.80339647 -21.04284668 133.01757812 C-21.05012123 124.98106331 -21.04054043 116.9446956 -21.02148438 108.90820312 C-20.999716 99.62066865 -21.00676751 90.33348543 -21.02879 81.04595947 C-21.04694947 73.06786088 -21.04949964 65.08986795 -21.03903532 57.11175537 C-21.03280341 52.34853356 -21.03195646 47.58547679 -21.04518127 42.82226562 C-21.05674712 38.34384746 -21.04870072 33.86588158 -21.02560425 29.38751221 C-21.02032107 27.74522655 -21.02182428 26.10290274 -21.03065491 24.46063232 C-21.04161012 22.21608188 -21.02784933 19.97297448 -21.00793457 17.72851562 C-21.00642647 16.47345215 -21.00491837 15.21838867 -21.00336456 13.92529297 C-20.23265219 8.70766706 -17.75319773 5.6494549 -13.90625 2.17492676 C-9.19283777 -0.11843612 -5.17751751 -0.04282638 0 0 Z M11.5 32.51757812 C11.5 74.75757813 11.5 116.99757813 11.5 160.51757812 C32.62 160.51757812 53.74 160.51757812 75.5 160.51757812 C75.5 118.27757812 75.5 76.03757812 75.5 32.51757812 C54.38 32.51757812 33.26 32.51757812 11.5 32.51757812 Z " fill="#000000" transform="translate(212.5,303.482421875)"/>
</svg>
