<?xml version="1.0" encoding="UTF-8"?>
<svg version="1.1" xmlns="http://www.w3.org/2000/svg" width="512" height="512">
<path d="M0 0 C1.4667967 -0.00339833 1.4667967 -0.00339833 2.96322566 -0.00686532 C6.21929585 -0.01316352 9.47532396 -0.01237865 12.73139954 -0.0115509 C15.0745143 -0.01454502 17.41762856 -0.01794814 19.76074219 -0.02172852 C26.112189 -0.03054747 32.46362234 -0.03290576 38.81507468 -0.0335443 C43.4552268 -0.03437565 48.09537595 -0.03727747 52.73552701 -0.04038078 C65.22494253 -0.04867824 77.71435094 -0.05242399 90.20376911 -0.05171105 C90.91188129 -0.05167109 91.61999347 -0.05163113 92.3495636 -0.05158997 C93.05854928 -0.05154909 93.76753497 -0.0515082 94.49800507 -0.05146609 C105.97900661 -0.05105994 117.4599753 -0.06062351 128.94096734 -0.07472833 C140.75447184 -0.0891261 152.56796035 -0.09599663 164.38147384 -0.09513456 C171.00380635 -0.09480373 177.62610861 -0.09769736 184.24843407 -0.10831261 C190.48077113 -0.11803029 196.71303575 -0.11804765 202.94537544 -0.11079597 C205.22449729 -0.10975465 207.50362373 -0.11208594 209.78273773 -0.11815643 C243.12291086 -0.20116218 270.35398547 7.16085392 295.20527649 30.38371277 C314.75119236 50.32621244 324.08203924 76.54929029 324.03430176 104.23312378 C324.03656731 105.21098825 324.03883287 106.18885272 324.04116708 107.19634944 C324.04746528 110.45241963 324.04668041 113.70844774 324.04585266 116.96452332 C324.04884678 119.30763808 324.05224989 121.65075234 324.05603027 123.99386597 C324.06484923 130.34531278 324.06720752 136.69674612 324.06784606 143.04819846 C324.06867741 147.68835058 324.07157923 152.32849972 324.07468254 156.96865079 C324.08298 169.45806631 324.08672575 181.94747472 324.0860128 194.43689289 C324.08595287 195.49906116 324.08595287 195.49906116 324.08589172 196.58268738 C324.08585084 197.29167306 324.08580996 198.00065875 324.08576784 198.73112885 C324.08536169 210.21213039 324.09492526 221.69309908 324.10903009 233.17409112 C324.12342786 244.98759562 324.13029839 256.80108413 324.12943631 268.61459762 C324.12910549 275.23693013 324.13199912 281.85923239 324.14261436 288.48155785 C324.15233204 294.71389491 324.15234941 300.94615953 324.14509773 307.17849922 C324.14405641 309.45762107 324.1463877 311.73674751 324.15245819 314.01586151 C324.23546394 347.35603464 316.87344784 374.58710925 293.65058899 399.43840027 C273.70808931 418.98431614 247.48501147 428.31516302 219.80117798 428.26742554 C218.82331351 428.26969109 217.84544904 428.27195665 216.83795232 428.27429086 C213.58188213 428.28058906 210.32585402 428.27980419 207.06977844 428.27897644 C204.72666368 428.28197056 202.38354941 428.28537367 200.04043579 428.28915405 C193.68898898 428.29797301 187.33755564 428.3003313 180.9861033 428.30096984 C176.34595117 428.30180119 171.70580203 428.30470301 167.06565097 428.30780632 C154.57623545 428.31610378 142.08682704 428.31984953 129.59740887 428.31913658 C128.88929669 428.31909663 128.18118451 428.31905667 127.45161438 428.3190155 C126.74262869 428.31897462 126.03364301 428.31893374 125.30317291 428.31889162 C113.82217137 428.31848547 102.34120268 428.32804904 90.86021063 428.34215387 C79.04670614 428.35655164 67.23321762 428.36342217 55.41970414 428.36256009 C48.79737163 428.36222927 42.17506937 428.3651229 35.55274391 428.37573814 C29.32040685 428.38545582 23.08814223 428.38547319 16.85580254 428.37822151 C14.57668069 428.37718019 12.29755425 428.37951148 10.01844025 428.38558197 C-23.32173288 428.46858772 -50.55280749 421.10657162 -75.40409851 397.88371277 C-94.95001439 377.94121309 -104.28086127 351.71813525 -104.23312378 324.03430176 C-104.23538934 323.05643729 -104.23765489 322.07857282 -104.2399891 321.0710761 C-104.2462873 317.81500591 -104.24550243 314.5589778 -104.24467468 311.30290222 C-104.2476688 308.95978746 -104.25107192 306.61667319 -104.25485229 304.27355957 C-104.26367125 297.92211276 -104.26602954 291.57067942 -104.26666808 285.21922708 C-104.26749943 280.57907495 -104.27040125 275.93892581 -104.27350456 271.29877475 C-104.28180202 258.80935923 -104.28554777 246.31995082 -104.28483482 233.83053265 C-104.28479487 233.12242047 -104.28475491 232.41430829 -104.28471375 231.68473816 C-104.28467286 230.97575247 -104.28463198 230.26676679 -104.28458986 229.53629669 C-104.28418372 218.05529515 -104.29374729 206.57432646 -104.30785211 195.09333441 C-104.32224988 183.27982992 -104.32912041 171.4663414 -104.32825834 159.65282792 C-104.32792751 153.0304954 -104.33082114 146.40819314 -104.34143639 139.78586769 C-104.35115407 133.55353063 -104.35117143 127.32126601 -104.34391975 121.08892632 C-104.34287843 118.80980447 -104.34520972 116.53067803 -104.35128021 114.25156403 C-104.43428596 80.9113909 -97.07226986 53.68031629 -73.84941101 28.82902527 C-53.90691134 9.28310939 -27.68383349 -0.04773749 0 0 Z M-46.09941101 49.13371277 C-46.74652039 49.61582214 -47.39362976 50.09793152 -48.06034851 50.59465027 C-61.52556778 61.13529703 -68.8189342 78.59703609 -71.09941101 95.13371277 C-71.24518551 98.35478764 -71.2429602 101.57246109 -71.23985291 104.7964325 C-71.24282403 105.76356658 -71.24579515 106.73070067 -71.24885631 107.72714186 C-71.25752136 110.96488784 -71.25904972 114.20259674 -71.26054382 117.44035339 C-71.26517364 119.76332172 -71.27019852 122.08628929 -71.27558899 124.40925598 C-71.28870136 130.71955652 -71.29515597 137.02984643 -71.29959965 143.34015846 C-71.30253293 147.28582527 -71.30663828 151.23148919 -71.31110382 155.17715454 C-71.32321124 166.11649188 -71.33359314 177.05582669 -71.33697891 187.99517059 C-71.33719848 188.69472948 -71.33741804 189.39428836 -71.33764426 190.11504599 C-71.33786254 190.81621859 -71.33808082 191.51739118 -71.33830571 192.23981142 C-71.33874917 193.66049989 -71.33919573 195.08118836 -71.33964539 196.50187683 C-71.33986682 197.20657779 -71.34008825 197.91127875 -71.34031639 198.63733429 C-71.34425943 210.04094373 -71.36169927 221.44448907 -71.38500491 232.84807378 C-71.40877763 244.57560256 -71.4211835 256.30309927 -71.42234683 268.03065252 C-71.42339278 274.60722393 -71.42925567 281.18370495 -71.44716644 287.76025391 C-71.46370196 293.95235777 -71.465776 300.14430383 -71.45702744 306.33642197 C-71.45625993 308.60103148 -71.46056169 310.86564968 -71.47048569 313.13023758 C-71.56008352 334.86178768 -69.06243506 352.61039573 -55.09941101 370.13371277 C-54.37624695 371.10437683 -54.37624695 371.10437683 -53.63847351 372.09465027 C-43.01236289 385.66904591 -25.72148303 392.70318356 -9.09941101 395.13371277 C-1.2838144 395.81705171 6.57034609 395.68239983 14.40840149 395.65129089 C16.72812843 395.65672284 19.04785191 395.66385148 21.36756897 395.67253113 C27.61965784 395.69063966 33.87148026 395.68374871 40.1235733 395.67101479 C46.02715347 395.66185835 51.930702 395.66887993 57.83428311 395.67472357 C70.23890651 395.68608589 82.643411 395.67308438 95.04801488 395.6515221 C105.65453133 395.63365505 116.26087257 395.63676039 126.86738586 395.65519714 C139.2324988 395.67668121 151.59750795 395.68498766 163.96263695 395.67274809 C170.49051997 395.66654172 177.01828275 395.66559842 183.54615784 395.67889404 C189.68596031 395.69052785 195.82543493 395.68229009 201.96520233 395.65931702 C204.20597543 395.65406995 206.44677656 395.65547418 208.68753815 395.66436768 C232.99875154 395.75189334 253.88487016 391.99610633 271.90058899 374.13371277 C285.13946132 359.05894135 291.06043557 342.31194995 291.04103088 322.43339539 C291.04400201 321.47427954 291.04697313 320.5151637 291.05003428 319.52698374 C291.05868589 316.32231678 291.06022655 313.11768734 291.0617218 309.91300964 C291.06635256 307.61122051 291.07137756 305.30943214 291.07676697 303.00764465 C291.08986996 296.75931768 291.09633208 290.51100145 291.10077763 284.26266289 C291.10371233 280.35467256 291.10781794 276.44668515 291.1122818 272.53869629 C291.12438736 261.70054482 291.13476997 250.86239658 291.13815689 240.02423859 C291.13837646 239.33140161 291.13859602 238.63856463 291.13882224 237.9247326 C291.13904052 237.23031346 291.1392588 236.53589433 291.13948369 235.82043219 C291.13992714 234.41346582 291.14037371 233.00649945 291.14082336 231.59953308 C291.14104479 230.90164116 291.14126622 230.20374924 291.14149436 229.48470908 C291.14543726 218.19176944 291.16287741 206.89889453 291.18618289 195.60597986 C291.20996384 183.98802466 291.22210447 172.37010504 291.22352481 160.75212526 C291.22457021 154.23869369 291.23042136 147.72535344 291.24834442 141.21194458 C291.26489258 135.07891977 291.26694792 128.94605425 291.25820541 122.81301498 C291.25743859 120.57140042 291.26173055 118.32977705 291.27166367 116.08818436 C291.36350101 94.05794726 289.08561442 75.93563712 274.90058899 58.13371277 C274.17742493 57.16304871 274.17742493 57.16304871 273.43965149 56.17277527 C262.89900473 42.707556 245.43726566 35.41418958 228.90058899 33.13371277 C225.67951412 32.98793827 222.46184067 32.99016358 219.23786926 32.99327087 C217.78716813 32.98881419 217.78716813 32.98881419 216.3071599 32.98426747 C213.06941392 32.97560241 209.83170501 32.97407406 206.59394836 32.97257996 C204.27098004 32.96795014 201.94801246 32.96292526 199.62504578 32.95753479 C193.31474524 32.94442242 187.00445533 32.93796781 180.6941433 32.93352413 C176.74847649 32.93059084 172.80281257 32.92648549 168.85714722 32.92201996 C157.91780988 32.90991254 146.97847507 32.89953063 136.03913116 32.89614487 C135.33957228 32.8959253 134.6400134 32.89570573 133.91925576 32.89547952 C133.21808317 32.89526124 132.51691058 32.89504296 131.79449034 32.89481807 C130.37380187 32.89437461 128.9531134 32.89392805 127.53242493 32.89347839 C126.82772397 32.89325696 126.12302301 32.89303553 125.39696747 32.89280739 C113.99335803 32.88886435 102.58981269 32.87142451 91.18622798 32.84811887 C79.45869919 32.82434615 67.73120248 32.81194028 56.00364923 32.81077695 C49.42707782 32.809731 42.8505968 32.80386811 36.27404785 32.78595734 C30.08194399 32.76942182 23.88999793 32.76734778 17.69787979 32.77609634 C15.43327027 32.77686385 13.16865208 32.77256208 10.90406418 32.76263809 C-10.82748592 32.67304026 -28.57609398 35.17068872 -46.09941101 49.13371277 Z " fill="#000000" transform="translate(146.0994110107422,41.86628723144531)"/>
<path d="M0 0 C3.66944815 3.00099539 6.96937735 6.29600157 10.25927734 9.70410156 C10.99662109 10.41050781 11.73396484 11.11691406 12.49365234 11.84472656 C25.62967905 25.1844126 30.58752135 44.0738851 30.75927734 62.26660156 C30.66993235 71.71902288 29.99074495 79.92355773 26.25927734 88.70410156 C25.99083008 89.34105957 25.72238281 89.97801758 25.44580078 90.63427734 C17.07682797 110.0182271 3.34727574 124.07626983 -16.11962891 132.30175781 C-36.10862349 140.04291105 -57.21668192 139.15902391 -76.74072266 130.70410156 C-95.60139182 122.1773483 -107.88753786 107.47334996 -115.74072266 88.70410156 C-123.5793227 67.60539135 -121.38152795 47.04826083 -112.46728516 26.81347656 C-108.56370374 18.91605751 -102.88914571 12.87850387 -96.74072266 6.70410156 C-95.67724609 5.58841797 -95.67724609 5.58841797 -94.59228516 4.45019531 C-70.32584083 -19.30488716 -26.67473545 -19.8582743 0 0 Z M-79.17041016 36.52050781 C-86.82029762 47.1580379 -87.78424039 57.96294907 -86.74072266 70.70410156 C-85.21215945 78.18969395 -81.73916565 84.01580082 -76.74072266 89.70410156 C-76.23927734 90.30996094 -75.73783203 90.91582031 -75.22119141 91.54003906 C-67.94096089 99.65280202 -57.50498387 103.95852503 -46.74072266 104.70410156 C-35.72509678 104.96140085 -25.4568536 101.50877592 -17.17822266 94.20410156 C-12.59888608 89.81782302 -8.85158622 85.35308808 -6.05322266 79.64160156 C-5.42867187 78.38669922 -5.42867187 78.38669922 -4.79150391 77.10644531 C-0.97253996 68.37535673 -1.32013918 55.61634844 -4.30322266 46.64160156 C-9.79976726 34.04776427 -19.94568175 25.63062303 -32.43994141 20.62207031 C-50.70438478 15.54260973 -67.31030126 22.37112208 -79.17041016 36.52050781 Z " fill="#000000" transform="translate(300.74072265625,128.2958984375)"/>
<path d="M0 0 C2.49088695 -0.00270186 4.98177287 -0.00659001 7.47265625 -0.01159668 C12.66676986 -0.01745904 17.86060637 -0.00903445 23.0546875 0.00976562 C29.66778633 0.03255258 36.28023547 0.01941192 42.89331055 -0.00452423 C48.02901994 -0.01907069 53.1645787 -0.01433583 58.30029297 -0.00401306 C60.73681722 -0.00137017 63.17335574 -0.00452824 65.60986328 -0.01393127 C94.98065421 -0.10244201 119.40078793 6.25741874 140.9375 27.03125 C157.4747895 44.36639118 166.32908112 66.6554096 167 90.53125 C166.67475537 97.41976443 165.00205106 101.76739184 160 106.53125 C155.11198303 109.61282591 149.56884508 109.12844518 144 108.53125 C139.02094235 106.21954466 136.66586314 103.26630466 134 98.53125 C133.38100948 95.73270544 133.22614714 92.95066681 133.0625 90.09375 C131.72649291 74.63559456 126.60006565 59.99084053 115.0078125 49.15234375 C102.39700677 38.97046753 89.51748512 34.21421269 73.43823242 34.2565918 C71.91435661 34.2489254 71.91435661 34.2489254 70.35969543 34.24110413 C67.02489208 34.22728479 63.69029721 34.2281593 60.35546875 34.23046875 C58.02053247 34.22657732 55.6855969 34.22224173 53.35066223 34.21748352 C48.46446434 34.21003752 43.57833872 34.21030063 38.69213867 34.21557617 C32.45508306 34.22136524 26.21832495 34.20444521 19.98131847 34.1812315 C15.1606526 34.16644201 10.34005749 34.16562961 5.51937294 34.16874123 C3.22105636 34.16823053 0.92273555 34.1630404 -1.37555885 34.15292931 C-22.20413155 34.07254185 -38.9607343 35.95127097 -54.78515625 51.16015625 C-65.4666376 62.59518126 -69.22811404 75.25325372 -71 90.53125 C-71.90644758 97.38510367 -72.90315435 101.67711128 -78 106.53125 C-82.88801697 109.61282591 -88.43115492 109.12844518 -94 108.53125 C-98.90331294 106.25471185 -101.5537698 103.33310929 -104 98.53125 C-108.09827964 78.25320052 -100.09195906 56.24257584 -89 39.53125 C-86.50310493 36.02570821 -83.85933188 32.74662896 -81 29.53125 C-80.34773438 28.78488281 -79.69546875 28.03851563 -79.0234375 27.26953125 C-57.77564712 4.46993596 -29.68858885 -0.11457494 0 0 Z " fill="#000000" transform="translate(225,288.46875)"/>
</svg>
